<svg xmlns="http://www.w3.org/2000/svg" xmlns:xlink="http://www.w3.org/1999/xlink" viewBox="0 0 500 500"><defs><clipPath id="freepik--clip-path--inject-10"><rect x="174.41" y="112.08" width="167.9" height="302.59" rx="6.75" style="fill:#fff;stroke:#263238;stroke-linecap:round;stroke-linejoin:round"></rect></clipPath></defs><g id="freepik--background-simple--inject-10"><path d="M342,387s48-3,81-62,27-149-14-199S304,59,243,75c-29.72,7.79-49.54,28-66.67,52.38-14.92,21.24-31.7,41.7-54.28,55.14-22.36,13.3-45.35,23.92-56.64,49.2C37.93,293.28,58,364.88,123,389,193,415,310,401,342,387Z" style="fill:#07B004"></path><path d="M342,387s48-3,81-62,27-149-14-199S304,59,243,75c-29.72,7.79-49.54,28-66.67,52.38-14.92,21.24-31.7,41.7-54.28,55.14-22.36,13.3-45.35,23.92-56.64,49.2C37.93,293.28,58,364.88,123,389,193,415,310,401,342,387Z" style="fill:#fff;opacity:0.7000000000000001"></path></g><g id="freepik--Graphics--inject-10"><line x1="80.97" y1="226.3" x2="80.97" y2="235.17" style="fill:none;stroke:#263238;stroke-linecap:round;stroke-linejoin:round"></line><line x1="85.41" y1="230.74" x2="76.54" y2="230.74" style="fill:none;stroke:#263238;stroke-linecap:round;stroke-linejoin:round"></line><line x1="383.64" y1="150.3" x2="383.64" y2="159.17" style="fill:none;stroke:#263238;stroke-linecap:round;stroke-linejoin:round"></line><line x1="388.07" y1="154.74" x2="379.2" y2="154.74" style="fill:none;stroke:#263238;stroke-linecap:round;stroke-linejoin:round"></line><line x1="257.64" y1="81.64" x2="257.64" y2="90.51" style="fill:none;stroke:#263238;stroke-linecap:round;stroke-linejoin:round"></line><line x1="262.07" y1="86.07" x2="253.2" y2="86.07" style="fill:none;stroke:#263238;stroke-linecap:round;stroke-linejoin:round"></line><line x1="111.64" y1="325.64" x2="111.64" y2="334.51" style="fill:none;stroke:#263238;stroke-linecap:round;stroke-linejoin:round"></line><line x1="116.07" y1="330.07" x2="107.2" y2="330.07" style="fill:none;stroke:#263238;stroke-linecap:round;stroke-linejoin:round"></line><path d="M379.67,118.33a7.34,7.34,0,1,1-7.34-7.33A7.34,7.34,0,0,1,379.67,118.33Z" style="fill:none;stroke:#263238;stroke-linecap:round;stroke-linejoin:round"></path><circle cx="63" cy="287.67" r="7.33" transform="translate(-105.29 46.01) rotate(-22.5)" style="fill:none;stroke:#263238;stroke-linecap:round;stroke-linejoin:round"></circle><path d="M413,193.33a1.67,1.67,0,1,1-3.33,0,1.67,1.67,0,0,1,3.33,0Z" style="fill:none;stroke:#263238;stroke-linecap:round;stroke-linejoin:round"></path><path d="M158.67,169.33a1.67,1.67,0,1,1-1.67-1.66A1.67,1.67,0,0,1,158.67,169.33Z" style="fill:none;stroke:#263238;stroke-linecap:round;stroke-linejoin:round"></path></g><g id="freepik--Device--inject-10"><rect x="179.74" y="112.08" width="167.9" height="302.59" rx="6.75" style="fill:#263238;stroke:#263238;stroke-linecap:round;stroke-linejoin:round"></rect><rect x="174.41" y="112.08" width="167.9" height="302.59" rx="6.75" style="fill:#fff"></rect><g style="clip-path:url(#freepik--clip-path--inject-10)"><path d="M342.31,226.26,194.67,414.68h140.9a6.75,6.75,0,0,0,6.74-6.75Z" style="fill:#07B004"></path><path d="M342.31,226.26,194.67,414.68h140.9a6.75,6.75,0,0,0,6.74-6.75Z" style="fill:#fff;opacity:0.5"></path></g><rect x="174.41" y="112.08" width="167.9" height="302.59" rx="6.75" style="fill:none;stroke:#263238;stroke-linecap:round;stroke-linejoin:round"></rect><path d="M270,130.16h-20.9a2.15,2.15,0,0,1-2.15-2.15h0a2.14,2.14,0,0,1,2.15-2.14H270a2.14,2.14,0,0,1,2.14,2.14h0A2.14,2.14,0,0,1,270,130.16Z" style="fill:#263238;stroke:#263238;stroke-linecap:round;stroke-linejoin:round"></path><path d="M331.7,387.63H185V130.41h34.77l3.91,3.24a7.6,7.6,0,0,0,4.86,1.76h61.35a7.61,7.61,0,0,0,5-1.9l3.54-3.1H331.7Z" style="fill:#263238;stroke:#263238;stroke-linecap:round;stroke-linejoin:round"></path><line x1="212.54" y1="332.17" x2="304.18" y2="332.17" style="fill:none;stroke:#fff;stroke-linecap:round;stroke-linejoin:round"></line><line x1="212.54" y1="344.23" x2="304.18" y2="344.23" style="fill:none;stroke:#fff;stroke-linecap:round;stroke-linejoin:round"></line><line x1="212.54" y1="356.29" x2="304.18" y2="356.29" style="fill:none;stroke:#fff;stroke-linecap:round;stroke-linejoin:round"></line><path d="M221,220.2a45.35,45.35,0,1,0,37.33-19.59,46.22,46.22,0,0,0-8.29.75" style="fill:none;stroke:#fff;stroke-linecap:round;stroke-linejoin:round"></path><path d="M228.73,211.63a46.5,46.5,0,0,0-4.3,4.24" style="fill:none;stroke:#fff;stroke-linecap:round;stroke-linejoin:round"></path><circle cx="258.36" cy="245.95" r="38.48" transform="translate(-69.16 387.29) rotate(-66.93)" style="fill:#07B004"></circle><polyline points="240.59 241.97 255.19 258.56 279.07 224.73" style="fill:none;stroke:#263238;stroke-linecap:round;stroke-linejoin:round;stroke-width:6px"></polyline><path d="M294.93,133.51a7.61,7.61,0,0,1-5,1.9H228.56a7.6,7.6,0,0,1-4.86-1.76l-3.91-3.24H185v26.31H331.7V130.41H298.47Z" style="fill:#07B004;stroke:#263238;stroke-linecap:round;stroke-linejoin:round"></path><path d="M263.05,395.56a3.34,3.34,0,1,0-3.33,3.33A3.34,3.34,0,0,0,263.05,395.56Z" style="fill:#263238;stroke:#263238;stroke-linecap:round;stroke-linejoin:round"></path></g></svg>