<svg width="144" height="144" viewBox="0 0 144 144" fill="none" xmlns="http://www.w3.org/2000/svg">
<path d="M41.8249 32.3198V26.399H63.4223C63.9474 26.399 64.4096 26.0529 64.5587 25.5501C65.7221 21.6162 69.401 18.8685 73.5045 18.8685C77.6081 18.8685 81.2875 21.6162 82.4499 25.5494C82.5985 26.0529 83.0613 26.399 83.5866 26.399H107.3V32.3198H109.669V25.2135C109.669 24.5593 109.139 24.0286 108.485 24.0286H84.4355C82.7234 19.5532 78.3505 16.4988 73.5045 16.4988C68.6593 16.4988 64.2859 19.5539 62.5737 24.0286H40.6399C39.9856 24.0286 39.4549 24.5593 39.4549 25.2135V32.3198H41.8249" fill="url(#paint0_linear_601_186)"/>
<path d="M36.7082 121.482H112.416C113.07 121.482 113.6 120.951 113.6 120.297V33.5047C113.6 32.8505 113.07 32.3198 112.416 32.3198H109.669H107.3H104.038C104.692 32.3198 105.223 32.8505 105.223 33.5047V34.6895H111.231V119.111H37.893V34.6895H44.8369V34.3278C44.8369 33.673 45.3674 33.1423 46.0218 33.1423C46.676 33.1423 47.2067 33.673 47.2067 34.3278V34.6895H102.853V33.5047C102.853 32.8505 103.384 32.3198 104.038 32.3198H41.8249H39.4549H36.7082C36.0539 32.3198 35.5233 32.8505 35.5233 33.5047V120.297C35.5233 120.951 36.0539 121.482 36.7082 121.482Z" fill="url(#paint1_linear_601_186)"/>
<path d="M64.6576 43.2C72.1147 43.2 78.1821 49.2667 78.1821 56.7232C78.1821 64.1811 72.1147 70.2485 64.6576 70.2485C57.1997 70.2485 51.1325 64.1811 51.1325 56.7232C51.1325 49.2667 57.1997 43.2 64.6576 43.2ZM48.7626 56.7232C48.7626 65.4881 55.8931 72.6182 64.6576 72.6182C73.4217 72.6182 80.5518 65.4881 80.5518 56.7232C80.5518 47.9597 73.4217 40.8297 64.6576 40.8297C55.8931 40.8297 48.7626 47.9597 48.7626 56.7232" fill="url(#paint2_linear_601_186)"/>
<path d="M65.7553 55.446V50.1984C65.7553 49.5436 65.2246 49.0136 64.5703 49.0136C63.9159 49.0136 63.3853 49.5436 63.3853 50.1984V55.446H65.7553" fill="url(#paint3_linear_601_186)"/>
<path d="M63.3853 57.8158V63.0634C63.3853 63.7183 63.9159 64.2483 64.5703 64.2483C65.2246 64.2483 65.7553 63.7183 65.7553 63.0634V57.8158H63.3853" fill="url(#paint4_linear_601_186)"/>
<path d="M58.5066 57.8157H70.6333C71.2875 57.8157 71.8181 57.2857 71.8181 56.6308C71.8181 55.9767 71.2875 55.446 70.6333 55.446H65.7552H63.3853H58.5066C57.8524 55.446 57.3217 55.9767 57.3217 56.6308C57.3217 57.2857 57.8524 57.8157 58.5066 57.8157Z" fill="url(#paint5_linear_601_186)"/>
<path d="M100.679 47.0415H86.1306C85.4764 47.0415 84.9457 47.5722 84.9457 48.2264C84.9457 48.8812 85.4764 49.4113 86.1306 49.4113H100.679C101.333 49.4113 101.863 48.8812 101.863 48.2264C101.863 47.5722 101.333 47.0415 100.679 47.0415" fill="url(#paint6_linear_601_186)"/>
<path d="M100.678 58.1509H85.072C84.4178 58.1509 83.8871 58.6816 83.8871 59.3358C83.8871 59.9907 84.4178 60.5214 85.072 60.5214H100.678C101.333 60.5214 101.863 59.9907 101.863 59.3358C101.863 58.6816 101.333 58.1509 100.678 58.1509" fill="url(#paint7_linear_601_186)"/>
<path d="M100.679 75.716H49.9476C49.2933 75.716 48.7626 76.2467 48.7626 76.9009C48.7626 77.555 49.2933 78.0857 49.9476 78.0857H100.679C101.333 78.0857 101.863 77.555 101.863 76.9009C101.863 76.2467 101.333 75.716 100.679 75.716" fill="url(#paint8_linear_601_186)"/>
<path d="M99.928 84.603H49.1964C48.5421 84.603 48.0115 85.133 48.0115 85.7878C48.0115 86.442 48.5421 86.9727 49.1964 86.9727H99.928C100.582 86.9727 101.113 86.442 101.113 85.7878C101.113 85.133 100.582 84.603 99.928 84.603Z" fill="url(#paint9_linear_601_186)"/>
<path d="M75.3138 94.1251H49.1964C48.5421 94.1251 48.0115 94.6558 48.0115 95.31C48.0115 95.9649 48.5421 96.4949 49.1964 96.4949H75.3138C75.9679 96.4949 76.4986 95.9649 76.4986 95.31C76.4986 94.6558 75.9679 94.1251 75.3138 94.1251Z" fill="url(#paint10_linear_601_186)"/>
<path d="M73.9768 28.2612C72.7866 28.2612 71.8182 27.2921 71.8182 26.1018C71.8182 24.9116 72.7866 23.9425 73.9768 23.9425C75.1678 23.9425 76.1368 24.9116 76.1368 26.1018C76.1368 27.2921 75.1678 28.2612 73.9768 28.2612ZM73.9768 21.5728C71.4802 21.5728 69.4485 23.6046 69.4485 26.1018C69.4485 28.5991 71.4802 30.6309 73.9768 30.6309C76.4748 30.6309 78.5065 28.5991 78.5065 26.1018C78.5065 23.6046 76.4748 21.5728 73.9768 21.5728Z" fill="url(#paint11_linear_601_186)"/>
<path d="M102.853 33.5048V112.313H47.2067V34.3279C47.2067 33.6731 46.676 33.1424 46.0218 33.1424C45.3674 33.1424 44.8369 33.6731 44.8369 34.3279V34.6896V113.498C44.8369 114.152 45.3674 114.683 46.0218 114.683H104.038C104.692 114.683 105.223 114.152 105.223 113.498V34.6896V33.5048C105.223 32.8506 104.692 32.3199 104.038 32.3199C103.384 32.3199 102.853 32.8506 102.853 33.5048" fill="url(#paint12_linear_601_186)"/>
<path d="M110.541 22.7332L111.699 19.7229L114.71 18.5645L111.699 17.4068L110.541 14.3958L109.383 17.4068L106.373 18.5645L109.383 19.7229L110.541 22.7332" fill="url(#paint13_linear_601_186)"/>
<path d="M115.974 30.5778L117.132 33.5881L118.29 30.5778L121.301 29.4195L118.29 28.2618L117.132 25.2515L115.974 28.2618L112.963 29.4195L115.974 30.5778Z" fill="url(#paint14_linear_601_186)"/>
<path d="M26.822 118.702L27.9798 115.692L30.9904 114.534L27.9798 113.376L26.822 110.366L25.6635 113.376L22.6528 114.534L25.6635 115.692L26.822 118.702Z" fill="url(#paint15_linear_601_186)"/>
<path d="M32.2547 126.548L33.4126 129.558L34.571 126.548L37.5817 125.389L34.571 124.231L33.4126 121.22L32.2547 124.231L29.244 125.389L32.2547 126.548Z" fill="url(#paint16_linear_601_186)"/>
<defs>
<linearGradient id="paint0_linear_601_186" x1="74.5622" y1="32.3198" x2="74.5622" y2="21.4659" gradientUnits="userSpaceOnUse">
<stop stop-color="#5F76E8"/>
<stop offset="1" stop-color="#8971EA"/>
</linearGradient>
<linearGradient id="paint1_linear_601_186" x1="74.5619" y1="121.482" x2="74.5619" y2="60.3125" gradientUnits="userSpaceOnUse">
<stop stop-color="#5F76E8"/>
<stop offset="1" stop-color="#8971EA"/>
</linearGradient>
<linearGradient id="paint2_linear_601_186" x1="64.6572" y1="72.6182" x2="64.6572" y2="50.8098" gradientUnits="userSpaceOnUse">
<stop stop-color="#5F76E8"/>
<stop offset="1" stop-color="#8971EA"/>
</linearGradient>
<linearGradient id="paint3_linear_601_186" x1="64.5703" y1="55.446" x2="64.5703" y2="51.0331" gradientUnits="userSpaceOnUse">
<stop stop-color="#5F76E8"/>
<stop offset="1" stop-color="#8971EA"/>
</linearGradient>
<linearGradient id="paint4_linear_601_186" x1="64.5703" y1="64.2483" x2="64.5703" y2="59.8353" gradientUnits="userSpaceOnUse">
<stop stop-color="#5F76E8"/>
<stop offset="1" stop-color="#8971EA"/>
</linearGradient>
<linearGradient id="paint5_linear_601_186" x1="64.5699" y1="57.8157" x2="64.5699" y2="56.19" gradientUnits="userSpaceOnUse">
<stop stop-color="#5F76E8"/>
<stop offset="1" stop-color="#8971EA"/>
</linearGradient>
<linearGradient id="paint6_linear_601_186" x1="93.4046" y1="49.4113" x2="93.4046" y2="47.7855" gradientUnits="userSpaceOnUse">
<stop stop-color="#5F76E8"/>
<stop offset="1" stop-color="#8971EA"/>
</linearGradient>
<linearGradient id="paint7_linear_601_186" x1="92.8752" y1="60.5214" x2="92.8752" y2="58.8951" gradientUnits="userSpaceOnUse">
<stop stop-color="#5F76E8"/>
<stop offset="1" stop-color="#8971EA"/>
</linearGradient>
<linearGradient id="paint8_linear_601_186" x1="75.313" y1="78.0857" x2="75.313" y2="76.46" gradientUnits="userSpaceOnUse">
<stop stop-color="#5F76E8"/>
<stop offset="1" stop-color="#8971EA"/>
</linearGradient>
<linearGradient id="paint9_linear_601_186" x1="74.5621" y1="86.9727" x2="74.5621" y2="85.347" gradientUnits="userSpaceOnUse">
<stop stop-color="#5F76E8"/>
<stop offset="1" stop-color="#8971EA"/>
</linearGradient>
<linearGradient id="paint10_linear_601_186" x1="62.255" y1="96.4949" x2="62.255" y2="94.8691" gradientUnits="userSpaceOnUse">
<stop stop-color="#5F76E8"/>
<stop offset="1" stop-color="#8971EA"/>
</linearGradient>
<linearGradient id="paint11_linear_601_186" x1="73.9775" y1="30.6309" x2="73.9775" y2="24.4166" gradientUnits="userSpaceOnUse">
<stop stop-color="#5F76E8"/>
<stop offset="1" stop-color="#8971EA"/>
</linearGradient>
<linearGradient id="paint12_linear_601_186" x1="75.03" y1="114.683" x2="75.0301" y2="58.1781" gradientUnits="userSpaceOnUse">
<stop stop-color="#5F76E8"/>
<stop offset="1" stop-color="#8971EA"/>
</linearGradient>
<linearGradient id="paint13_linear_601_186" x1="110.541" y1="22.7332" x2="110.541" y2="17.0133" gradientUnits="userSpaceOnUse">
<stop stop-color="#5F76E8"/>
<stop offset="1" stop-color="#8971EA"/>
</linearGradient>
<linearGradient id="paint14_linear_601_186" x1="117.132" y1="33.5881" x2="117.132" y2="27.8688" gradientUnits="userSpaceOnUse">
<stop stop-color="#5F76E8"/>
<stop offset="1" stop-color="#8971EA"/>
</linearGradient>
<linearGradient id="paint15_linear_601_186" x1="26.8216" y1="118.702" x2="26.8216" y2="112.983" gradientUnits="userSpaceOnUse">
<stop stop-color="#5F76E8"/>
<stop offset="1" stop-color="#8971EA"/>
</linearGradient>
<linearGradient id="paint16_linear_601_186" x1="33.4129" y1="129.558" x2="33.4129" y2="123.838" gradientUnits="userSpaceOnUse">
<stop stop-color="#5F76E8"/>
<stop offset="1" stop-color="#8971EA"/>
</linearGradient>
</defs>
</svg>
