<svg width="144" height="144" viewBox="0 0 144 144" fill="none" xmlns="http://www.w3.org/2000/svg">
<g clip-path="url(#clip0_601_108)">
<path d="M29.4108 105.432C29.4108 105.426 29.4105 105.419 29.4105 105.413V59.4822H27.9234C27.17 59.4822 26.5543 58.9201 26.4563 58.1937C26.4437 58.4552 26.4364 58.7183 26.4364 58.9823V105.413C26.4364 105.419 26.4369 105.426 26.4369 105.432H27.9234H29.4108" fill="url(#paint0_linear_601_108)"/>
<path d="M27.9234 56.5087H29.6493C30.8079 50.5172 36.0891 45.9784 42.413 45.9784H55.5885C55.4713 44.8722 55.3865 43.8325 55.3282 43.0047H42.413C34.0749 43.0047 27.2121 49.4272 26.5012 57.5842C26.6806 56.9651 27.2459 56.5087 27.9234 56.5087" fill="url(#paint1_linear_601_108)"/>
<path d="M99.6572 45.9781H114.791C121.118 45.9781 126.402 50.522 127.558 56.511C128.368 56.5238 129.021 57.1829 129.021 57.9953C129.021 58.7284 128.489 59.3339 127.791 59.4565L127.674 78.2921L127.795 102.065V105.413C127.795 105.419 127.795 105.426 127.795 105.432H129.281H130.768C130.768 105.426 130.769 105.419 130.769 105.413V102.058L130.648 78.293L130.769 58.9822C130.769 50.172 123.601 43.0044 114.791 43.0044H100.062C99.9629 43.8253 99.8275 44.8668 99.6572 45.9781" fill="url(#paint2_linear_601_108)"/>
<path d="M105.609 56.5086C104.789 56.5086 104.123 57.1745 104.123 57.9954C104.123 58.8171 104.789 59.4822 105.609 59.4822H127.534C127.622 59.4822 127.707 59.4711 127.791 59.4566C128.489 59.334 129.02 58.7286 129.02 57.9954C129.02 57.183 128.367 56.5239 127.557 56.5111C127.549 56.5111 127.541 56.5086 127.534 56.5086H105.609" fill="url(#paint3_linear_601_108)"/>
<path d="M27.9234 59.4822H52.561C53.3823 59.4822 54.0479 58.8171 54.0479 57.9954C54.0479 57.1745 53.3823 56.5086 52.561 56.5086H29.6493H27.9234C27.2459 56.5086 26.6805 56.965 26.5011 57.5841C26.4631 57.7161 26.4364 57.8523 26.4364 57.9954C26.4364 58.0635 26.4476 58.1282 26.4563 58.1938C26.5543 58.9202 27.1699 59.4822 27.9234 59.4822" fill="url(#paint4_linear_601_108)"/>
<path d="M142.026 118.417H16.7489V108.407H142.026V118.417ZM143.513 105.432H15.262C14.4407 105.432 13.775 106.099 13.775 106.92V119.904C13.775 120.725 14.4407 121.391 15.262 121.391H42.413H114.791H143.513C144.334 121.391 145 120.725 145 119.904V106.92C145 106.099 144.334 105.432 143.513 105.432" fill="url(#paint5_linear_601_108)"/>
<path d="M90.6399 67.8862C90.7898 67.9765 90.9362 68.0668 91.0742 68.1587C92.0731 68.8221 92.8293 69.5425 93.41 70.2391C94.7308 70.406 96.0269 70.5942 97.2949 70.8054C96.56 69.3033 95.2273 67.3761 92.8216 65.7497C92.1395 65.289 91.4131 64.8776 90.6399 64.5149V67.8862" fill="url(#paint6_linear_601_108)"/>
<path d="M64.833 72.3611V70.1173C63.5797 70.2629 62.3474 70.4272 61.1383 70.6129C60.0093 71.7258 59.197 72.8993 58.6257 74.0676C60.5958 73.6946 62.6762 73.3719 64.8589 73.1096C64.8226 72.9402 64.8007 72.7997 64.8007 72.7043C64.8007 72.5893 64.8113 72.4752 64.833 72.3611" fill="url(#paint7_linear_601_108)"/>
<path d="M47.8631 73.7723C39.1384 76.8013 34.3334 81.0301 34.3334 85.6796V96.3777C34.3334 97.1986 34.9991 97.8645 35.8204 97.8645C36.6416 97.8645 37.3073 97.1986 37.3073 96.3777V85.6796C37.3073 81.6901 44.0626 77.4144 55.1613 74.801C55.5111 73.6812 56.012 72.5316 56.7109 71.3982C53.524 72.047 50.5489 72.8398 47.8631 73.7723" fill="url(#paint8_linear_601_108)"/>
<path d="M93.41 70.2392C92.4988 70.1242 91.574 70.0229 90.6399 69.9292V72.3579C90.6629 72.4737 90.674 72.5886 90.674 72.7044C90.674 72.7615 90.6654 72.8356 90.6527 72.9199C91.1193 72.9684 91.5817 73.0195 92.0398 73.074C93.4475 72.4021 95.0211 72.0249 96.6825 72.0249C99.7856 72.0249 102.585 73.3406 104.559 75.4413C114.155 78.0795 119.898 82.0017 119.898 85.6796V96.3777C119.898 97.1986 120.563 97.8645 121.384 97.8645C122.205 97.8645 122.871 97.1986 122.871 96.3777V85.6796C122.871 81.0301 118.066 76.8013 109.341 73.7723C105.775 72.5341 101.704 71.5378 97.2948 70.8055C96.0268 70.5943 94.7308 70.4061 93.41 70.2392" fill="url(#paint9_linear_601_108)"/>
<path d="M65.7133 64.1971C66.4702 63.8803 67.3422 64.2362 67.6589 64.9941C67.9766 65.752 67.6198 66.6223 66.8619 66.94C66.1312 67.2457 65.4588 67.5718 64.8329 67.9133V70.1171V72.361C64.8112 72.4751 64.8006 72.5892 64.8006 72.7042C64.8006 72.7996 64.8225 72.9401 64.8588 73.1095C65.44 75.8183 70.5559 87.4541 76.2503 89.2926V89.2739C76.2503 88.453 76.9153 87.787 77.7371 87.787C78.558 87.787 79.2239 88.453 79.2239 89.2739V89.2935C81.6432 88.5134 83.9585 85.9673 85.866 83.0813V82.8403C85.866 79.2467 87.6296 76.0585 90.335 74.0905C90.5002 73.5907 90.6109 73.187 90.6526 72.9196C90.6654 72.8353 90.6739 72.7612 90.6739 72.7042C90.6739 72.5884 90.6628 72.4734 90.6399 72.3576V69.9289V67.886V64.5147V61.2072C90.6399 61.2081 90.639 61.2089 90.6381 61.2098C89.9399 61.7888 88.9052 62.6055 87.6662 63.4579V72.5441C87.6662 72.6054 87.6705 72.6676 87.6781 72.7289C87.1323 75.08 81.6312 86.5727 77.7371 86.5727C73.8429 86.5727 68.3402 75.0766 67.796 72.7272C67.8028 72.6667 67.8071 72.6062 67.8071 72.5458V63.6895C66.5723 62.8823 65.5388 62.1073 64.8329 61.5504V64.5862C65.1196 64.4542 65.4111 64.3231 65.7133 64.1971Z" fill="url(#paint10_linear_601_108)"/>
<path d="M77.6989 65.9958V64.5099C75.0318 64.5099 70.7944 62.4704 66.6388 59.1876C63.396 56.6279 60.7271 53.7036 59.6736 51.5551C58.8381 49.8512 58.3166 43.8034 58.1946 41.1338C58.191 41.0444 58.1793 40.9532 58.1591 40.8647C57.8319 39.4162 57.6658 37.9225 57.6658 36.4229C57.6658 35.9852 57.6845 35.522 57.7244 34.9693C57.7486 34.7582 57.8504 33.8419 57.8504 33.2943C57.8504 21.5386 66.8134 11.9739 77.83 11.9739C88.8466 11.9739 97.8093 21.5386 97.8093 33.2943C97.8093 33.7499 97.7914 34.2336 97.7531 34.8169C97.7488 34.8842 97.7488 34.9523 97.7539 35.0196C97.7914 35.5586 97.8093 36.0048 97.8093 36.4229C97.8093 37.9064 97.6415 39.4 97.3102 40.8647C97.2872 40.9686 97.2745 41.0742 97.2745 41.1798C96.9466 44.3876 96.141 49.9176 95.3167 51.5347C94.2642 53.6006 91.7436 56.4303 88.7402 58.9203C84.6024 62.352 80.383 64.4928 77.7295 64.5099L77.6989 65.9958V65.9976V65.9958ZM55.5885 45.9783C55.8594 48.5347 56.3044 51.4385 57.0035 52.8648C58.2591 55.4255 61.1723 58.6614 64.7956 61.5218C64.8075 61.5311 64.8209 61.5413 64.8329 61.5507C65.5389 62.1076 66.5724 62.8826 67.8072 63.6898C70.5832 65.5071 74.3693 67.4835 77.6989 67.4844C77.7023 67.4844 77.744 67.4844 77.7474 67.4844C81.0957 67.4622 84.8937 65.3691 87.6663 63.4582C88.9054 62.6058 89.94 61.7891 90.6383 61.2101C90.6391 61.2092 90.64 61.2084 90.64 61.2075C93.9841 58.4357 96.7227 55.3241 97.9668 52.8853C98.6915 51.4623 99.2654 48.5389 99.6571 45.9783C99.8274 44.867 99.9628 43.8255 100.062 43.0046C100.159 42.2033 100.22 41.6115 100.244 41.3731C100.602 39.7406 100.783 38.0767 100.783 36.4229C100.783 35.9606 100.765 35.4777 100.727 34.9114C100.765 34.3051 100.783 33.7891 100.783 33.2943C100.783 19.8993 90.4867 9.00024 77.83 9.00024C65.1733 9.00024 54.8766 19.8993 54.8766 33.2943C54.8766 33.6051 54.8093 34.2949 54.7668 34.656C54.7644 34.6773 54.7623 34.6994 54.7606 34.7207C54.7137 35.3619 54.692 35.9026 54.692 36.4229C54.692 38.098 54.8727 39.7687 55.2294 41.3918C55.2442 41.683 55.2755 42.2578 55.3282 43.0046C55.3865 43.8324 55.4713 44.8721 55.5885 45.9783" fill="url(#paint11_linear_601_108)"/>
<path d="M80.7311 37.8654C83.1198 40.197 87.3477 42.3344 94.8448 42.4434C94.8525 42.4434 94.8593 42.4434 94.8669 42.4434C95.6776 42.4434 96.341 41.7911 96.3529 40.9778C96.3657 40.1569 95.7091 39.4817 94.8882 39.4697C93.8689 39.4553 92.9314 39.3948 92.0526 39.3054C87.8476 38.8762 85.178 37.6619 83.4944 36.3164C82.6582 36.8282 81.7377 37.3502 80.7311 37.8654Z" fill="url(#paint12_linear_601_108)"/>
<path d="M60.6043 42.474C60.8655 42.4791 61.1231 42.4817 61.3811 42.4817C69.4924 42.4817 76.0263 40.2685 80.7312 37.8654C81.7377 37.3502 82.6582 36.8282 83.4945 36.3164C84.0897 35.9536 84.6372 35.5968 85.1439 35.2511C87.7258 33.4909 89.159 32.0594 89.314 31.901C89.5865 31.6226 89.7389 31.2487 89.7389 30.8604V23.4502C89.7389 22.6293 89.073 21.9633 88.2521 21.9633C87.4312 21.9633 86.7653 22.6293 86.7653 23.4502V24.3945V30.2184C84.8229 31.9743 76.321 38.9188 63.0227 39.4689C62.2489 39.5012 61.4616 39.5149 60.6558 39.5012C60.647 39.5012 60.6383 39.5012 60.6295 39.5012C59.8203 39.5012 59.1574 40.1501 59.1432 40.9625C59.1289 41.7834 59.783 42.4604 60.6043 42.474" fill="url(#paint13_linear_601_108)"/>
<path d="M77.7371 87.7871C76.9154 87.7871 76.2503 88.453 76.2503 89.2739V89.2926V98.3812C76.2503 99.203 76.9154 99.8689 77.7371 99.8689C78.558 99.8689 79.2239 99.203 79.2239 98.3812V89.2935V89.2739C79.2239 88.453 78.558 87.7871 77.7371 87.7871" fill="url(#paint14_linear_601_108)"/>
<path d="M59.3304 84.2966C61.7477 84.2966 63.7143 86.2637 63.7143 88.6813C63.7143 91.0988 61.7477 93.0659 59.3304 93.0659C56.9131 93.0659 54.9464 91.0988 54.9464 88.6813C54.9464 86.2637 56.9131 84.2966 59.3304 84.2966ZM57.8052 83.1598C58.0472 83.9424 57.611 84.7752 56.8291 85.0196C56.6809 85.0664 56.531 85.0886 56.3837 85.0886C55.753 85.0886 55.1687 84.6849 54.9685 84.0514C54.9613 84.0292 54.8414 83.6307 54.7163 82.958C53.0452 84.3077 51.9724 86.3702 51.9724 88.6813C51.9724 92.7381 55.2733 96.0396 59.3304 96.0396C63.3876 96.0396 66.6883 92.7381 66.6883 88.6813C66.6883 84.6236 63.3876 81.323 59.3304 81.323C58.6901 81.323 58.0719 81.4141 57.479 81.5682C57.6018 82.476 57.775 83.061 57.8052 83.1598Z" fill="url(#paint15_linear_601_108)"/>
<path d="M61.1384 70.613C62.1142 69.6508 63.3246 68.7362 64.833 67.9136C65.4589 67.5721 66.1314 67.246 66.862 66.9403C67.6199 66.6226 67.9767 65.7524 67.6591 64.9945C67.3423 64.2366 66.4703 63.8806 65.7134 64.1974C65.4112 64.3235 65.1197 64.4546 64.833 64.5866C60.7854 66.4549 58.2586 68.8878 56.711 71.3982C56.0122 72.5316 55.5113 73.6812 55.1615 74.801C54.094 78.22 54.4198 81.3639 54.7163 82.958C54.8414 83.6308 54.9613 84.0293 54.9686 84.0514C55.1688 84.685 55.753 85.0886 56.3838 85.0886C56.531 85.0886 56.681 85.0665 56.8291 85.0196C57.611 84.7752 58.0472 83.9424 57.8053 83.1599C57.775 83.0611 57.6018 82.476 57.4791 81.5683C57.2471 79.8533 57.199 76.9852 58.6258 74.0678C59.1971 72.8995 60.0094 71.726 61.1384 70.613" fill="url(#paint16_linear_601_108)"/>
<path d="M96.6827 72.0249C95.0213 72.0249 93.4477 72.4021 92.0401 73.074C91.4389 73.3601 90.8692 73.7024 90.3352 74.0907C87.6299 76.0587 85.8663 79.2469 85.8663 82.8405V83.0814V84.3647C85.8663 85.5901 86.0775 86.7874 86.4735 87.9225C87.1956 87.3018 88.134 86.9228 89.1593 86.9228C89.1984 86.9228 89.2359 86.9279 89.2742 86.9288C88.9915 86.1104 88.8408 85.2478 88.8408 84.3647V82.8405C88.8408 78.5171 92.3585 74.9993 96.6827 74.9993C101.006 74.9993 104.524 78.5171 104.524 82.8405V84.3647C104.524 85.2461 104.373 86.1079 104.09 86.9254C104.104 86.9254 104.117 86.9228 104.131 86.9228C105.184 86.9228 106.143 87.3222 106.873 87.9736C107.28 86.8232 107.497 85.6072 107.497 84.3647V82.8405C107.497 79.9801 106.379 77.3777 104.56 75.4413C102.586 73.3405 99.7858 72.0249 96.6827 72.0249" fill="url(#paint17_linear_601_108)"/>
<path d="M102.977 91.0509C102.977 90.4148 103.494 89.897 104.131 89.897C104.768 89.897 105.286 90.4148 105.286 91.0509C105.286 91.6879 104.768 92.2056 104.131 92.2056C103.494 92.2056 102.977 91.6879 102.977 91.0509ZM104.09 86.9251C101.833 86.9473 100.002 88.7883 100.002 91.0509C100.002 93.3271 101.854 95.1792 104.131 95.1792C106.407 95.1792 108.26 93.3271 108.26 91.0509C108.26 89.8272 107.721 88.7304 106.873 87.9734C106.143 87.322 105.184 86.9226 104.131 86.9226C104.117 86.9226 104.104 86.9251 104.09 86.9251Z" fill="url(#paint18_linear_601_108)"/>
<path d="M90.3137 91.0509C90.3137 91.6879 89.796 92.2056 89.159 92.2056C88.522 92.2056 88.0043 91.6879 88.0043 91.0509C88.0043 90.4148 88.522 89.897 89.159 89.897C89.796 89.897 90.3137 90.4148 90.3137 91.0509ZM86.4732 87.9223C85.5918 88.6802 85.0306 89.8008 85.0306 91.0509C85.0306 93.3271 86.8819 95.1792 89.159 95.1792C91.4352 95.1792 93.2874 93.3271 93.2874 91.0509C93.2874 88.813 91.4974 86.9907 89.274 86.9285C89.2356 86.9277 89.1982 86.9226 89.159 86.9226C88.1337 86.9226 87.1953 87.3015 86.4732 87.9223" fill="url(#paint19_linear_601_108)"/>
<path d="M59.3303 90.7878C60.6434 90.7878 61.7084 89.7234 61.7084 88.4095C61.7084 87.0955 60.6434 86.0311 59.3303 86.0311C58.017 86.0311 56.952 87.0955 56.952 88.4095C56.952 89.7234 58.017 90.7878 59.3303 90.7878Z" fill="url(#paint20_linear_601_108)"/>
<path d="M125.222 34.7861L126.648 31.0768L130.356 29.6504L126.648 28.224L125.222 24.5155L123.794 28.224L120.086 29.6504L123.794 31.0768L125.222 34.7861Z" fill="url(#paint21_linear_601_108)"/>
<path d="M133.34 48.1582L134.768 44.4497L138.477 43.0225L134.768 41.5969L133.34 37.8876L131.914 41.5969L128.206 43.0225L131.914 44.4497L133.34 48.1582Z" fill="url(#paint22_linear_601_108)"/>
<path d="M4.13542 121.774L5.56247 118.065L9.27093 116.638L5.56247 115.211L4.13542 111.503L2.7088 115.211L-1 116.638L2.7088 118.065L4.13542 121.774" fill="url(#paint23_linear_601_108)"/>
<path d="M10.8282 128.584L7.11978 130.012L10.8282 131.437L12.2553 135.146L13.6818 131.437L17.3907 130.012L13.6818 128.584L12.2553 124.876L10.8282 128.584Z" fill="url(#paint24_linear_601_108)"/>
</g>
<defs>
<linearGradient id="paint0_linear_601_108" x1="27.9236" y1="105.432" x2="27.9238" y2="73.0244" gradientUnits="userSpaceOnUse">
<stop stop-color="#5F76E8"/>
<stop offset="1" stop-color="#8971EA"/>
</linearGradient>
<linearGradient id="paint1_linear_601_108" x1="41.0448" y1="57.5842" x2="41.0448" y2="47.582" gradientUnits="userSpaceOnUse">
<stop stop-color="#5F76E8"/>
<stop offset="1" stop-color="#8971EA"/>
</linearGradient>
<linearGradient id="paint2_linear_601_108" x1="115.213" y1="105.432" x2="115.213" y2="62.6038" gradientUnits="userSpaceOnUse">
<stop stop-color="#5F76E8"/>
<stop offset="1" stop-color="#8971EA"/>
</linearGradient>
<linearGradient id="paint3_linear_601_108" x1="116.572" y1="59.4822" x2="116.572" y2="57.4421" gradientUnits="userSpaceOnUse">
<stop stop-color="#5F76E8"/>
<stop offset="1" stop-color="#8971EA"/>
</linearGradient>
<linearGradient id="paint4_linear_601_108" x1="40.2422" y1="59.4822" x2="40.2422" y2="57.4421" gradientUnits="userSpaceOnUse">
<stop stop-color="#5F76E8"/>
<stop offset="1" stop-color="#8971EA"/>
</linearGradient>
<linearGradient id="paint5_linear_601_108" x1="79.3875" y1="121.391" x2="79.3875" y2="110.443" gradientUnits="userSpaceOnUse">
<stop stop-color="#5F76E8"/>
<stop offset="1" stop-color="#8971EA"/>
</linearGradient>
<linearGradient id="paint6_linear_601_108" x1="93.9674" y1="70.8054" x2="93.9674" y2="66.4898" gradientUnits="userSpaceOnUse">
<stop stop-color="#5F76E8"/>
<stop offset="1" stop-color="#8971EA"/>
</linearGradient>
<linearGradient id="paint7_linear_601_108" x1="61.7423" y1="74.0676" x2="61.7423" y2="71.3575" gradientUnits="userSpaceOnUse">
<stop stop-color="#5F76E8"/>
<stop offset="1" stop-color="#8971EA"/>
</linearGradient>
<linearGradient id="paint8_linear_601_108" x1="45.5221" y1="97.8645" x2="45.5221" y2="79.7074" gradientUnits="userSpaceOnUse">
<stop stop-color="#5F76E8"/>
<stop offset="1" stop-color="#8971EA"/>
</linearGradient>
<linearGradient id="paint9_linear_601_108" x1="106.756" y1="97.8645" x2="106.756" y2="78.6996" gradientUnits="userSpaceOnUse">
<stop stop-color="#5F76E8"/>
<stop offset="1" stop-color="#8971EA"/>
</linearGradient>
<linearGradient id="paint10_linear_601_108" x1="77.7373" y1="89.2935" x2="77.7373" y2="70.025" gradientUnits="userSpaceOnUse">
<stop stop-color="#5F76E8"/>
<stop offset="1" stop-color="#8971EA"/>
</linearGradient>
<linearGradient id="paint11_linear_601_108" x1="77.7374" y1="67.4844" x2="77.7375" y2="27.3615" gradientUnits="userSpaceOnUse">
<stop stop-color="#5F76E8"/>
<stop offset="1" stop-color="#8971EA"/>
</linearGradient>
<linearGradient id="paint12_linear_601_108" x1="88.5421" y1="42.4434" x2="88.5421" y2="38.24" gradientUnits="userSpaceOnUse">
<stop stop-color="#5F76E8"/>
<stop offset="1" stop-color="#8971EA"/>
</linearGradient>
<linearGradient id="paint13_linear_601_108" x1="74.441" y1="42.4817" x2="74.441" y2="28.4051" gradientUnits="userSpaceOnUse">
<stop stop-color="#5F76E8"/>
<stop offset="1" stop-color="#8971EA"/>
</linearGradient>
<linearGradient id="paint14_linear_601_108" x1="77.7371" y1="99.8689" x2="77.7371" y2="91.5802" gradientUnits="userSpaceOnUse">
<stop stop-color="#5F76E8"/>
<stop offset="1" stop-color="#8971EA"/>
</linearGradient>
<linearGradient id="paint15_linear_601_108" x1="59.3303" y1="96.0396" x2="59.3303" y2="85.9433" gradientUnits="userSpaceOnUse">
<stop stop-color="#5F76E8"/>
<stop offset="1" stop-color="#8971EA"/>
</linearGradient>
<linearGradient id="paint16_linear_601_108" x1="61.1008" y1="85.0886" x2="61.1008" y2="70.6769" gradientUnits="userSpaceOnUse">
<stop stop-color="#5F76E8"/>
<stop offset="1" stop-color="#8971EA"/>
</linearGradient>
<linearGradient id="paint17_linear_601_108" x1="96.6819" y1="87.9736" x2="96.6819" y2="77.032" gradientUnits="userSpaceOnUse">
<stop stop-color="#5F76E8"/>
<stop offset="1" stop-color="#8971EA"/>
</linearGradient>
<linearGradient id="paint18_linear_601_108" x1="104.131" y1="95.1792" x2="104.131" y2="89.5148" gradientUnits="userSpaceOnUse">
<stop stop-color="#5F76E8"/>
<stop offset="1" stop-color="#8971EA"/>
</linearGradient>
<linearGradient id="paint19_linear_601_108" x1="89.159" y1="95.1792" x2="89.159" y2="89.5148" gradientUnits="userSpaceOnUse">
<stop stop-color="#5F76E8"/>
<stop offset="1" stop-color="#8971EA"/>
</linearGradient>
<linearGradient id="paint20_linear_601_108" x1="59.3302" y1="90.7878" x2="59.3302" y2="87.5245" gradientUnits="userSpaceOnUse">
<stop stop-color="#5F76E8"/>
<stop offset="1" stop-color="#8971EA"/>
</linearGradient>
<linearGradient id="paint21_linear_601_108" x1="125.221" y1="34.7861" x2="125.221" y2="27.74" gradientUnits="userSpaceOnUse">
<stop stop-color="#5F76E8"/>
<stop offset="1" stop-color="#8971EA"/>
</linearGradient>
<linearGradient id="paint22_linear_601_108" x1="133.341" y1="48.1582" x2="133.341" y2="41.1121" gradientUnits="userSpaceOnUse">
<stop stop-color="#5F76E8"/>
<stop offset="1" stop-color="#8971EA"/>
</linearGradient>
<linearGradient id="paint23_linear_601_108" x1="4.13547" y1="121.774" x2="4.13547" y2="114.727" gradientUnits="userSpaceOnUse">
<stop stop-color="#5F76E8"/>
<stop offset="1" stop-color="#8971EA"/>
</linearGradient>
<linearGradient id="paint24_linear_601_108" x1="12.2552" y1="135.146" x2="12.2552" y2="128.1" gradientUnits="userSpaceOnUse">
<stop stop-color="#5F76E8"/>
<stop offset="1" stop-color="#8971EA"/>
</linearGradient>
<clipPath id="clip0_601_108">
<rect width="144" height="144" fill="white"/>
</clipPath>
</defs>
</svg>
