<svg width="144" height="144" viewBox="0 0 144 144" fill="none" xmlns="http://www.w3.org/2000/svg">
<g clip-path="url(#clip0_332_287)">
<path d="M29.4108 105.432C29.4108 105.426 29.4105 105.419 29.4105 105.413V59.4822H27.9234C27.17 59.4822 26.5543 58.9201 26.4563 58.1937C26.4437 58.4552 26.4364 58.7183 26.4364 58.9823V105.413C26.4364 105.419 26.4369 105.426 26.4369 105.432H27.9234H29.4108Z" fill="url(#paint0_linear_332_287)"/>
<path d="M27.9234 56.5085H29.6492C30.8079 50.5169 36.089 45.9781 42.413 45.9781H55.5884C55.4713 44.872 55.3865 43.8322 55.3281 43.0045H42.413C34.0749 43.0045 27.2121 49.4269 26.5011 57.584C26.6805 56.9649 27.2459 56.5085 27.9234 56.5085Z" fill="url(#paint1_linear_332_287)"/>
<path d="M99.6571 45.9781H114.791C121.118 45.9781 126.402 50.522 127.558 56.511C128.368 56.5238 129.021 57.1829 129.021 57.9953C129.021 58.7284 128.489 59.3339 127.791 59.4565L127.674 78.2921L127.794 102.065V105.413C127.794 105.419 127.794 105.426 127.794 105.432H129.281H130.768C130.768 105.426 130.769 105.419 130.769 105.413V102.058L130.648 78.293L130.769 58.9822C130.769 50.172 123.601 43.0044 114.791 43.0044H100.062C99.9628 43.8253 99.8274 44.8668 99.6571 45.9781Z" fill="url(#paint2_linear_332_287)"/>
<path d="M105.609 56.5085C104.789 56.5085 104.123 57.1744 104.123 57.9953C104.123 58.817 104.789 59.4821 105.609 59.4821H127.534C127.622 59.4821 127.707 59.471 127.791 59.4565C128.489 59.3339 129.02 58.7284 129.02 57.9953C129.02 57.1829 128.367 56.5238 127.557 56.511C127.549 56.511 127.541 56.5085 127.534 56.5085H105.609Z" fill="url(#paint3_linear_332_287)"/>
<path d="M27.9234 59.4821H52.561C53.3823 59.4821 54.0479 58.817 54.0479 57.9953C54.0479 57.1744 53.3823 56.5085 52.561 56.5085H29.6493H27.9234C27.2459 56.5085 26.6805 56.9649 26.5011 57.584C26.4631 57.7159 26.4364 57.8522 26.4364 57.9953C26.4364 58.0634 26.4476 58.1281 26.4563 58.1937C26.5543 58.92 27.1699 59.4821 27.9234 59.4821Z" fill="url(#paint4_linear_332_287)"/>
<path d="M142.026 118.417H16.749V108.407H142.026V118.417ZM143.513 105.432H15.262C14.4408 105.432 13.775 106.099 13.775 106.92V119.904C13.775 120.725 14.4408 121.391 15.262 121.391H42.4131H114.791H143.513C144.334 121.391 145 120.725 145 119.904V106.92C145 106.099 144.334 105.432 143.513 105.432Z" fill="url(#paint5_linear_332_287)"/>
<path d="M90.6399 67.8861C90.7898 67.9764 90.9362 68.0666 91.0742 68.1586C92.0731 68.822 92.8293 69.5424 93.41 70.239C94.7308 70.4059 96.0269 70.5941 97.2949 70.8053C96.56 69.3031 95.2273 67.376 92.8216 65.7495C92.1395 65.2888 91.4131 64.8775 90.6399 64.5148V67.8861Z" fill="url(#paint6_linear_332_287)"/>
<path d="M64.833 72.3609V70.117C63.5797 70.2626 62.3474 70.427 61.1383 70.6126C60.0093 71.7256 59.197 72.899 58.6257 74.0674C60.5958 73.6944 62.6762 73.3717 64.8589 73.1094C64.8226 72.9399 64.8007 72.7994 64.8007 72.704C64.8007 72.5891 64.8113 72.475 64.833 72.3609Z" fill="url(#paint7_linear_332_287)"/>
<path d="M47.8631 73.772C39.1384 76.801 34.3334 81.0299 34.3334 85.6793V96.3774C34.3334 97.1983 34.9991 97.8643 35.8204 97.8643C36.6416 97.8643 37.3073 97.1983 37.3073 96.3774V85.6793C37.3073 81.6898 44.0626 77.4142 55.1613 74.8007C55.5111 73.6809 56.012 72.5313 56.7109 71.3979C53.524 72.0468 50.5489 72.8396 47.8631 73.772Z" fill="url(#paint8_linear_332_287)"/>
<path d="M93.41 70.239C92.4988 70.124 91.574 70.0227 90.6399 69.929V72.3576C90.6629 72.4734 90.674 72.5884 90.674 72.7042C90.674 72.7613 90.6654 72.8353 90.6527 72.9196C91.1193 72.9682 91.5817 73.0193 92.0398 73.0738C93.4475 72.4019 95.0211 72.0247 96.6825 72.0247C99.7856 72.0247 102.585 73.3403 104.559 75.4411C114.155 78.0792 119.898 82.0015 119.898 85.6793V96.3774C119.898 97.1983 120.563 97.8643 121.384 97.8643C122.205 97.8643 122.871 97.1983 122.871 96.3774V85.6793C122.871 81.0299 118.066 76.801 109.341 73.772C105.775 72.5339 101.704 71.5376 97.2948 70.8052C96.0268 70.594 94.7308 70.4059 93.41 70.239Z" fill="url(#paint9_linear_332_287)"/>
<path d="M65.7134 64.197C66.4702 63.8802 67.3422 64.2361 67.659 64.994C67.9766 65.7519 67.6198 66.6222 66.8619 66.9398C66.1313 67.2455 65.4588 67.5717 64.8329 67.9132V70.117V72.3609C64.8113 72.475 64.8007 72.5891 64.8007 72.7041C64.8007 72.7994 64.8225 72.9399 64.8589 73.1094C65.4401 75.8182 70.556 87.454 76.2503 89.2925V89.2738C76.2503 88.4528 76.9154 87.7869 77.7371 87.7869C78.558 87.7869 79.224 88.4528 79.224 89.2738V89.2933C81.6432 88.5133 83.9586 85.9671 85.8661 83.0812V82.8402C85.8661 79.2466 87.6297 76.0584 90.3351 74.0904C90.5003 73.5905 90.611 73.1869 90.6527 72.9195C90.6655 72.8352 90.674 72.7611 90.674 72.7041C90.674 72.5882 90.6629 72.4733 90.6399 72.3575V69.9288V67.8859V64.5146V61.2071C90.6399 61.208 90.6391 61.2088 90.6382 61.2097C89.9399 61.7887 88.9053 62.6054 87.6663 63.4578V72.544C87.6663 72.6053 87.6705 72.6674 87.6782 72.7287C87.1324 75.0799 81.6313 86.5726 77.7371 86.5726C73.843 86.5726 68.3402 75.0765 67.7961 72.727C67.8029 72.6666 67.8072 72.6061 67.8072 72.5457V63.6894C66.5724 62.8821 65.5389 62.1072 64.8329 61.5503V64.5861C65.1197 64.4541 65.4111 64.323 65.7134 64.197Z" fill="url(#paint10_linear_332_287)"/>
<path d="M77.6989 65.9956V64.5096C75.0318 64.5096 70.7945 62.4702 66.6389 59.1874C63.396 56.6276 60.7272 53.7034 59.6736 51.5549C58.8382 49.8509 58.3167 43.8032 58.1946 41.1335C58.1911 41.0441 58.1793 40.953 58.1591 40.8644C57.8319 39.4159 57.6658 37.9223 57.6658 36.4227C57.6658 35.985 57.6846 35.5218 57.7244 34.9691C57.7487 34.7579 57.8504 33.8416 57.8504 33.2941C57.8504 21.5383 66.8134 11.9736 77.83 11.9736C88.8466 11.9736 97.8093 21.5383 97.8093 33.2941C97.8093 33.7497 97.7914 34.2334 97.7531 34.8167C97.7488 34.8839 97.7488 34.9521 97.7539 35.0193C97.7914 35.5584 97.8093 36.0046 97.8093 36.4227C97.8093 37.9061 97.6415 39.3998 97.3103 40.8644C97.2873 40.9683 97.2745 41.0739 97.2745 41.1795C96.9467 44.3873 96.1411 49.9173 95.3168 51.5345C94.2642 53.6003 91.7436 56.4301 88.7402 58.92C84.6025 62.3518 80.383 64.4926 77.7295 64.5096L77.6989 65.9956V65.9973V65.9956ZM55.5885 45.978C55.8594 48.5344 56.3044 51.4382 57.0036 52.8646C58.2591 55.4252 61.1723 58.6611 64.7957 61.5215C64.8075 61.5309 64.821 61.5411 64.833 61.5505C65.5389 62.1074 66.5724 62.8823 67.8072 63.6896C70.5833 65.5068 74.3693 67.4833 77.6989 67.4841C77.7023 67.4841 77.744 67.4841 77.7474 67.4841C81.0958 67.462 84.8937 65.3689 87.6664 63.458C88.9054 62.6055 89.94 61.7889 90.6383 61.2098C90.6392 61.209 90.64 61.2081 90.64 61.2073C93.9841 58.4355 96.7227 55.3239 97.9668 52.885C98.6915 51.4621 99.2654 48.5387 99.6572 45.978C99.8275 44.8668 99.9629 43.8253 100.062 43.0044C100.159 42.2031 100.22 41.6112 100.244 41.3728C100.602 39.7404 100.783 38.0764 100.783 36.4227C100.783 35.9603 100.765 35.4775 100.727 34.9112C100.765 34.3049 100.783 33.7888 100.783 33.2941C100.783 19.8991 90.4867 8.99999 77.83 8.99999C65.1733 8.99999 54.8766 19.8991 54.8766 33.2941C54.8766 33.6049 54.8094 34.2947 54.7669 34.6557C54.7644 34.677 54.7624 34.6992 54.7606 34.7204C54.7137 35.3617 54.692 35.9024 54.692 36.4227C54.692 38.0977 54.8727 39.7685 55.2294 41.3915C55.2443 41.6828 55.2755 42.2576 55.3282 43.0044C55.3865 43.8321 55.4714 44.8719 55.5885 45.978Z" fill="url(#paint11_linear_332_287)"/>
<path d="M80.7312 37.8653C83.1198 40.1968 87.3478 42.3342 94.8449 42.4432C94.8525 42.4432 94.8593 42.4432 94.867 42.4432C95.6777 42.4432 96.3411 41.7909 96.353 40.9777C96.3657 40.1568 95.7092 39.4815 94.8883 39.4696C93.869 39.4551 92.9314 39.3947 92.0526 39.3053C87.8476 38.8761 85.178 37.6618 83.4945 36.3163C82.6583 36.8281 81.7377 37.3501 80.7312 37.8653Z" fill="url(#paint12_linear_332_287)"/>
<path d="M60.6042 42.4739C60.8654 42.479 61.123 42.4816 61.3811 42.4816C69.4923 42.4816 76.0263 40.2684 80.7311 37.8653C81.7376 37.3501 82.6582 36.8281 83.4944 36.3163C84.0896 35.9535 84.6372 35.5967 85.1439 35.251C87.7258 33.4908 89.1589 32.0593 89.3139 31.9009C89.5864 31.6225 89.7388 31.2486 89.7388 30.8603V23.45C89.7388 22.6291 89.0729 21.9632 88.252 21.9632C87.4311 21.9632 86.7652 22.6291 86.7652 23.45V24.3944V30.2182C84.8228 31.9742 76.3209 38.9186 63.0226 39.4687C62.2489 39.5011 61.4615 39.5147 60.6557 39.5011C60.6469 39.5011 60.6382 39.5011 60.6295 39.5011C59.8202 39.5011 59.1573 40.15 59.1432 40.9624C59.1289 41.7833 59.783 42.4603 60.6042 42.4739Z" fill="url(#paint13_linear_332_287)"/>
<path d="M77.7372 87.787C76.9154 87.787 76.2504 88.4529 76.2504 89.2738V89.2925V98.3811C76.2504 99.2029 76.9154 99.8688 77.7372 99.8688C78.5581 99.8688 79.224 99.2029 79.224 98.3811V89.2934V89.2738C79.224 88.4529 78.5581 87.787 77.7372 87.787Z" fill="url(#paint14_linear_332_287)"/>
<path d="M59.3304 84.2964C61.7477 84.2964 63.7143 86.2635 63.7143 88.681C63.7143 91.0986 61.7477 93.0657 59.3304 93.0657C56.9132 93.0657 54.9464 91.0986 54.9464 88.681C54.9464 86.2635 56.9132 84.2964 59.3304 84.2964ZM57.8053 83.1596C58.0472 83.9421 57.611 84.7749 56.8291 85.0193C56.6809 85.0662 56.531 85.0883 56.3838 85.0883C55.753 85.0883 55.1687 84.6847 54.9685 84.0511C54.9613 84.029 54.8414 83.6305 54.7163 82.9577C53.0452 84.3074 51.9724 86.3699 51.9724 88.681C51.9724 92.7378 55.2733 96.0393 59.3304 96.0393C63.3877 96.0393 66.6883 92.7378 66.6883 88.681C66.6883 84.6234 63.3877 81.3228 59.3304 81.3228C58.6901 81.3228 58.0719 81.4139 57.479 81.568C57.6018 82.4758 57.775 83.0608 57.8053 83.1596Z" fill="url(#paint15_linear_332_287)"/>
<path d="M61.1383 70.6129C62.1141 69.6507 63.3245 68.7361 64.833 67.9135C65.4589 67.572 66.1314 67.2459 66.862 66.9402C67.6199 66.6225 67.9767 65.7522 67.6591 64.9944C67.3423 64.2365 66.4703 63.8805 65.7134 64.1973C65.4112 64.3233 65.1197 64.4545 64.833 64.5865C60.7854 66.4548 58.2585 68.8877 56.711 71.398C56.0121 72.5315 55.5112 73.6811 55.1614 74.8009C54.094 78.2199 54.4198 81.3638 54.7163 82.9579C54.8414 83.6306 54.9613 84.0292 54.9685 84.0513C55.1687 84.6849 55.753 85.0885 56.3837 85.0885C56.531 85.0885 56.6809 85.0664 56.8291 85.0195C57.611 84.7751 58.0472 83.9423 57.8052 83.1597C57.775 83.0609 57.6018 82.4759 57.479 81.5682C57.2471 79.8531 57.1989 76.9851 58.6257 74.0677C59.197 72.8993 60.0093 71.7259 61.1383 70.6129Z" fill="url(#paint16_linear_332_287)"/>
<path d="M96.6827 72.0246C95.0214 72.0246 93.4477 72.4019 92.0401 73.0737C91.4389 73.3598 90.8692 73.7022 90.3353 74.0905C87.6299 76.0584 85.8663 79.2467 85.8663 82.8402V83.0812V84.3645C85.8663 85.5899 86.0775 86.7872 86.4735 87.9223C87.1956 87.3015 88.134 86.9226 89.1593 86.9226C89.1985 86.9226 89.2359 86.9277 89.2742 86.9285C88.9915 86.1102 88.8408 85.2476 88.8408 84.3645V82.8402C88.8408 78.5169 92.3586 74.9991 96.6827 74.9991C101.006 74.9991 104.524 78.5169 104.524 82.8402V84.3645C104.524 85.2459 104.373 86.1076 104.09 86.9251C104.104 86.9251 104.117 86.9226 104.131 86.9226C105.184 86.9226 106.143 87.3219 106.873 87.9734C107.28 86.8229 107.497 85.6069 107.497 84.3645V82.8402C107.497 79.9798 106.379 77.3775 104.56 75.4411C102.586 73.3403 99.7858 72.0246 96.6827 72.0246Z" fill="url(#paint17_linear_332_287)"/>
<path d="M102.976 91.0509C102.976 90.4148 103.494 89.897 104.131 89.897C104.768 89.897 105.286 90.4148 105.286 91.0509C105.286 91.6879 104.768 92.2056 104.131 92.2056C103.494 92.2056 102.976 91.6879 102.976 91.0509ZM104.09 86.9251C101.833 86.9473 100.002 88.7883 100.002 91.0509C100.002 93.3271 101.854 95.1792 104.131 95.1792C106.407 95.1792 108.26 93.3271 108.26 91.0509C108.26 89.8272 107.721 88.7304 106.873 87.9734C106.143 87.322 105.184 86.9226 104.131 86.9226C104.117 86.9226 104.104 86.9251 104.09 86.9251Z" fill="url(#paint18_linear_332_287)"/>
<path d="M90.3137 91.0509C90.3137 91.6879 89.796 92.2056 89.159 92.2056C88.522 92.2056 88.0043 91.6879 88.0043 91.0509C88.0043 90.4148 88.522 89.897 89.159 89.897C89.796 89.897 90.3137 90.4148 90.3137 91.0509ZM86.4732 87.9223C85.5918 88.6802 85.0306 89.8008 85.0306 91.0509C85.0306 93.3271 86.8819 95.1792 89.159 95.1792C91.4352 95.1792 93.2874 93.3271 93.2874 91.0509C93.2874 88.813 91.4974 86.9907 89.274 86.9285C89.2356 86.9277 89.1982 86.9226 89.159 86.9226C88.1337 86.9226 87.1953 87.3015 86.4732 87.9223Z" fill="url(#paint19_linear_332_287)"/>
<path d="M59.3303 90.7878C60.6434 90.7878 61.7084 89.7234 61.7084 88.4095C61.7084 87.0955 60.6434 86.0311 59.3303 86.0311C58.017 86.0311 56.952 87.0955 56.952 88.4095C56.952 89.7234 58.017 90.7878 59.3303 90.7878Z" fill="url(#paint20_linear_332_287)"/>
<path d="M125.222 34.786L126.648 31.0766L130.356 29.6503L126.648 28.2239L125.222 24.5154L123.794 28.2239L120.086 29.6503L123.794 31.0766L125.222 34.786Z" fill="url(#paint21_linear_332_287)"/>
<path d="M133.34 48.1581L134.768 44.4495L138.477 43.0223L134.768 41.5968L133.34 37.8874L131.914 41.5968L128.206 43.0223L131.914 44.4495L133.34 48.1581Z" fill="url(#paint22_linear_332_287)"/>
<path d="M4.13542 121.774L5.56247 118.065L9.27093 116.638L5.56247 115.211L4.13542 111.503L2.7088 115.211L-1 116.638L2.7088 118.065L4.13542 121.774Z" fill="url(#paint23_linear_332_287)"/>
<path d="M10.8282 128.584L7.11975 130.011L10.8282 131.437L12.2552 135.146L13.6818 131.437L17.3906 130.011L13.6818 128.584L12.2552 124.876L10.8282 128.584Z" fill="url(#paint24_linear_332_287)"/>
</g>
<defs>
<linearGradient id="paint0_linear_332_287" x1="27.9237" y1="66.338" x2="27.9237" y2="114.178" gradientUnits="userSpaceOnUse">
<stop stop-color="#2C3892"/>
<stop offset="1" stop-color="#4AC2C2"/>
</linearGradient>
<linearGradient id="paint1_linear_332_287" x1="41.0448" y1="66.338" x2="41.0448" y2="114.177" gradientUnits="userSpaceOnUse">
<stop stop-color="#2C3892"/>
<stop offset="1" stop-color="#4AC2C2"/>
</linearGradient>
<linearGradient id="paint2_linear_332_287" x1="115.213" y1="66.338" x2="115.213" y2="114.177" gradientUnits="userSpaceOnUse">
<stop stop-color="#2C3892"/>
<stop offset="1" stop-color="#4AC2C2"/>
</linearGradient>
<linearGradient id="paint3_linear_332_287" x1="116.572" y1="66.3379" x2="116.572" y2="114.177" gradientUnits="userSpaceOnUse">
<stop stop-color="#2C3892"/>
<stop offset="1" stop-color="#4AC2C2"/>
</linearGradient>
<linearGradient id="paint4_linear_332_287" x1="40.2422" y1="66.3379" x2="40.2422" y2="114.177" gradientUnits="userSpaceOnUse">
<stop stop-color="#2C3892"/>
<stop offset="1" stop-color="#4AC2C2"/>
</linearGradient>
<linearGradient id="paint5_linear_332_287" x1="79.3875" y1="66.3373" x2="79.3875" y2="114.177" gradientUnits="userSpaceOnUse">
<stop stop-color="#2C3892"/>
<stop offset="1" stop-color="#4AC2C2"/>
</linearGradient>
<linearGradient id="paint6_linear_332_287" x1="93.9678" y1="66.338" x2="93.9678" y2="114.178" gradientUnits="userSpaceOnUse">
<stop stop-color="#2C3892"/>
<stop offset="1" stop-color="#4AC2C2"/>
</linearGradient>
<linearGradient id="paint7_linear_332_287" x1="61.7423" y1="66.337" x2="61.7423" y2="114.177" gradientUnits="userSpaceOnUse">
<stop stop-color="#2C3892"/>
<stop offset="1" stop-color="#4AC2C2"/>
</linearGradient>
<linearGradient id="paint8_linear_332_287" x1="45.5221" y1="66.338" x2="45.5221" y2="114.178" gradientUnits="userSpaceOnUse">
<stop stop-color="#2C3892"/>
<stop offset="1" stop-color="#4AC2C2"/>
</linearGradient>
<linearGradient id="paint9_linear_332_287" x1="106.756" y1="66.338" x2="106.756" y2="114.177" gradientUnits="userSpaceOnUse">
<stop stop-color="#2C3892"/>
<stop offset="1" stop-color="#4AC2C2"/>
</linearGradient>
<linearGradient id="paint10_linear_332_287" x1="77.7371" y1="66.3378" x2="77.7371" y2="114.178" gradientUnits="userSpaceOnUse">
<stop stop-color="#2C3892"/>
<stop offset="1" stop-color="#4AC2C2"/>
</linearGradient>
<linearGradient id="paint11_linear_332_287" x1="77.7372" y1="66.3379" x2="77.7372" y2="114.177" gradientUnits="userSpaceOnUse">
<stop stop-color="#2C3892"/>
<stop offset="1" stop-color="#4AC2C2"/>
</linearGradient>
<linearGradient id="paint12_linear_332_287" x1="88.5425" y1="66.3379" x2="88.5425" y2="114.177" gradientUnits="userSpaceOnUse">
<stop stop-color="#2C3892"/>
<stop offset="1" stop-color="#4AC2C2"/>
</linearGradient>
<linearGradient id="paint13_linear_332_287" x1="74.4407" y1="66.3372" x2="74.4407" y2="114.177" gradientUnits="userSpaceOnUse">
<stop stop-color="#2C3892"/>
<stop offset="1" stop-color="#4AC2C2"/>
</linearGradient>
<linearGradient id="paint14_linear_332_287" x1="77.7372" y1="66.3381" x2="77.7372" y2="114.177" gradientUnits="userSpaceOnUse">
<stop stop-color="#2C3892"/>
<stop offset="1" stop-color="#4AC2C2"/>
</linearGradient>
<linearGradient id="paint15_linear_332_287" x1="59.3303" y1="66.338" x2="59.3303" y2="114.177" gradientUnits="userSpaceOnUse">
<stop stop-color="#2C3892"/>
<stop offset="1" stop-color="#4AC2C2"/>
</linearGradient>
<linearGradient id="paint16_linear_332_287" x1="61.1007" y1="66.3381" x2="61.1007" y2="114.177" gradientUnits="userSpaceOnUse">
<stop stop-color="#2C3892"/>
<stop offset="1" stop-color="#4AC2C2"/>
</linearGradient>
<linearGradient id="paint17_linear_332_287" x1="96.6819" y1="66.3379" x2="96.6819" y2="114.184" gradientUnits="userSpaceOnUse">
<stop stop-color="#2C3892"/>
<stop offset="1" stop-color="#4AC2C2"/>
</linearGradient>
<linearGradient id="paint18_linear_332_287" x1="104.131" y1="66.3381" x2="104.131" y2="114.177" gradientUnits="userSpaceOnUse">
<stop stop-color="#2C3892"/>
<stop offset="1" stop-color="#4AC2C2"/>
</linearGradient>
<linearGradient id="paint19_linear_332_287" x1="89.159" y1="66.3381" x2="89.159" y2="114.177" gradientUnits="userSpaceOnUse">
<stop stop-color="#2C3892"/>
<stop offset="1" stop-color="#4AC2C2"/>
</linearGradient>
<linearGradient id="paint20_linear_332_287" x1="59.3302" y1="66.3381" x2="59.3302" y2="114.177" gradientUnits="userSpaceOnUse">
<stop stop-color="#2C3892"/>
<stop offset="1" stop-color="#4AC2C2"/>
</linearGradient>
<linearGradient id="paint21_linear_332_287" x1="125.222" y1="66.3379" x2="125.222" y2="114.177" gradientUnits="userSpaceOnUse">
<stop stop-color="#2C3892"/>
<stop offset="1" stop-color="#4AC2C2"/>
</linearGradient>
<linearGradient id="paint22_linear_332_287" x1="133.341" y1="66.338" x2="133.341" y2="114.178" gradientUnits="userSpaceOnUse">
<stop stop-color="#2C3892"/>
<stop offset="1" stop-color="#4AC2C2"/>
</linearGradient>
<linearGradient id="paint23_linear_332_287" x1="4.13542" y1="66.3366" x2="4.13542" y2="114.177" gradientUnits="userSpaceOnUse">
<stop stop-color="#2C3892"/>
<stop offset="1" stop-color="#4AC2C2"/>
</linearGradient>
<linearGradient id="paint24_linear_332_287" x1="12.2552" y1="66.3371" x2="12.2552" y2="114.177" gradientUnits="userSpaceOnUse">
<stop stop-color="#2C3892"/>
<stop offset="1" stop-color="#4AC2C2"/>
</linearGradient>
<clipPath id="clip0_332_287">
<rect width="144" height="144" fill="white"/>
</clipPath>
</defs>
</svg>
