<?xml version="1.0" standalone="no"?>
<!DOCTYPE svg PUBLIC "-//W3C//DTD SVG 20010904//EN"
 "http://www.w3.org/TR/2001/REC-SVG-20010904/DTD/svg10.dtd">
<svg version="1.0" xmlns="http://www.w3.org/2000/svg"
 width="4167.000000pt" height="4167.000000pt" viewBox="0 0 4167.000000 4167.000000"
 preserveAspectRatio="xMidYMid meet">

<g transform="translate(0.000000,4167.000000) scale(0.100000,-0.100000)"
fill="#000000" stroke="none">
<path d="M15295 20520 c-84 -12 -219 -63 -306 -116 l-74 -46 -101 16 c-834
130 -1440 -158 -1668 -792 -58 -164 -88 -413 -68 -582 6 -47 9 -87 6 -89 -2
-2 -29 23 -61 55 -104 106 -153 230 -153 384 0 99 17 171 60 254 l30 59 -57
-54 c-465 -435 -696 -998 -695 -1689 0 -313 47 -639 138 -950 20 -69 39 -134
41 -146 5 -20 0 -21 -124 -28 -573 -31 -1152 -121 -1513 -235 -52 -17 -96 -28
-98 -26 -4 3 1409 1726 1461 1783 19 19 27 35 21 41 -22 20 -1386 841 -1397
841 -15 0 -426 -307 -629 -470 l-155 -124 39 -51 c126 -166 116 -410 -28 -626
-199 -300 -834 -630 -1607 -834 l-69 -18 -149 -161 c-169 -183 -272 -314 -353
-450 -347 -581 -339 -1295 21 -1799 157 -219 426 -424 669 -507 l51 -18 93 90
c194 186 445 323 733 402 173 47 278 60 459 53 125 -4 169 -10 241 -31 235
-70 394 -200 505 -413 l42 -81 43 5 c72 9 538 71 623 84 l82 12 4 108 c4 96 8
114 37 173 39 79 111 147 187 175 55 21 57 21 2653 21 2952 0 2657 9 2762 -88
35 -32 69 -76 86 -110 l28 -57 3 -1632 c1 -898 4 -1633 7 -1633 2 0 88 29 190
65 344 121 622 238 905 381 243 122 412 222 402 237 -4 7 -28 44 -53 82 -89
134 -153 280 -185 421 -24 106 -24 293 0 389 27 105 105 259 174 340 140 166
311 249 513 248 123 -1 220 -25 462 -116 148 -55 190 -68 197 -57 18 30 35
184 34 320 -2 280 -65 511 -225 831 -115 231 -254 446 -428 664 -107 134 -409
442 -546 557 -180 151 -484 368 -647 462 l-48 28 -132 -31 c-546 -125 -831
-164 -1047 -143 -342 34 -553 175 -616 413 -32 117 -9 282 55 409 24 48 29 65
19 71 -40 24 -720 177 -964 217 l-50 8 0 217 0 217 -115 4 c-182 7 -360 50
-551 131 -43 19 -79 32 -79 30 0 -8 70 -122 112 -182 151 -215 362 -401 562
-494 l66 -31 0 -97 c0 -290 -179 -534 -460 -627 -38 -12 -87 -18 -159 -18
l-105 -1 -12 85 c-16 106 -56 220 -119 330 -129 226 -280 573 -339 775 -60
208 -93 439 -80 563 l6 62 -59 0 c-153 0 -289 84 -359 222 -37 71 -45 196 -19
265 36 94 126 165 230 181 117 19 247 -23 332 -108 42 -43 52 -41 80 14 31 60
33 96 12 226 -15 91 -20 158 -17 245 3 110 6 126 34 186 35 74 105 148 186
197 l54 32 95 -14 c274 -41 707 -47 889 -12 245 48 398 138 464 271 130 265
60 621 -150 766 -86 59 -209 85 -329 69z"/>
<path d="M15474 19310 c-127 -26 -180 -78 -138 -138 19 -28 47 -28 138 -1 90
27 122 43 141 73 21 32 10 54 -33 66 -42 11 -50 11 -108 0z"/>
<path d="M14804 19041 c-172 -83 -225 -213 -80 -198 63 6 249 96 266 128 25
46 -17 109 -73 109 -18 0 -69 -17 -113 -39z"/>
<path d="M15505 19015 c-69 -69 23 -175 103 -119 32 22 43 57 31 94 -20 55
-91 69 -134 25z"/>
<path d="M15334 18805 c-7 -18 20 -95 45 -126 10 -12 36 -24 66 -30 100 -19
120 -61 64 -139 -27 -38 -29 -44 -16 -57 19 -20 32 -11 68 45 45 72 36 141
-24 174 -12 6 -44 17 -72 23 -48 11 -51 13 -72 66 -22 54 -48 74 -59 44z"/>
<path d="M14985 18769 c-33 -19 -45 -41 -45 -80 0 -29 6 -42 26 -58 80 -63
179 38 112 113 -27 30 -65 40 -93 25z"/>
<path d="M9810 18488 c-438 -372 -766 -668 -1106 -998 -225 -219 -342 -340
-328 -340 26 0 398 119 523 167 531 204 884 427 1032 651 72 109 94 184 94
317 0 97 -3 116 -26 165 -25 54 -74 121 -87 119 -4 0 -50 -36 -102 -81z"/>
<path d="M13642 18460 c-85 -19 -62 -56 31 -52 56 3 66 1 104 -27 48 -34 71
-73 81 -134 6 -33 12 -43 30 -45 19 -3 22 1 22 35 0 51 -39 131 -83 170 -50
44 -127 66 -185 53z"/>
<path d="M15213 18219 c-38 -15 -53 -26 -53 -39 0 -29 13 -31 71 -9 69 27 164
23 230 -9 51 -25 65 -27 74 -11 11 17 -24 47 -82 69 -71 26 -170 26 -240 -1z"/>
<path d="M16177 16728 c-72 -124 -96 -300 -59 -425 60 -197 241 -317 532 -353
158 -19 297 -10 565 35 178 31 575 117 575 125 0 9 -260 147 -420 224 -287
136 -613 265 -935 369 -245 78 -229 77 -258 25z"/>
<path d="M9675 14644 c-399 -38 -776 -205 -1033 -457 l-62 -62 47 -12 c176
-47 446 -61 828 -44 383 17 1033 71 1078 89 16 6 12 17 -35 97 -118 199 -291
322 -519 368 -79 16 -238 27 -304 21z"/>
<path d="M18958 13329 c-215 -31 -420 -216 -508 -459 -96 -262 -44 -567 146
-852 l66 -99 26 17 c63 40 233 164 307 223 272 219 467 446 594 691 48 93 126
289 118 296 -7 7 -347 131 -409 150 -79 23 -208 45 -256 43 -15 -1 -52 -5 -84
-10z"/>
<path d="M13889 12873 c-58 -36 -64 -59 -67 -289 -4 -243 2 -278 53 -323 l36
-31 317 0 c435 0 412 -18 412 330 0 348 23 330 -410 330 -274 -1 -318 -3 -341
-17z m641 -102 c6 -12 10 -99 10 -215 0 -164 -3 -197 -16 -210 -13 -14 -54
-16 -293 -16 -202 0 -280 3 -289 12 -9 9 -12 71 -12 218 0 147 3 209 12 218 9
9 88 12 295 12 269 0 283 -1 293 -19z"/>
<path d="M18029 8400 c-255 -25 -570 -110 -1049 -285 -428 -156 -440 -159
-555 -158 -65 1 -124 8 -170 20 l-71 20 0 -176 c-1 -311 -63 -568 -213 -885
-27 -59 -50 -110 -51 -114 -1 -4 32 -14 72 -23 40 -9 143 -37 228 -62 85 -25
207 -56 270 -70 63 -14 124 -28 135 -30 11 -3 -1089 -5 -2445 -5 l-2465 -1
225 39 c620 106 1090 246 1488 442 78 39 145 74 147 78 2 4 -125 32 -283 64
-343 68 -672 144 -956 220 -114 32 -210 56 -212 54 -1 -2 17 -74 42 -161 24
-86 44 -164 44 -172 0 -21 -28 -31 -43 -16 -7 7 -34 93 -62 193 l-50 180 -210
67 c-115 37 -254 83 -307 103 -54 19 -98 34 -98 32 0 -1 36 -132 81 -291 44
-158 87 -314 96 -346 13 -45 14 -60 4 -70 -30 -30 -45 8 -146 371 l-100 361
-178 71 c-161 65 -274 114 -545 240 -86 40 -94 42 -119 29 -53 -28 -125 -112
-161 -188 -32 -67 -36 -83 -36 -160 -1 -78 10 -125 108 -501 59 -228 120 -440
134 -470 15 -32 50 -79 84 -112 l59 -58 -2441 0 -2440 0 0 -55 0 -55 15350 0
15350 0 0 55 0 55 -9092 1 c-8688 0 -9090 1 -9033 18 164 48 320 136 433 244
275 265 339 714 155 1082 -115 228 -282 356 -537 411 -84 18 -317 26 -437 14z
m-243 -388 c51 -88 98 -227 121 -353 32 -181 18 -483 -31 -649 -11 -37 -17
-45 -37 -45 -29 0 -29 5 0 140 69 320 13 724 -130 927 -23 32 -15 60 15 56 14
-2 34 -26 62 -76z m-507 -112 c50 -95 82 -187 108 -302 28 -126 25 -466 -5
-601 -25 -112 -37 -140 -60 -135 -21 4 -21 37 1 139 69 316 22 688 -114 908
-32 54 -34 62 -17 79 20 20 44 -4 87 -88z"/>
</g>
</svg>
