<svg width="144" height="144" viewBox="0 0 144 144" fill="none" xmlns="http://www.w3.org/2000/svg">
<path d="M67.0457 63.7517L55.6925 52.3986L67.0457 63.7517Z" fill="url(#paint0_linear_601_240)"/>
<path d="M76.2086 126.409C71.4563 126.052 67.0345 124.034 63.6275 120.628L45.544 102.543L44.5865 103.501C44.322 103.766 43.9754 103.898 43.6289 103.898C43.2824 103.898 42.936 103.766 42.6717 103.502L61.7123 122.543C65.9931 126.823 71.6836 129.181 77.7443 129.181H77.7551C78.7364 129.181 79.7061 129.113 80.6643 128.991C79.0933 128.306 77.5984 127.446 76.2086 126.409" fill="url(#paint1_linear_601_240)"/>
<path d="M44.5865 103.501L45.5439 102.543L67.0457 81.0418V77.2118L43.6288 100.628L25.5455 82.5449C23.1128 80.1121 21.4403 77.203 20.5281 74.1146C18.5213 67.3211 20.1937 59.6617 25.5455 54.3102C29.3144 50.5412 34.3236 48.466 39.663 48.466C44.9937 48.466 50.0064 50.5426 53.7772 54.3136L67.0457 67.5817V63.7516L55.6925 52.3986C51.4098 48.1159 45.7172 45.757 39.65 45.757C33.6001 45.757 27.9109 48.1145 23.6302 52.3952C14.7899 61.2354 14.7899 75.6198 23.6302 84.46L42.6712 103.501L42.6716 103.502C42.936 103.766 43.2823 103.898 43.6288 103.898C43.9753 103.898 44.3219 103.766 44.5865 103.501" fill="url(#paint2_linear_601_240)"/>
<path d="M29.0809 55.8846C28.5942 56.4526 28.6601 57.3076 29.2279 57.7942C29.7957 58.2814 30.6508 58.2156 31.1374 57.6476C31.144 57.6401 31.4349 57.3158 31.9732 56.8855C32.7227 56.2863 33.9553 55.4801 35.5983 55.0255C39.073 54.0639 42.8267 55.0099 46.7775 57.8308C47.2934 58.1993 47.8125 58.5963 48.3351 59.0285C48.5876 59.2376 48.8936 59.3394 49.1976 59.3394C49.5873 59.3394 49.9739 59.1724 50.2417 58.8487C50.7187 58.2726 50.6381 57.4189 50.0619 56.9418C37.4041 46.4662 29.1628 55.7896 29.0809 55.8846" fill="url(#paint3_linear_601_240)"/>
<path d="M52.2241 100.239C51.6954 99.7108 50.8381 99.7101 50.3088 100.239C49.78 100.768 49.78 101.625 50.3088 102.154L64.9298 116.775C64.9599 116.805 64.9913 116.833 65.024 116.861C67.0064 118.501 68.8803 119.656 70.6318 120.437C69.7455 119.061 69.0146 117.601 68.45 116.075C67.9034 115.69 67.3534 115.271 66.7994 114.815L52.2241 100.239Z" fill="url(#paint4_linear_601_240)"/>
<path d="M111.035 82.6236H109.68V108.198C109.68 119.207 100.726 128.163 89.7196 128.163C84.3851 128.163 79.3723 126.086 75.6033 122.313C71.8316 118.545 69.7544 113.532 69.7544 108.198V82.6236H68.3999C67.6521 82.6236 67.0457 82.017 67.0457 81.2691V108.198C67.0457 110.93 67.5299 113.587 68.4501 116.075C69.0147 117.601 69.7456 119.061 70.6318 120.437C71.5038 121.791 72.5217 123.063 73.6883 124.228C74.4816 125.023 75.3251 125.75 76.2086 126.409C77.5984 127.445 79.0934 128.306 80.6643 128.991C83.4832 130.22 86.5499 130.871 89.7196 130.871C102.219 130.871 112.388 120.699 112.388 108.198V81.2691C112.388 82.017 111.782 82.6236 111.035 82.6236Z" fill="url(#paint5_linear_601_240)"/>
<path d="M89.7196 34.3762C95.0535 34.3762 100.066 36.4534 103.835 40.2258C107.604 43.9947 109.68 49.0076 109.68 54.3414V79.9152H69.7544V54.3414C69.7544 43.3324 78.7106 34.3762 89.7196 34.3762ZM67.0457 54.3414V81.269C67.0457 82.0169 67.6521 82.6235 68.3999 82.6235H69.7544H109.68H111.035C111.782 82.6235 112.388 82.0169 112.388 81.269V54.3414C112.388 48.2842 110.031 42.5914 105.75 38.3114C101.471 34.0274 95.7775 31.6679 89.7196 31.6679C77.217 31.6679 67.0457 41.8388 67.0457 54.3414" fill="url(#paint6_linear_601_240)"/>
<path d="M91.3068 40.6905C91.3482 40.6878 91.4839 40.6803 91.6943 40.6837C93.5523 40.7109 101.315 41.5673 102.492 53.7638V70.6217V74.3765C102.492 75.1243 103.098 75.731 103.846 75.731C104.594 75.731 105.201 75.1243 105.201 74.3765V53.6994C105.201 53.6573 105.199 53.6145 105.195 53.5725C103.651 37.2154 91.2308 37.9795 91.1059 37.9897C90.3628 38.0467 89.8091 38.6934 89.862 39.4364C89.9156 40.1802 90.5617 40.7475 91.3068 40.6905" fill="url(#paint7_linear_601_240)"/>
<path d="M73.4046 106.521C74.8086 121.4 85.211 122.112 87.1749 122.112C87.3696 122.112 87.4823 122.106 87.4931 122.104C88.2389 122.047 88.7967 121.396 88.7397 120.651C88.6827 119.905 88.0272 119.349 87.2855 119.404C87.261 119.405 84.8255 119.547 82.2774 118.104C78.7432 116.103 76.668 112.142 76.1075 106.33V85.7174C76.1075 84.9695 75.5008 84.3629 74.753 84.3629C74.0052 84.3629 73.3992 84.9695 73.3992 85.7174V106.394C73.3992 106.437 73.4005 106.479 73.4046 106.521Z" fill="url(#paint8_linear_601_240)"/>
<path d="M91.0714 27.2983V14.3546C91.0714 13.6068 90.4647 13.0001 89.7169 13.0001C88.9691 13.0001 88.3631 13.6068 88.3631 14.3546V27.2983C88.3631 28.0462 88.9691 28.6528 89.7169 28.6528C90.4647 28.6528 91.0714 28.0462 91.0714 27.2983Z" fill="url(#paint9_linear_601_240)"/>
<path d="M126.444 41.6616H113.499C112.751 41.6616 112.145 42.2683 112.145 43.0161C112.145 43.7639 112.751 44.3706 113.499 44.3706H126.444C127.192 44.3706 127.798 43.7639 127.798 43.0161C127.798 42.2683 127.192 41.6616 126.444 41.6616Z" fill="url(#paint10_linear_601_240)"/>
<path d="M107.416 30.9363L116.569 21.7839C117.097 21.2553 117.097 20.3975 116.569 19.8689C116.039 19.3403 115.182 19.3403 114.653 19.8689L105.5 29.0212C104.971 29.5499 104.971 30.4076 105.5 30.9363C105.765 31.2009 106.111 31.3333 106.458 31.3333C106.804 31.3333 107.151 31.2009 107.416 30.9363" fill="url(#paint11_linear_601_240)"/>
<defs>
<linearGradient id="paint0_linear_601_240" x1="61.3691" y1="63.7517" x2="61.3691" y2="55.963" gradientUnits="userSpaceOnUse">
<stop stop-color="#5F76E8"/>
<stop offset="1" stop-color="#8971EA"/>
</linearGradient>
<linearGradient id="paint1_linear_601_240" x1="61.668" y1="129.181" x2="61.668" y2="110.907" gradientUnits="userSpaceOnUse">
<stop stop-color="#5F76E8"/>
<stop offset="1" stop-color="#8971EA"/>
</linearGradient>
<linearGradient id="paint2_linear_601_240" x1="42.0228" y1="103.898" x2="42.0229" y2="64.0106" gradientUnits="userSpaceOnUse">
<stop stop-color="#5F76E8"/>
<stop offset="1" stop-color="#8971EA"/>
</linearGradient>
<linearGradient id="paint3_linear_601_240" x1="39.6539" y1="59.3394" x2="39.6539" y2="54.2848" gradientUnits="userSpaceOnUse">
<stop stop-color="#5F76E8"/>
<stop offset="1" stop-color="#8971EA"/>
</linearGradient>
<linearGradient id="paint4_linear_601_240" x1="60.272" y1="120.437" x2="60.272" y2="106.308" gradientUnits="userSpaceOnUse">
<stop stop-color="#5F76E8"/>
<stop offset="1" stop-color="#8971EA"/>
</linearGradient>
<linearGradient id="paint5_linear_601_240" x1="89.7171" y1="130.871" x2="89.7171" y2="96.8418" gradientUnits="userSpaceOnUse">
<stop stop-color="#5F76E8"/>
<stop offset="1" stop-color="#8971EA"/>
</linearGradient>
<linearGradient id="paint6_linear_601_240" x1="89.7171" y1="82.6235" x2="89.7171" y2="47.6656" gradientUnits="userSpaceOnUse">
<stop stop-color="#5F76E8"/>
<stop offset="1" stop-color="#8971EA"/>
</linearGradient>
<linearGradient id="paint7_linear_601_240" x1="97.5296" y1="75.731" x2="97.5296" y2="49.8332" gradientUnits="userSpaceOnUse">
<stop stop-color="#5F76E8"/>
<stop offset="1" stop-color="#8971EA"/>
</linearGradient>
<linearGradient id="paint8_linear_601_240" x1="81.0714" y1="122.112" x2="81.0715" y2="96.2144" gradientUnits="userSpaceOnUse">
<stop stop-color="#5F76E8"/>
<stop offset="1" stop-color="#8971EA"/>
</linearGradient>
<linearGradient id="paint9_linear_601_240" x1="89.7173" y1="28.6528" x2="89.7173" y2="17.9144" gradientUnits="userSpaceOnUse">
<stop stop-color="#5F76E8"/>
<stop offset="1" stop-color="#8971EA"/>
</linearGradient>
<linearGradient id="paint10_linear_601_240" x1="119.972" y1="44.3706" x2="119.972" y2="42.5121" gradientUnits="userSpaceOnUse">
<stop stop-color="#5F76E8"/>
<stop offset="1" stop-color="#8971EA"/>
</linearGradient>
<linearGradient id="paint11_linear_601_240" x1="111.034" y1="31.3333" x2="111.034" y2="23.1962" gradientUnits="userSpaceOnUse">
<stop stop-color="#5F76E8"/>
<stop offset="1" stop-color="#8971EA"/>
</linearGradient>
</defs>
</svg>
