<svg width="319" height="212" viewBox="0 0 319 212" fill="none" xmlns="http://www.w3.org/2000/svg">
<path opacity="0.18" d="M70.6185 40.3344C92.5647 25.4839 126.11 15.3126 149.832 28.3951C161.854 35.0233 168.314 46.1176 178.075 54.7233C187.836 63.329 205.11 69.3998 216.928 62.5337C222.376 59.3741 225.209 54.2263 229.399 50.0548C241.866 37.6291 266.713 35.3357 284.287 43.1035C301.862 50.8714 311.981 66.8117 312.835 82.5888C313.743 100.034 304.722 116.816 302.098 134.155C299.643 150.583 302.963 167.223 311.7 182.285C314.61 187.28 318.16 192.226 318.891 197.672C319.622 203.118 316.58 209.388 309.97 211.248C307.287 211.997 304.359 211.958 301.512 211.873L27.8021 205.465C22.1544 205.333 16.2887 205.156 11.2811 203.114C-2.51128 197.48 -2.03004 181.66 4.08529 170.474C10.2006 159.287 20.1295 148.424 18.7494 136.303C16.6973 118.311 -10.7105 101.572 7.4948 83.7603C14.105 77.2848 26.6217 73.092 34.6438 67.5253C47.1242 58.8557 57.9928 48.8797 70.6185 40.3344Z" fill="white"/>
<path d="M292.841 21.7458C292.841 21.7458 296.523 35.6199 299.651 36.6814C302.779 37.743 306.211 33.3833 306.461 33.4224C306.71 33.4614 310.093 36.3335 310.093 36.3335C310.093 36.3335 308.14 40.892 302.134 42.3227C298.802 43.1144 289.095 34.6898 287.742 29.6166C286.618 25.348 286.465 20.958 287.288 16.6477C287.288 16.6477 291.093 17.4287 292.841 21.7458Z" fill="white"/>
<path d="M292.841 21.7458C292.841 21.7458 296.523 35.6199 299.651 36.6814C302.779 37.743 306.211 33.3833 306.461 33.4224C306.71 33.4614 310.093 36.3335 310.093 36.3335C310.093 36.3335 308.14 40.892 302.134 42.3227C298.802 43.1144 289.095 34.6898 287.742 29.6166C286.618 25.348 286.465 20.958 287.288 16.6477C287.288 16.6477 291.093 17.4287 292.841 21.7458Z" fill="url(#paint0_linear_606_79)"/>
<path d="M268.951 30.1739L202.591 70.6426L121.017 27.6213L22.2497 96.7969" stroke="white" stroke-width="9.96" stroke-miterlimit="10"/>
<path d="M56.363 125.259H22.5221V206.899H56.363V125.259Z" fill="url(#paint1_linear_606_79)"/>
<path d="M219.511 99.1221H185.67V206.899H219.511V99.1221Z" fill="url(#paint2_linear_606_79)"/>
<path d="M137.937 62.2498H104.096V206.899H137.937V62.2498Z" fill="url(#paint3_linear_606_79)"/>
<path d="M301.085 54.8193H267.244V206.895H301.085V54.8193Z" fill="url(#paint4_linear_606_79)"/>
<path d="M28.0569 101.34C31.2642 98.8315 31.2642 94.7652 28.0569 92.2571C24.8496 89.749 19.6496 89.749 16.4423 92.2571C13.235 94.7652 13.235 98.8315 16.4423 101.34C19.6496 103.848 24.8496 103.848 28.0569 101.34Z" fill="#8971EA"/>
<path d="M126.824 32.1638C130.032 29.6557 130.032 25.5894 126.824 23.0813C123.617 20.5732 118.417 20.5732 115.21 23.0813C112.002 25.5894 112.002 29.6557 115.21 32.1638C118.417 34.6719 123.617 34.6719 126.824 32.1638Z" fill="#68E1FD"/>
<path d="M206.319 75.2931C210.36 73.6822 211.966 69.8147 209.906 66.6546C207.846 63.4945 202.9 62.2386 198.859 63.8495C194.818 65.4603 193.212 69.3279 195.272 72.4879C197.332 75.648 202.278 76.9039 206.319 75.2931Z" fill="#8971EA"/>
<path d="M28.0569 101.34C31.2642 98.8315 31.2642 94.7652 28.0569 92.2571C24.8496 89.749 19.6496 89.749 16.4423 92.2571C13.235 94.7652 13.235 98.8315 16.4423 101.34C19.6496 103.848 24.8496 103.848 28.0569 101.34Z" fill="url(#paint5_linear_606_79)"/>
<path d="M126.824 32.1638C130.032 29.6557 130.032 25.5894 126.824 23.0813C123.617 20.5732 118.417 20.5732 115.21 23.0813C112.002 25.5894 112.002 29.6557 115.21 32.1638C118.417 34.6719 123.617 34.6719 126.824 32.1638Z" fill="url(#paint6_linear_606_79)"/>
<path d="M206.319 75.2931C210.36 73.6822 211.966 69.8147 209.906 66.6546C207.846 63.4945 202.9 62.2386 198.859 63.8495C194.818 65.4603 193.212 69.3279 195.272 72.4879C197.332 75.648 202.278 76.9039 206.319 75.2931Z" fill="url(#paint7_linear_606_79)"/>
<path d="M312.989 211.599H6.33712C4.74292 211.599 3.21402 211.104 2.08676 210.223C0.959492 209.341 0.326202 208.146 0.326202 206.899V206.899C0.326202 205.652 0.959492 204.457 2.08676 203.575C3.21402 202.694 4.74292 202.198 6.33712 202.198H312.989C314.583 202.198 316.112 202.694 317.239 203.575C318.367 204.457 319 205.652 319 206.899C319 208.146 318.367 209.341 317.239 210.223C316.112 211.104 314.583 211.599 312.989 211.599Z" fill="#68E1FD"/>
<path d="M312.989 211.599H6.33712C4.74292 211.599 3.21402 211.104 2.08676 210.223C0.959492 209.341 0.326202 208.146 0.326202 206.899V206.899C0.326202 205.652 0.959492 204.457 2.08676 203.575C3.21402 202.694 4.74292 202.198 6.33712 202.198H312.989C314.583 202.198 316.112 202.694 317.239 203.575C318.367 204.457 319 205.652 319 206.899C319 208.146 318.367 209.341 317.239 210.223C316.112 211.104 314.583 211.599 312.989 211.599Z" fill="url(#paint8_linear_606_79)"/>
<path d="M277.06 17.3719C277.06 17.3719 270.036 18.5825 267.244 21.4618C264.452 24.341 264.139 47.8148 266.336 49.3734C268.534 50.9319 293.404 47.7438 291.456 44.8575C287.76 39.3831 290.925 16.6335 287.302 16.6619C283.679 16.6903 277.06 17.3719 277.06 17.3719Z" fill="white"/>
<path d="M273.737 25.9597C273.737 25.9597 267.599 45.8941 271.421 49.5046C271.421 49.5046 267.703 50.2927 266.332 49.3626C264.961 48.4324 264.103 36.5819 266.445 31.2566C268.788 25.9313 273.737 25.9597 273.737 25.9597Z" fill="url(#paint9_linear_606_79)"/>
<path d="M277.527 11.8123C277.527 11.8123 276.833 16.1009 276.778 17.4145C276.724 18.728 281.99 20.8155 283.18 19.5197C283.528 19.1499 283.771 18.7258 283.891 18.2761C284.01 17.8264 284.005 17.3618 283.874 16.9139L283.525 14.0737L277.527 11.8123Z" fill="url(#paint10_linear_606_79)"/>
<path d="M277.123 7.15443C277.123 7.15443 276.669 13.1294 279.289 14.3755C281.909 15.6216 283.375 16.8607 286.612 13.9779C289.849 11.0951 289.495 6.30948 288.787 5.61009C288.078 4.91071 279.352 0.732128 277.123 7.15443Z" fill="url(#paint11_linear_606_79)"/>
<path d="M274.313 3.1711C273.609 4.48822 273.705 5.96865 273.809 7.39228H274.554C274.408 8.14492 274.327 9.04312 275.067 9.52239C275.271 9.6573 275.521 9.74606 275.721 9.87741C276.479 10.3922 276.628 11.6809 277.536 12.0075C277.423 10.9425 277.305 9.87741 277.187 8.81236C277.128 8.26918 277.019 7.34968 277.695 7.21477C277.85 7.18637 278.018 7.19347 278.149 7.15797C278.426 7.07588 278.659 6.92167 278.808 6.72129C279.071 6.41242 279.33 6.10356 279.589 5.79114C279.882 5.34574 280.35 4.98511 280.923 4.76158C281.518 4.58763 282.353 4.86099 282.362 5.35802C283.643 4.62668 285.445 4.83259 286.902 5.30121C287.674 5.52185 288.372 5.87487 288.945 6.33432C289.23 6.56762 289.441 6.84941 289.562 7.15747C289.684 7.46552 289.712 7.79141 289.645 8.10942C290.702 5.24796 291.887 -1.03588 283.997 0.146333C282.844 0.320292 281.877 1.00548 280.705 1.06938C280.846 1.06938 280.338 0.629159 280.251 0.597207C279.847 0.4623 279.525 0.64691 279.166 0.767617C278.608 0.913397 278.028 1.0052 277.441 1.04098C276.739 1.17319 276.088 1.43584 275.544 1.80666C274.999 2.17747 274.577 2.64552 274.313 3.1711V3.1711Z" fill="#3F3D56"/>
<path d="M268.833 20.2119C268.833 20.2119 274.699 21.5077 273.737 25.9561C273.737 25.9561 265.982 32.1512 266.745 33.4115C267.508 34.6719 281.582 41.2539 281.582 41.2539L277.096 44.1402C277.096 44.1402 260.38 39.4611 259.231 35.2647C258.083 31.0684 260.857 24.5609 268.833 20.2119Z" fill="white"/>
<path d="M310.651 23.0131L305.748 37.0577L292.841 37.8316L296.768 22.5161L310.651 23.0131Z" fill="white"/>
<path d="M310.651 23.0131L305.748 37.0577L292.841 37.8316L296.768 22.5161L310.651 23.0131Z" fill="url(#paint12_linear_606_79)"/>
<path d="M306.924 33.4898C306.899 33.5655 306.899 33.6449 306.924 33.7206C306.986 33.8147 307.08 33.8934 307.196 33.9478C307.968 34.4235 308.295 35.3323 309.225 35.5737C310.015 34.9692 310.66 34.2585 311.128 33.4756C311.725 32.5905 311.887 31.5648 311.582 30.5928C311.222 29.7591 310.462 29.0677 309.462 28.6651C309.245 28.5513 308.999 28.4778 308.741 28.4501C308.483 28.4224 308.22 28.4413 307.972 28.5053C307.776 28.5947 307.607 28.7167 307.478 28.8627C307.348 29.0087 307.262 29.1751 307.223 29.3503C307.114 29.7053 307.096 30.0603 306.955 30.394C306.728 30.7711 306.531 31.1588 306.365 31.5549C306.326 31.7098 306.336 31.8698 306.395 32.0209C306.453 32.172 306.559 32.3094 306.701 32.4212C306.865 32.5561 306.937 32.4993 307.015 32.6697C307.039 32.9451 307.009 33.2218 306.924 33.4898Z" fill="url(#paint13_linear_606_79)"/>
<path d="M284.628 41.6304C284.738 41.6184 284.85 41.6259 284.957 41.6523C285.063 41.6787 285.16 41.7234 285.241 41.7831C285.301 41.8723 285.324 41.9743 285.307 42.0744C285.289 42.1745 285.231 42.2676 285.141 42.3404C284.962 42.4828 284.809 42.6441 284.687 42.8197C285.445 43.282 286.257 43.6885 287.111 44.0339C287.706 44.2788 288.41 44.5877 288.437 45.0989C288.414 45.3022 288.328 45.498 288.184 45.6684C288.041 45.8389 287.845 45.9787 287.615 46.0752C286.253 46.7853 284.569 46.9876 282.944 46.9308C281.972 46.944 281.017 46.7368 280.192 46.3344C279.695 46.0259 279.263 45.6581 278.912 45.2445L277.795 44.0658C277.773 44.0522 277.754 44.0348 277.742 44.0148C277.729 43.9948 277.723 43.9728 277.723 43.9505C277.723 43.9282 277.729 43.9062 277.742 43.8861C277.754 43.8661 277.773 43.8487 277.795 43.8351L279.125 42.6919C280.701 41.3535 282.431 41.6127 284.628 41.6304Z" fill="url(#paint14_linear_606_79)"/>
<path d="M303.514 77.3984C302.32 78.1866 301.308 77.1038 301.113 76.2198C300.914 75.2321 300.816 74.2338 300.817 73.2341C300.663 67.9159 300.512 62.5977 300.363 57.2795C300.363 56.7718 300.313 56.2144 299.909 55.8381C299.41 55.3908 298.547 55.3304 297.817 55.3056L296.545 55.2594L277.836 54.5671C275.521 54.4819 273.142 54.3861 271.026 53.6441C268.911 52.9021 267.09 51.3613 267.026 49.5472C267.063 50.5306 283.37 47.804 284.76 47.4383C287.338 46.7674 289.472 45.7946 292.146 45.8337C295.206 45.8798 298.361 46.3058 301.408 46.5153C304.018 46.6964 306.819 46.9342 308.799 48.2726C310.919 49.6927 311.582 52.0323 311.754 54.2121C312.385 62.832 308.499 69.6945 303.514 77.3984Z" fill="#3F3D56"/>
<path d="M302.279 77.2316L300.463 76.447C300.71 75.3869 300.833 74.3115 300.831 73.2341C300.677 67.9159 300.525 62.5977 300.377 57.2795C300.377 56.7718 300.327 56.2144 299.923 55.8381C299.424 55.3908 298.561 55.3304 297.83 55.3056L296.559 55.2594L294.216 51.7092C294.216 51.7092 302.066 51.7305 303.85 53.7222C305.634 55.7138 302.279 77.2316 302.279 77.2316Z" fill="#25233A"/>
<path d="M299.287 59.9741C299.287 61.3089 298.711 62.6048 298.093 63.8509C296.731 66.6023 295.197 69.2827 293.644 71.9631C291.965 74.8553 290.286 77.7511 288.609 80.6504C288.314 81.1581 287.91 81.7368 287.202 81.8184C286.371 81.9107 285.876 81.3178 285.654 80.622C285.554 80.3122 285.507 79.9935 285.513 79.6741C285.559 74.1997 285.846 68.73 286.376 63.2651C286.44 62.9429 286.4 62.6132 286.258 62.3065C286.014 61.9966 285.659 61.7496 285.236 61.5965C282.017 60.1267 278.526 59.0759 275.248 57.6913C271.97 56.3067 268.82 54.5458 266.886 52.0607C266.567 51.7347 266.417 51.3262 266.468 50.9175C266.654 50.2288 267.726 49.9874 268.611 49.8773L286.871 47.5874C290.957 47.0727 294.017 51.6773 296.055 53.9068C297.708 55.7138 299.287 57.7232 299.287 59.9741Z" fill="#3F3D56"/>
<path d="M285.509 79.6565L284.147 84.3853C284.147 84.3853 288.759 86.9237 290.099 87.2255C291.438 87.5273 295.892 87.2255 295.892 87.2255C295.892 87.2255 296.591 85.7806 294.234 85.1344C292.757 84.7354 291.238 84.4361 289.694 84.2398C288.782 83.411 288.304 82.3433 288.355 81.2505C288.355 81.2505 286.571 81.5026 285.509 79.6565Z" fill="#25233A"/>
<path d="M300.631 75.8081L299.269 80.5334C299.269 80.5334 303.882 83.0754 305.221 83.3736C306.56 83.6718 311.014 83.3736 311.014 83.3736C311.014 83.3736 311.713 81.9286 309.357 81.2825C307.879 80.8834 306.36 80.5829 304.817 80.3843C303.896 79.5598 303.409 78.4928 303.455 77.3986C303.455 77.3986 301.694 77.6542 300.631 75.8081Z" fill="#25233A"/>
<path d="M287.202 81.8007L285.654 80.6043C285.554 80.2945 285.507 79.9758 285.513 79.6564C285.559 74.182 285.846 68.7123 286.376 63.2474C286.44 62.9252 286.4 62.5955 286.258 62.2889C286.014 61.9789 285.659 61.7319 285.236 61.5788C282.017 60.109 278.526 59.0582 275.248 57.6736C271.97 56.289 268.82 54.5281 266.886 52.043C266.567 51.717 266.417 51.3085 266.468 50.8998C266.654 50.2111 267.726 49.9697 268.611 49.8596C268.611 49.8596 282.367 56.5695 287.633 59.3564C292.9 62.1433 287.202 81.8007 287.202 81.8007Z" fill="#25233A"/>
<defs>
<linearGradient id="paint0_linear_606_79" x1="296.332" y1="28.9917" x2="265.732" y2="68.3386" gradientUnits="userSpaceOnUse">
<stop stop-opacity="0"/>
<stop offset="1"/>
</linearGradient>
<linearGradient id="paint1_linear_606_79" x1="39.4425" y1="125.259" x2="39.6946" y2="182.751" gradientUnits="userSpaceOnUse">
<stop stop-color="#D7E1EC"/>
<stop offset="1" stop-color="white"/>
</linearGradient>
<linearGradient id="paint2_linear_606_79" x1="202.591" y1="99.1221" x2="203.03" y2="175.019" gradientUnits="userSpaceOnUse">
<stop stop-color="#D7E1EC"/>
<stop offset="1" stop-color="white"/>
</linearGradient>
<linearGradient id="paint3_linear_606_79" x1="121.017" y1="62.2498" x2="121.808" y2="164.11" gradientUnits="userSpaceOnUse">
<stop stop-color="#D7E1EC"/>
<stop offset="1" stop-color="white"/>
</linearGradient>
<linearGradient id="paint4_linear_606_79" x1="284.165" y1="54.8193" x2="285.04" y2="161.909" gradientUnits="userSpaceOnUse">
<stop stop-color="#D7E1EC"/>
<stop offset="1" stop-color="white"/>
</linearGradient>
<linearGradient id="paint5_linear_606_79" x1="20.853" y1="-0.666548" x2="23.4044" y2="290.339" gradientUnits="userSpaceOnUse">
<stop stop-opacity="0"/>
<stop offset="1"/>
</linearGradient>
<linearGradient id="paint6_linear_606_79" x1="120.599" y1="-1.54107" x2="123.147" y2="289.468" gradientUnits="userSpaceOnUse">
<stop stop-color="#8971EA"/>
<stop offset="1"/>
</linearGradient>
<linearGradient id="paint7_linear_606_79" x1="201.552" y1="-2.25038" x2="204.104" y2="288.755" gradientUnits="userSpaceOnUse">
<stop stop-opacity="0"/>
<stop offset="1"/>
</linearGradient>
<linearGradient id="paint8_linear_606_79" x1="159.663" y1="202.198" x2="159.663" y2="208.819" gradientUnits="userSpaceOnUse">
<stop stop-color="#D7E1EC"/>
<stop offset="1" stop-color="white"/>
</linearGradient>
<linearGradient id="paint9_linear_606_79" x1="275.902" y1="37.0505" x2="217.764" y2="55.3375" gradientUnits="userSpaceOnUse">
<stop stop-opacity="0"/>
<stop offset="1"/>
</linearGradient>
<linearGradient id="paint10_linear_606_79" x1="279.13" y1="13.4808" x2="280.71" y2="19.384" gradientUnits="userSpaceOnUse">
<stop stop-color="#ECC4D7"/>
<stop offset="0.42" stop-color="#EFD4D1"/>
<stop offset="1" stop-color="#F2EAC9"/>
</linearGradient>
<linearGradient id="paint11_linear_606_79" x1="282.567" y1="7.31419" x2="283.917" y2="12.5584" gradientUnits="userSpaceOnUse">
<stop stop-color="#ECC4D7"/>
<stop offset="0.42" stop-color="#EFD4D1"/>
<stop offset="1" stop-color="#F2EAC9"/>
</linearGradient>
<linearGradient id="paint12_linear_606_79" x1="295.796" y1="28.4875" x2="357.778" y2="61.4432" gradientUnits="userSpaceOnUse">
<stop stop-opacity="0"/>
<stop offset="1"/>
</linearGradient>
<linearGradient id="paint13_linear_606_79" x1="306.374" y1="31.9987" x2="311.777" y2="31.9987" gradientUnits="userSpaceOnUse">
<stop stop-color="#ECC4D7"/>
<stop offset="0.42" stop-color="#EFD4D1"/>
<stop offset="1" stop-color="#F2EAC9"/>
</linearGradient>
<linearGradient id="paint14_linear_606_79" x1="277.714" y1="44.2788" x2="288.428" y2="44.2788" gradientUnits="userSpaceOnUse">
<stop stop-color="#ECC4D7"/>
<stop offset="0.42" stop-color="#EFD4D1"/>
<stop offset="1" stop-color="#F2EAC9"/>
</linearGradient>
</defs>
</svg>
