<svg xmlns="http://www.w3.org/2000/svg" viewBox="0 0 500 500"><g id="freepik--background-simple--inject-11"><path d="M95,136.33c41.43-30.26,87,54.41,134,76s106.42-77.47,180-29c44.72,29.45,49.78,183.11-138.61,194.88S15.14,194.67,95,136.33Z" style="fill:#FFBE40"></path><path d="M95,136.33c41.43-30.26,87,54.41,134,76s106.42-77.47,180-29c44.72,29.45,49.78,183.11-138.61,194.88S15.14,194.67,95,136.33Z" style="fill:#fff;opacity:0.9;isolation:isolate"></path></g><g id="freepik--Shadow--inject-11"><ellipse id="freepik--path--inject-11" cx="250" cy="416.24" rx="193.89" ry="11.32" style="fill:#f5f5f5"></ellipse></g><g id="freepik--Phone--inject-11"><g id="freepik--group--inject-11"><rect x="105.57" y="77.88" width="188.74" height="339.47" rx="10.4" style="fill:#2e353a"></rect><path d="M288,89.26V405.38a4.62,4.62,0,0,1-4.69,4.62H116.19a4.14,4.14,0,0,1-4.19-4.24V88.88A3.73,3.73,0,0,1,115.59,85h41.78a2.94,2.94,0,0,1,2.69,1.88l1.73,4.26A2.94,2.94,0,0,0,164.48,93h71.13a2.91,2.91,0,0,0,2.69-1.83L240,86.89A3,3,0,0,1,242.72,85H283.9A4.22,4.22,0,0,1,288,89.26Z" style="fill:#FFBE40"></path><rect x="112" y="105.5" width="176" height="39.5" style="fill:#fff;opacity:0.2;isolation:isolate"></rect><rect x="131.85" y="94.84" width="2.17" height="2.9" transform="translate(265.87 192.57) rotate(180)" style="fill:#fff;opacity:0.6000000000000001;isolation:isolate"></rect><rect x="128.3" y="93.87" width="2.17" height="3.87" transform="translate(258.78 191.61) rotate(180)" style="fill:#fff;opacity:0.6000000000000001;isolation:isolate"></rect><rect x="124.76" y="92.9" width="2.17" height="4.83" transform="translate(251.7 190.64) rotate(180)" style="fill:#fff;opacity:0.6000000000000001;isolation:isolate"></rect><rect x="121.22" y="91.94" width="2.17" height="5.8" transform="translate(244.61 189.67) rotate(180)" style="fill:#fff;opacity:0.6000000000000001;isolation:isolate"></rect><rect x="267.25" y="93.78" width="1.29" height="2.9" style="fill:#fff;opacity:0.6000000000000001;isolation:isolate"></rect><rect x="269.42" y="92.72" width="10.27" height="5.01" transform="translate(549.1 190.46) rotate(180)" style="fill:#fff;opacity:0.6000000000000001;isolation:isolate"></rect><circle cx="196.01" cy="85.41" r="2.42" style="fill:#fff;opacity:0.6000000000000001;isolation:isolate"></circle><path d="M203.32,85.41a1.55,1.55,0,1,1-1.55-1.55A1.55,1.55,0,0,1,203.32,85.41Z" style="fill:#fff;opacity:0.6000000000000001;isolation:isolate"></path><path d="M288,350v55.38a4.62,4.62,0,0,1-4.69,4.62H116.19a4.14,4.14,0,0,1-4.19-4.24V350Z" style="fill:#fff;opacity:0.2;isolation:isolate"></path><polygon points="131.33 244.21 199.94 186.56 268.54 244.21 214.75 316.36 166.44 315.39 131.33 244.21" style="fill:#FFBE40"></polygon><polygon points="131.33 244.21 199.94 186.56 268.54 244.21 214.75 316.36 166.44 315.39 131.33 244.21" style="opacity:0.30000000000000004;isolation:isolate"></polygon><rect x="151.14" y="167.56" width="97.59" height="142.68" rx="2.25" style="fill:#fff"></rect><rect x="161.53" y="180.44" width="76.82" height="2.9" rx="0.72" style="opacity:0.2;isolation:isolate"></rect><rect x="161.53" y="190.11" width="76.82" height="2.9" rx="0.72" style="opacity:0.2;isolation:isolate"></rect><rect x="161.53" y="199.78" width="76.82" height="2.9" rx="0.72" style="opacity:0.2;isolation:isolate"></rect><rect x="161.53" y="209.45" width="76.82" height="2.9" rx="0.72" style="opacity:0.2;isolation:isolate"></rect><rect x="161.53" y="219.12" width="76.82" height="2.9" rx="0.72" style="opacity:0.2;isolation:isolate"></rect><rect x="161.53" y="228.79" width="76.82" height="2.9" rx="0.72" style="opacity:0.2;isolation:isolate"></rect><rect x="161.53" y="238.46" width="76.82" height="2.9" rx="0.72" style="opacity:0.2;isolation:isolate"></rect><rect x="161.53" y="248.12" width="76.82" height="2.9" rx="0.72" style="opacity:0.2;isolation:isolate"></rect><rect x="161.53" y="257.79" width="76.82" height="2.9" rx="0.72" style="opacity:0.2;isolation:isolate"></rect><path d="M203.61,294.49l-.38-.21a4.55,4.55,0,0,0-4.45,0l-1.85,1.05L131,244.21v84.38a4.43,4.43,0,0,0,4.52,4.41H264.36c2.48,0,3.64-1.91,3.64-4.41V244.21Z" style="fill:#FFBE40"></path><path d="M203.61,294.49l-.38-.21a4.55,4.55,0,0,0-4.45,0l-1.85,1.05L131,244.21v84.38a4.43,4.43,0,0,0,4.52,4.41H264.36c2.48,0,3.64-1.91,3.64-4.41V244.21Z" style="fill:#fff;opacity:0.6000000000000001;isolation:isolate"></path><polygon points="193.95 293.04 196.93 295.35 150.34 321.8 193.95 293.04" style="opacity:0.2;isolation:isolate"></polygon><polygon points="254.5 322.8 203.54 294.54 205.89 292.7 254.5 322.8" style="opacity:0.2;isolation:isolate"></polygon><rect x="173" y="111.67" width="57.33" height="5.33" rx="0.83" style="fill:#FFBE40"></rect><path d="M275.67,139.67H250a3.34,3.34,0,0,1-3.33-3.34h0A3.33,3.33,0,0,1,250,133h25.67a3.33,3.33,0,0,1,3.33,3.33h0A3.34,3.34,0,0,1,275.67,139.67Z" style="fill:#FFBE40"></path><rect x="124.67" y="358.33" width="25.67" height="24.33" style="fill:#FFBE40"></rect><rect x="155.89" y="358.33" width="25.67" height="24.33" style="fill:#FFBE40"></rect><rect x="187.12" y="358.33" width="25.67" height="24.33" style="fill:#FFBE40"></rect><rect x="218.35" y="358.33" width="25.67" height="24.33" style="fill:#FFBE40"></rect><rect x="249.57" y="358.33" width="25.67" height="24.33" style="fill:#FFBE40"></rect><path d="M275.67,399.83H250a3.33,3.33,0,0,1-3.33-3.33h0a3.34,3.34,0,0,1,3.33-3.34h25.67A3.34,3.34,0,0,1,279,396.5h0A3.33,3.33,0,0,1,275.67,399.83Z" style="fill:#FFBE40"></path><polygon points="269.96 78 105.57 311.92 105.57 208.29 197.05 78 269.96 78" style="fill:#fff;opacity:0.1;isolation:isolate"></polygon><path d="M174.86,78,106,176.34v-88A9.94,9.94,0,0,1,116,78Z" style="fill:#fff;opacity:0.1;isolation:isolate"></path></g></g><g id="freepik--paper-plane--inject-11"><g id="freepik--group--inject-11"><g id="freepik--group--inject-11"><path d="M335.57,94.91c-44.09,6.21-102.82,23.71-153.26,45.66-32.82,14.28-90.07,42.71-104.7,72.65-4.38,9-4.42,17.34-.1,24.83S91.86,250.75,106,254.3v-1.64c-13.5-3.41-23.12-8.34-27.15-15.35s-4-14.93.15-23.43c10.53-21.56,48.42-47.78,104-71.94C233.24,120,291.82,102.59,335.78,96.4a.75.75,0,1,0-.21-1.49Z" style="fill:#fff"></path><path d="M335.57,94.91c-44.09,6.21-102.82,23.71-153.26,45.66-32.82,14.28-90.07,42.71-104.7,72.65-4.38,9-4.42,17.34-.1,24.83S91.86,250.75,106,254.3v-1.64c-13.5-3.41-23.12-8.34-27.15-15.35s-4-14.93.15-23.43c10.53-21.56,48.42-47.78,104-71.94C233.24,120,291.82,102.59,335.78,96.4a.75.75,0,1,0-.21-1.49Z" style="fill:#FFBE40"></path><path d="M78.16,238.43a.74.74,0,0,1-.65-.38c-4.32-7.49-4.28-15.85.1-24.83,14.63-29.94,71.88-58.37,104.7-72.65,50.44-21.95,109.17-39.45,153.26-45.66a.75.75,0,1,1,.21,1.49c-44,6.19-102.54,23.64-152.87,45.54C127.38,166.1,89.49,192.32,79,213.88c-4.15,8.5-4.2,16.39-.15,23.43a.75.75,0,0,1-.28,1A.74.74,0,0,1,78.16,238.43Z" style="fill:#FFBE40"></path></g><g style="opacity:0.8;isolation:isolate"><path d="M78.16,238.43a.74.74,0,0,1-.65-.38c-4.32-7.49-4.28-15.85.1-24.83,14.63-29.94,71.88-58.37,104.7-72.65,50.44-21.95,109.17-39.45,153.26-45.66a.75.75,0,1,1,.21,1.49c-44,6.19-102.54,23.64-152.87,45.54C127.38,166.1,89.49,192.32,79,213.88c-4.15,8.5-4.2,16.39-.15,23.43a.75.75,0,0,1-.28,1A.74.74,0,0,1,78.16,238.43Z" style="fill:#fff"></path></g></g><g id="freepik--group--inject-11"><polygon points="356.18 105.5 398.66 83 361.5 95.23 356.18 105.5" style="fill:#FFBE40"></polygon><polygon points="356.18 105.5 398.66 83 361.5 95.23 356.18 105.5" style="opacity:0.30000000000000004;isolation:isolate"></polygon><polygon points="346.14 85.58 354 91 356.18 105.5 361.5 95.23 374.96 102 398.66 83 346.14 85.58" style="fill:#FFBE40"></polygon><polygon points="346.14 85.58 354 91 356.18 105.5 361.5 95.23 374.96 102 398.66 83 346.14 85.58" style="fill:#fff;opacity:0.6000000000000001;isolation:isolate"></polygon><polygon points="354 91 398.66 83 361.5 95.23 356.18 105.5 354 91" style="opacity:0.2;isolation:isolate"></polygon></g></g></svg>