<svg width="144" height="144" viewBox="0 0 144 144" fill="none" xmlns="http://www.w3.org/2000/svg">
<path d="M67.0458 63.7515L55.6925 52.3984L67.0458 63.7515Z" fill="url(#paint0_linear_333_577)"/>
<path d="M76.2085 126.409C71.4562 126.052 67.0344 124.034 63.6275 120.627L45.5439 102.543L44.5864 103.501C44.3219 103.766 43.9753 103.898 43.6288 103.898C43.2823 103.898 42.9359 103.766 42.6716 103.502L61.7122 122.542C65.9931 126.823 71.6836 129.181 77.7442 129.181H77.7551C78.7363 129.181 79.706 129.113 80.6642 128.991C79.0933 128.306 77.5983 127.445 76.2085 126.409Z" fill="url(#paint1_linear_333_577)"/>
<path d="M44.5865 103.501L45.5439 102.543L67.0457 81.0417V77.2117L43.6288 100.628L25.5455 82.5448C23.1128 80.112 21.4403 77.2028 20.5281 74.1145C18.5213 67.321 20.1937 59.6615 25.5455 54.3101C29.3144 50.5411 34.3236 48.4659 39.663 48.4659C44.9937 48.4659 50.0064 50.5424 53.7772 54.3135L67.0457 67.5816V63.7515L55.6925 52.3984C51.4098 48.1157 45.7172 45.7569 39.65 45.7569C33.6001 45.7569 27.9109 48.1144 23.6302 52.395C14.7899 61.2352 14.7899 75.6196 23.6302 84.4598L42.6712 103.501L42.6716 103.502C42.936 103.765 43.2823 103.898 43.6288 103.898C43.9753 103.898 44.3219 103.765 44.5865 103.501Z" fill="url(#paint2_linear_333_577)"/>
<path d="M29.081 55.8845C28.5943 56.4524 28.6602 57.3075 29.228 57.794C29.7957 58.2813 30.6508 58.2155 31.1375 57.6475C31.144 57.64 31.4349 57.3156 31.9733 56.8854C32.7228 56.2862 33.9553 55.48 35.5984 55.0253C39.073 54.0638 42.8267 55.0097 46.7775 57.8307C47.2934 58.1992 47.8125 58.5962 48.3351 59.0284C48.5876 59.2374 48.8936 59.3392 49.1977 59.3392C49.5873 59.3392 49.9739 59.1723 50.2417 58.8486C50.7187 58.2725 50.6382 57.4188 50.0619 56.9417C37.4041 46.4661 29.1629 55.7894 29.081 55.8845Z" fill="url(#paint3_linear_333_577)"/>
<path d="M52.2241 100.239C51.6955 99.7108 50.8381 99.7101 50.3089 100.239C49.78 100.768 49.78 101.625 50.3089 102.154L64.9299 116.775C64.9599 116.805 64.9914 116.833 65.0241 116.861C67.0065 118.501 68.8803 119.656 70.6318 120.437C69.7455 119.061 69.0147 117.601 68.4501 116.075C67.9035 115.69 67.3534 115.271 66.7994 114.815L52.2241 100.239Z" fill="url(#paint4_linear_333_577)"/>
<path d="M111.035 82.6235H109.68V108.197C109.68 119.206 100.726 128.163 89.7196 128.163C84.3851 128.163 79.3722 126.085 75.6033 122.312C71.8316 118.545 69.7544 113.532 69.7544 108.197V82.6235H68.3999C67.6521 82.6235 67.0457 82.0168 67.0457 81.269V108.197C67.0457 110.929 67.5299 113.587 68.4501 116.075C69.0147 117.601 69.7456 119.061 70.6318 120.437C71.5038 121.791 72.5217 123.063 73.6882 124.228C74.4815 125.023 75.325 125.75 76.2086 126.409C77.5984 127.445 79.0933 128.306 80.6643 128.991C83.4832 130.22 86.5499 130.871 89.7196 130.871C102.219 130.871 112.388 120.699 112.388 108.197V81.269C112.388 82.0168 111.782 82.6235 111.035 82.6235Z" fill="url(#paint5_linear_333_577)"/>
<path d="M89.7196 34.3761C95.0535 34.3761 100.066 36.4533 103.835 40.2256C107.604 43.9946 109.68 49.0074 109.68 54.3413V79.9151H69.7544V54.3413C69.7544 43.3323 78.7106 34.3761 89.7196 34.3761ZM67.0457 54.3413V81.2689C67.0457 82.0167 67.6521 82.6234 68.3999 82.6234H69.7544H109.68H111.035C111.782 82.6234 112.388 82.0167 112.388 81.2689V54.3413C112.388 48.284 110.031 42.5912 105.75 38.3113C101.471 34.0273 95.7775 31.6678 89.7196 31.6678C77.217 31.6678 67.0457 41.8387 67.0457 54.3413Z" fill="url(#paint6_linear_333_577)"/>
<path d="M91.3068 40.6905C91.3482 40.6878 91.4839 40.6803 91.6943 40.6837C93.5523 40.7109 101.315 41.5673 102.492 53.7638V70.6217V74.3765C102.492 75.1243 103.098 75.731 103.846 75.731C104.594 75.731 105.201 75.1243 105.201 74.3765V53.6994C105.201 53.6573 105.199 53.6145 105.195 53.5725C103.651 37.2154 91.2308 37.9795 91.1059 37.9897C90.3628 38.0467 89.8091 38.6934 89.862 39.4364C89.9156 40.1802 90.5617 40.7475 91.3068 40.6905Z" fill="url(#paint7_linear_333_577)"/>
<path d="M73.4046 106.521C74.8086 121.4 85.211 122.112 87.1749 122.112C87.3696 122.112 87.4823 122.105 87.4931 122.104C88.2389 122.047 88.7967 121.396 88.7397 120.65C88.6827 119.905 88.0272 119.349 87.2855 119.404C87.261 119.405 84.8255 119.547 82.2774 118.104C78.7432 116.103 76.668 112.141 76.1075 106.33V85.7172C76.1075 84.9694 75.5008 84.3627 74.753 84.3627C74.0052 84.3627 73.3992 84.9694 73.3992 85.7172V106.394C73.3992 106.436 73.4005 106.479 73.4046 106.521Z" fill="url(#paint8_linear_333_577)"/>
<path d="M91.0714 27.2982V14.3545C91.0714 13.6067 90.4647 13 89.7169 13C88.969 13 88.363 13.6067 88.363 14.3545V27.2982C88.363 28.046 88.969 28.6527 89.7169 28.6527C90.4647 28.6527 91.0714 28.046 91.0714 27.2982Z" fill="url(#paint9_linear_333_577)"/>
<path d="M126.444 41.6616H113.499C112.752 41.6616 112.146 42.2683 112.146 43.0161C112.146 43.7639 112.752 44.3706 113.499 44.3706H126.444C127.192 44.3706 127.798 43.7639 127.798 43.0161C127.798 42.2683 127.192 41.6616 126.444 41.6616Z" fill="url(#paint10_linear_333_577)"/>
<path d="M107.416 30.9363L116.569 21.7839C117.097 21.2553 117.097 20.3975 116.569 19.8689C116.039 19.3403 115.182 19.3403 114.653 19.8689L105.5 29.0212C104.971 29.5499 104.971 30.4076 105.5 30.9363C105.765 31.2009 106.111 31.3333 106.458 31.3333C106.804 31.3333 107.151 31.2009 107.416 30.9363Z" fill="url(#paint11_linear_333_577)"/>
<defs>
<linearGradient id="paint0_linear_333_577" x1="61.3691" y1="62.568" x2="61.3691" y2="124.871" gradientUnits="userSpaceOnUse">
<stop stop-color="#2C3892"/>
<stop offset="1" stop-color="#4AC2C2"/>
</linearGradient>
<linearGradient id="paint1_linear_333_577" x1="61.6677" y1="62.5681" x2="61.6677" y2="124.871" gradientUnits="userSpaceOnUse">
<stop stop-color="#2C3892"/>
<stop offset="1" stop-color="#4AC2C2"/>
</linearGradient>
<linearGradient id="paint2_linear_333_577" x1="42.0228" y1="62.568" x2="42.0228" y2="124.872" gradientUnits="userSpaceOnUse">
<stop stop-color="#2C3892"/>
<stop offset="1" stop-color="#4AC2C2"/>
</linearGradient>
<linearGradient id="paint3_linear_333_577" x1="39.6539" y1="62.568" x2="39.6539" y2="124.871" gradientUnits="userSpaceOnUse">
<stop stop-color="#2C3892"/>
<stop offset="1" stop-color="#4AC2C2"/>
</linearGradient>
<linearGradient id="paint4_linear_333_577" x1="60.272" y1="62.5687" x2="60.272" y2="124.872" gradientUnits="userSpaceOnUse">
<stop stop-color="#2C3892"/>
<stop offset="1" stop-color="#4AC2C2"/>
</linearGradient>
<linearGradient id="paint5_linear_333_577" x1="89.7169" y1="62.568" x2="89.7169" y2="124.871" gradientUnits="userSpaceOnUse">
<stop stop-color="#2C3892"/>
<stop offset="1" stop-color="#4AC2C2"/>
</linearGradient>
<linearGradient id="paint6_linear_333_577" x1="89.7169" y1="62.568" x2="89.7169" y2="124.871" gradientUnits="userSpaceOnUse">
<stop stop-color="#2C3892"/>
<stop offset="1" stop-color="#4AC2C2"/>
</linearGradient>
<linearGradient id="paint7_linear_333_577" x1="97.5296" y1="62.5681" x2="97.5296" y2="124.872" gradientUnits="userSpaceOnUse">
<stop stop-color="#2C3892"/>
<stop offset="1" stop-color="#4AC2C2"/>
</linearGradient>
<linearGradient id="paint8_linear_333_577" x1="81.0715" y1="62.568" x2="81.0715" y2="124.871" gradientUnits="userSpaceOnUse">
<stop stop-color="#2C3892"/>
<stop offset="1" stop-color="#4AC2C2"/>
</linearGradient>
<linearGradient id="paint9_linear_333_577" x1="89.7169" y1="62.568" x2="89.7169" y2="124.871" gradientUnits="userSpaceOnUse">
<stop stop-color="#2C3892"/>
<stop offset="1" stop-color="#4AC2C2"/>
</linearGradient>
<linearGradient id="paint10_linear_333_577" x1="119.972" y1="62.5681" x2="119.972" y2="124.872" gradientUnits="userSpaceOnUse">
<stop stop-color="#2C3892"/>
<stop offset="1" stop-color="#4AC2C2"/>
</linearGradient>
<linearGradient id="paint11_linear_333_577" x1="111.035" y1="62.5681" x2="111.035" y2="124.871" gradientUnits="userSpaceOnUse">
<stop stop-color="#2C3892"/>
<stop offset="1" stop-color="#4AC2C2"/>
</linearGradient>
</defs>
</svg>
