<svg width="144" height="144" viewBox="0 0 144 144" fill="none" xmlns="http://www.w3.org/2000/svg">
<path d="M31.5658 138C37.4099 138 42.3349 133.99 43.7341 128.577C43.3758 128.583 43.0236 128.596 42.6592 128.596C42.0862 128.596 41.4981 128.58 40.9109 128.565C39.599 132.469 35.9069 135.291 31.5658 135.291C26.1306 135.291 21.7089 130.869 21.7089 125.435C21.7089 119.999 26.1306 115.577 31.5658 115.577C37.0014 115.577 41.4233 119.999 41.4233 125.435C41.4233 125.582 41.4188 125.729 41.412 125.876C42.3349 125.895 43.2383 125.892 44.1215 125.871C44.1264 125.726 44.1325 125.58 44.1325 125.435C44.1325 118.505 38.495 112.868 31.5658 112.868C24.637 112.868 19 118.505 19 125.435C19 132.363 24.637 138 31.5658 138Z" fill="url(#paint0_linear_332_285)"/>
<path d="M90.1925 81.5721V82.7443C100.135 76.7571 106.801 65.858 106.801 53.43V42.5836C106.801 33.0126 102.908 24.1738 96.2347 17.8353C95.6792 18.5606 94.9896 19.175 94.1991 19.642C100.443 25.4887 104.091 33.6937 104.091 42.5836V53.43C104.091 64.7518 98.0817 74.6944 89.087 80.2425C89.7162 80.3604 90.1925 80.9096 90.1925 81.5721Z" fill="url(#paint1_linear_332_285)"/>
<path d="M57.3679 80.9677C47.6903 75.5903 41.1239 65.2645 41.1239 53.4298V42.5835C41.1239 33.1839 45.2737 24.4553 52.2691 18.545C51.6258 17.9011 51.1051 17.1339 50.7456 16.2837C43.0098 22.7037 38.4148 32.2732 38.4148 42.5835V53.4298C38.4148 66.7523 46.0742 78.3186 57.2197 83.9597V81.572C57.2197 81.354 57.2764 81.1508 57.3679 80.9677Z" fill="url(#paint2_linear_332_285)"/>
<path d="M41.4122 125.876C39.8553 125.844 38.2389 125.753 36.5703 125.607C36.5367 126.583 36.2283 127.489 35.7131 128.247C37.5042 128.417 39.2355 128.52 40.911 128.565C41.4983 128.58 42.0864 128.596 42.6593 128.596C43.0237 128.596 43.3759 128.583 43.7342 128.577C54.9017 128.383 63.258 125.178 68.6325 118.981C74.4226 112.305 75.5948 103.549 75.3985 96.7191H72.6508C72.8378 103.081 71.7967 111.198 66.5862 117.206C61.8015 122.723 54.269 125.622 44.1216 125.871C43.2384 125.892 42.3351 125.895 41.4122 125.876Z" fill="url(#paint3_linear_332_285)"/>
<path d="M86.1896 13.5237C86.1896 11.0956 88.1639 9.11981 90.5912 9.11981C93.02 9.11981 94.995 11.0956 94.995 13.5237C94.995 15.9517 93.02 17.9268 90.5912 17.9268C88.1639 17.9268 86.1896 15.9517 86.1896 13.5237ZM96.2346 17.8352C97.1523 16.6375 97.7047 15.1457 97.7047 13.5237C97.7047 9.60154 94.5133 6.41094 90.5912 6.41094C86.6706 6.41094 83.48 9.60154 83.48 13.5237C83.48 17.445 86.6706 20.6356 90.5912 20.6356C91.9091 20.6356 93.1402 20.2695 94.1991 19.6419C94.9896 19.1749 95.6792 18.5605 96.2346 17.8352Z" fill="url(#paint4_linear_332_285)"/>
<path d="M52.897 13.5237C52.897 11.0956 54.8726 9.11981 57.3009 9.11981C59.7288 9.11981 61.704 11.0956 61.704 13.5237C61.704 15.9517 59.7288 17.9268 57.3009 17.9268C54.8726 17.9268 52.897 15.9517 52.897 13.5237ZM57.3009 20.6356C61.2225 20.6356 64.4131 17.445 64.4131 13.5237C64.4131 9.60154 61.2225 6.41094 57.3009 6.41094C53.3789 6.41094 50.188 9.60154 50.188 13.5237C50.188 14.5019 50.3868 15.4343 50.7458 16.2837C51.1053 17.1339 51.626 17.9011 52.2694 18.545C53.5577 19.8358 55.3374 20.6356 57.3009 20.6356Z" fill="url(#paint5_linear_332_285)"/>
<path d="M71.7471 87.9998C71.7471 87.252 71.1405 86.6454 70.3927 86.6454H59.9292V82.9273H87.4837V86.6454H77.0206C76.2728 86.6454 75.6661 87.252 75.6661 87.9998V94.0102H71.7471V87.9998ZM77.0206 96.7191C77.7684 96.7191 78.375 96.1133 78.375 95.3647V89.3543H88.8381C89.5859 89.3543 90.1926 88.7484 90.1926 87.9998V82.7442V81.5721C90.1926 80.9096 89.7163 80.3604 89.0872 80.2425C89.0065 80.2277 88.9235 80.2177 88.8381 80.2177H58.5746C58.0451 80.2177 57.5912 80.5248 57.3681 80.9678C57.2766 81.1509 57.22 81.3541 57.22 81.5721V83.9598V87.9998C57.22 88.7484 57.8266 89.3543 58.5746 89.3543H69.0382V95.3647C69.0382 96.1133 69.6449 96.7191 70.3927 96.7191H72.6508H75.3985H77.0206Z" fill="url(#paint6_linear_332_285)"/>
<path d="M33.8696 125.435C33.8696 126.705 32.836 127.739 31.5658 127.739C30.2963 127.739 29.2632 126.705 29.2632 125.435C29.2632 124.164 30.2963 123.131 31.5658 123.131C32.836 123.131 33.8696 124.164 33.8696 125.435ZM31.5658 120.422C28.8022 120.422 26.5542 122.671 26.5542 125.435C26.5542 128.199 28.8022 130.448 31.5658 130.448C33.2884 130.448 34.81 129.574 35.7129 128.247C36.2281 127.489 36.5365 126.583 36.5701 125.607C36.572 125.55 36.5788 125.493 36.5788 125.435C36.5788 122.671 34.33 120.422 31.5658 120.422Z" fill="url(#paint7_linear_332_285)"/>
<path d="M111.711 15.3701L113.151 11.6256L116.896 10.1851L113.151 8.74455L111.711 5.00008L110.27 8.74455L106.526 10.1851L110.27 11.6256L111.711 15.3701Z" fill="url(#paint8_linear_332_285)"/>
<path d="M118.469 25.1272L119.909 28.8724L121.349 25.1272L125.094 23.6866L121.349 22.2469L119.909 18.5016L118.469 22.2469L114.724 23.6866L118.469 25.1272Z" fill="url(#paint9_linear_332_285)"/>
<path d="M28.7305 90.0245L30.1719 86.2801L33.9159 84.8395L30.1719 83.399L28.7305 79.6545L27.2905 83.399L23.545 84.8395L27.2905 86.2801L28.7305 90.0245Z" fill="url(#paint10_linear_332_285)"/>
<path d="M35.489 99.7817L36.929 103.527L38.3705 99.7817L42.1143 98.342L38.3705 96.9014L36.929 93.1562L35.489 96.9014L31.7435 98.342L35.489 99.7817Z" fill="url(#paint11_linear_332_285)"/>
<defs>
<linearGradient id="paint0_linear_332_285" x1="31.5662" y1="67.7439" x2="31.5662" y2="146.42" gradientUnits="userSpaceOnUse">
<stop stop-color="#2C3892"/>
<stop offset="1" stop-color="#4AC2C2"/>
</linearGradient>
<linearGradient id="paint1_linear_332_285" x1="97.9444" y1="67.7446" x2="97.9444" y2="146.42" gradientUnits="userSpaceOnUse">
<stop stop-color="#2C3892"/>
<stop offset="1" stop-color="#4AC2C2"/>
</linearGradient>
<linearGradient id="paint2_linear_332_285" x1="47.8913" y1="67.7445" x2="47.8913" y2="146.42" gradientUnits="userSpaceOnUse">
<stop stop-color="#2C3892"/>
<stop offset="1" stop-color="#4AC2C2"/>
</linearGradient>
<linearGradient id="paint3_linear_332_285" x1="55.5658" y1="67.7446" x2="55.5658" y2="146.42" gradientUnits="userSpaceOnUse">
<stop stop-color="#2C3892"/>
<stop offset="1" stop-color="#4AC2C2"/>
</linearGradient>
<linearGradient id="paint4_linear_332_285" x1="90.5919" y1="67.7445" x2="90.5919" y2="146.42" gradientUnits="userSpaceOnUse">
<stop stop-color="#2C3892"/>
<stop offset="1" stop-color="#4AC2C2"/>
</linearGradient>
<linearGradient id="paint5_linear_332_285" x1="57.3005" y1="67.7445" x2="57.3005" y2="146.42" gradientUnits="userSpaceOnUse">
<stop stop-color="#2C3892"/>
<stop offset="1" stop-color="#4AC2C2"/>
</linearGradient>
<linearGradient id="paint6_linear_332_285" x1="73.7066" y1="67.7446" x2="73.7066" y2="146.421" gradientUnits="userSpaceOnUse">
<stop stop-color="#2C3892"/>
<stop offset="1" stop-color="#4AC2C2"/>
</linearGradient>
<linearGradient id="paint7_linear_332_285" x1="31.5665" y1="67.7447" x2="31.5665" y2="146.42" gradientUnits="userSpaceOnUse">
<stop stop-color="#2C3892"/>
<stop offset="1" stop-color="#4AC2C2"/>
</linearGradient>
<linearGradient id="paint8_linear_332_285" x1="111.711" y1="67.7447" x2="111.711" y2="146.42" gradientUnits="userSpaceOnUse">
<stop stop-color="#2C3892"/>
<stop offset="1" stop-color="#4AC2C2"/>
</linearGradient>
<linearGradient id="paint9_linear_332_285" x1="119.909" y1="67.7446" x2="119.909" y2="146.42" gradientUnits="userSpaceOnUse">
<stop stop-color="#2C3892"/>
<stop offset="1" stop-color="#4AC2C2"/>
</linearGradient>
<linearGradient id="paint10_linear_332_285" x1="28.7305" y1="67.7446" x2="28.7305" y2="146.42" gradientUnits="userSpaceOnUse">
<stop stop-color="#2C3892"/>
<stop offset="1" stop-color="#4AC2C2"/>
</linearGradient>
<linearGradient id="paint11_linear_332_285" x1="36.929" y1="67.7446" x2="36.929" y2="146.42" gradientUnits="userSpaceOnUse">
<stop stop-color="#2C3892"/>
<stop offset="1" stop-color="#4AC2C2"/>
</linearGradient>
</defs>
</svg>
