<svg width="144" height="144" viewBox="0 0 144 144" fill="none" xmlns="http://www.w3.org/2000/svg">
<path d="M31.5658 138C37.4099 138 42.3349 133.99 43.734 128.577C43.3758 128.583 43.0236 128.596 42.6592 128.596C42.0862 128.596 41.4981 128.58 40.9109 128.565C39.599 132.469 35.9069 135.291 31.5658 135.291C26.1306 135.291 21.7089 130.869 21.7089 125.435C21.7089 119.999 26.1306 115.577 31.5658 115.577C37.0014 115.577 41.4233 119.999 41.4233 125.435C41.4233 125.582 41.4188 125.729 41.412 125.876C42.3349 125.895 43.2383 125.892 44.1215 125.871C44.1264 125.726 44.1325 125.58 44.1325 125.435C44.1325 118.505 38.495 112.868 31.5658 112.868C24.637 112.868 19 118.505 19 125.435C19 132.363 24.637 138 31.5658 138" fill="url(#paint0_linear_601_70)"/>
<path d="M90.1925 81.5722V82.7444C100.135 76.7573 106.801 65.8582 106.801 53.4301V42.5837C106.801 33.0127 102.908 24.174 96.2347 17.8354C95.6792 18.5607 94.9896 19.1751 94.1991 19.6421C100.443 25.4888 104.091 33.6938 104.091 42.5837V53.4301C104.091 64.752 98.0817 74.6946 89.087 80.2426C89.7162 80.3605 90.1925 80.9098 90.1925 81.5722" fill="url(#paint1_linear_601_70)"/>
<path d="M57.3679 80.9677C47.6903 75.5903 41.1239 65.2645 41.1239 53.4298V42.5835C41.1239 33.1839 45.2737 24.4553 52.2692 18.545C51.6259 17.9011 51.1051 17.1339 50.7456 16.2837C43.0098 22.7037 38.4148 32.2732 38.4148 42.5835V53.4298C38.4148 66.7523 46.0742 78.3186 57.2198 83.9597V81.572C57.2198 81.354 57.2764 81.1508 57.3679 80.9677" fill="url(#paint2_linear_601_70)"/>
<path d="M41.4121 125.876C39.8553 125.844 38.2388 125.753 36.5703 125.607C36.5366 126.583 36.2283 127.489 35.7131 128.247C37.5041 128.417 39.2355 128.52 40.911 128.565C41.4982 128.58 42.0863 128.596 42.6593 128.596C43.0237 128.596 43.3759 128.583 43.7341 128.577C54.9017 128.383 63.258 125.178 68.6325 118.981C74.4226 112.305 75.5947 103.549 75.3985 96.7191H72.6508C72.8378 103.081 71.7967 111.198 66.5862 117.206C61.8014 122.723 54.269 125.622 44.1216 125.871C43.2384 125.892 42.335 125.895 41.4121 125.876" fill="url(#paint3_linear_601_70)"/>
<path d="M86.1896 13.5237C86.1896 11.0956 88.1639 9.11981 90.5911 9.11981C93.02 9.11981 94.995 11.0956 94.995 13.5237C94.995 15.9517 93.02 17.9268 90.5911 17.9268C88.1639 17.9268 86.1896 15.9517 86.1896 13.5237ZM96.2346 17.8352C97.1523 16.6375 97.7046 15.1457 97.7046 13.5237C97.7046 9.60154 94.5133 6.41094 90.5911 6.41094C86.6706 6.41094 83.48 9.60154 83.48 13.5237C83.48 17.445 86.6706 20.6356 90.5911 20.6356C91.9091 20.6356 93.1402 20.2695 94.1991 19.6419C94.9896 19.1749 95.6792 18.5605 96.2346 17.8352Z" fill="url(#paint4_linear_601_70)"/>
<path d="M52.897 13.5237C52.897 11.0956 54.8726 9.11981 57.3009 9.11981C59.7288 9.11981 61.704 11.0956 61.704 13.5237C61.704 15.9517 59.7288 17.9268 57.3009 17.9268C54.8726 17.9268 52.897 15.9517 52.897 13.5237ZM57.3009 20.6356C61.2225 20.6356 64.4131 17.445 64.4131 13.5237C64.4131 9.60154 61.2225 6.41094 57.3009 6.41094C53.3789 6.41094 50.188 9.60154 50.188 13.5237C50.188 14.5019 50.3868 15.4343 50.7458 16.2837C51.1053 17.1339 51.626 17.9011 52.2694 18.545C53.5577 19.8358 55.3374 20.6356 57.3009 20.6356Z" fill="url(#paint5_linear_601_70)"/>
<path d="M71.747 88C71.747 87.2522 71.1404 86.6455 70.3926 86.6455H59.9291V82.9274H87.4836V86.6455H77.0205C76.2727 86.6455 75.6661 87.2522 75.6661 88V94.0104H71.747V88ZM77.0205 96.7192C77.7683 96.7192 78.3749 96.1134 78.3749 95.3648V89.3544H88.8381C89.5859 89.3544 90.1925 88.7485 90.1925 88V82.7443V81.5722C90.1925 80.9097 89.7162 80.3605 89.0871 80.2426C89.0064 80.2279 88.9234 80.2178 88.8381 80.2178H58.5745C58.0451 80.2178 57.5911 80.525 57.3681 80.9679C57.2765 81.151 57.2199 81.3542 57.2199 81.5722V83.9599V88C57.2199 88.7485 57.8265 89.3544 58.5745 89.3544H69.0382V95.3648C69.0382 96.1134 69.6448 96.7192 70.3926 96.7192H72.6508H75.3984H77.0205" fill="url(#paint6_linear_601_70)"/>
<path d="M33.8697 125.435C33.8697 126.705 32.8361 127.739 31.5658 127.739C30.2963 127.739 29.2633 126.705 29.2633 125.435C29.2633 124.164 30.2963 123.131 31.5658 123.131C32.8361 123.131 33.8697 124.164 33.8697 125.435ZM31.5658 120.422C28.8023 120.422 26.5543 122.671 26.5543 125.435C26.5543 128.199 28.8023 130.448 31.5658 130.448C33.2885 130.448 34.81 129.574 35.713 128.247C36.2282 127.489 36.5365 126.583 36.5702 125.607C36.572 125.55 36.5789 125.493 36.5789 125.435C36.5789 122.671 34.3301 120.422 31.5658 120.422Z" fill="url(#paint7_linear_601_70)"/>
<path d="M111.711 15.3701L113.151 11.6256L116.896 10.1851L113.151 8.74455L111.711 5.00008L110.27 8.74455L106.526 10.1851L110.27 11.6256L111.711 15.3701Z" fill="url(#paint8_linear_601_70)"/>
<path d="M118.469 25.1272L119.909 28.8724L121.349 25.1272L125.093 23.6866L121.349 22.2469L119.909 18.5016L118.469 22.2469L114.724 23.6866L118.469 25.1272Z" fill="url(#paint9_linear_601_70)"/>
<path d="M28.7305 90.0247L30.172 86.2802L33.9159 84.8396L30.172 83.3991L28.7305 79.6546L27.2906 83.3991L23.5451 84.8396L27.2906 86.2802L28.7305 90.0247" fill="url(#paint10_linear_601_70)"/>
<path d="M35.489 99.7818L36.9289 103.527L38.3704 99.7818L42.1142 98.3421L38.3704 96.9015L36.9289 93.1563L35.489 96.9015L31.7435 98.3421L35.489 99.7818Z" fill="url(#paint11_linear_601_70)"/>
<defs>
<linearGradient id="paint0_linear_601_70" x1="31.5662" y1="138" x2="31.5662" y2="120.758" gradientUnits="userSpaceOnUse">
<stop stop-color="#5F76E8"/>
<stop offset="1" stop-color="#8971EA"/>
</linearGradient>
<linearGradient id="paint1_linear_601_70" x1="97.944" y1="82.7444" x2="97.9441" y2="38.2138" gradientUnits="userSpaceOnUse">
<stop stop-color="#5F76E8"/>
<stop offset="1" stop-color="#8971EA"/>
</linearGradient>
<linearGradient id="paint2_linear_601_70" x1="47.8914" y1="83.9597" x2="47.8914" y2="37.5308" gradientUnits="userSpaceOnUse">
<stop stop-color="#5F76E8"/>
<stop offset="1" stop-color="#8971EA"/>
</linearGradient>
<linearGradient id="paint3_linear_601_70" x1="55.5658" y1="128.596" x2="55.5658" y2="106.727" gradientUnits="userSpaceOnUse">
<stop stop-color="#5F76E8"/>
<stop offset="1" stop-color="#8971EA"/>
</linearGradient>
<linearGradient id="paint4_linear_601_70" x1="90.5923" y1="20.6356" x2="90.5923" y2="10.8768" gradientUnits="userSpaceOnUse">
<stop stop-color="#5F76E8"/>
<stop offset="1" stop-color="#8971EA"/>
</linearGradient>
<linearGradient id="paint5_linear_601_70" x1="57.3005" y1="20.6356" x2="57.3005" y2="10.8768" gradientUnits="userSpaceOnUse">
<stop stop-color="#5F76E8"/>
<stop offset="1" stop-color="#8971EA"/>
</linearGradient>
<linearGradient id="paint6_linear_601_70" x1="73.7062" y1="96.7192" x2="73.7062" y2="85.3985" gradientUnits="userSpaceOnUse">
<stop stop-color="#5F76E8"/>
<stop offset="1" stop-color="#8971EA"/>
</linearGradient>
<linearGradient id="paint7_linear_601_70" x1="31.5666" y1="130.448" x2="31.5666" y2="123.569" gradientUnits="userSpaceOnUse">
<stop stop-color="#5F76E8"/>
<stop offset="1" stop-color="#8971EA"/>
</linearGradient>
<linearGradient id="paint8_linear_601_70" x1="111.711" y1="15.3701" x2="111.711" y2="8.25579" gradientUnits="userSpaceOnUse">
<stop stop-color="#5F76E8"/>
<stop offset="1" stop-color="#8971EA"/>
</linearGradient>
<linearGradient id="paint9_linear_601_70" x1="119.909" y1="28.8724" x2="119.909" y2="21.7576" gradientUnits="userSpaceOnUse">
<stop stop-color="#5F76E8"/>
<stop offset="1" stop-color="#8971EA"/>
</linearGradient>
<linearGradient id="paint10_linear_601_70" x1="28.7305" y1="90.0247" x2="28.7305" y2="82.9103" gradientUnits="userSpaceOnUse">
<stop stop-color="#5F76E8"/>
<stop offset="1" stop-color="#8971EA"/>
</linearGradient>
<linearGradient id="paint11_linear_601_70" x1="36.9288" y1="103.527" x2="36.9288" y2="96.4122" gradientUnits="userSpaceOnUse">
<stop stop-color="#5F76E8"/>
<stop offset="1" stop-color="#8971EA"/>
</linearGradient>
</defs>
</svg>
