<svg width="435" height="124" viewBox="0 0 435 124" fill="none" xmlns="http://www.w3.org/2000/svg">
<path d="M24.912 61.6L22.536 58.504L31.896 60.808V67H3.672V60.808L14.832 58.648L12.384 61.6V26.392L15.768 26.464L4.176 32.872L0.216 25.312L14.472 15.808H24.912V61.6ZM58.4882 67.936C56.1362 67.936 53.8322 67.648 51.5762 67.072C49.3202 66.496 47.3042 65.632 45.5282 64.48C43.7522 63.328 42.3362 61.888 41.2802 60.16C40.2242 58.384 39.6962 56.368 39.6962 54.112C39.6962 52.48 39.9842 50.92 40.5602 49.432C41.1842 47.944 42.0482 46.6 43.1522 45.4C44.3042 44.2 45.6722 43.192 47.2562 42.376C48.8882 41.512 50.7122 40.864 52.7282 40.432L59.7842 43.96C58.6322 44.296 57.5522 44.728 56.5442 45.256C55.5842 45.736 54.7442 46.336 54.0242 47.056C53.3522 47.776 52.8002 48.592 52.3682 49.504C51.9842 50.368 51.7922 51.328 51.7922 52.384C51.7922 53.68 52.0802 54.832 52.6562 55.84C53.2802 56.848 54.1442 57.664 55.2482 58.288C56.4002 58.864 57.7442 59.152 59.2802 59.152C60.8642 59.152 62.2082 58.864 63.3122 58.288C64.4642 57.712 65.3522 56.92 65.9762 55.912C66.6002 54.904 66.9122 53.824 66.9122 52.672C66.9122 51.184 66.4322 49.96 65.4722 49C64.5602 47.992 63.3362 47.128 61.8002 46.408C60.3122 45.688 58.6562 45.016 56.8322 44.392C55.0082 43.72 53.1842 43 51.3602 42.232C49.5362 41.464 47.8562 40.552 46.3202 39.496C44.8322 38.44 43.6082 37.12 42.6482 35.536C41.7362 33.952 41.2802 31.984 41.2802 29.632C41.2802 26.368 42.1682 23.68 43.9442 21.568C45.7202 19.408 48.0242 17.8 50.8562 16.744C53.7362 15.688 56.7842 15.16 60.0002 15.16C63.1202 15.16 66.0002 15.664 68.6402 16.672C71.3282 17.632 73.4882 19.12 75.1202 21.136C76.8002 23.104 77.6402 25.576 77.6402 28.552C77.6402 30.136 77.3762 31.576 76.8482 32.872C76.3202 34.12 75.5522 35.248 74.5442 36.256C73.5362 37.216 72.3122 38.056 70.8722 38.776C69.4802 39.448 67.8722 40 66.0482 40.432L57.1922 36.76C58.5362 36.664 59.7362 36.424 60.7922 36.04C61.8482 35.608 62.7362 35.08 63.4562 34.456C64.2242 33.832 64.7762 33.112 65.1122 32.296C65.4962 31.432 65.6882 30.52 65.6882 29.56C65.6882 28.312 65.4242 27.28 64.8962 26.464C64.3682 25.648 63.6242 25.024 62.6642 24.592C61.7522 24.112 60.6962 23.872 59.4962 23.872C58.3922 23.872 57.3602 24.088 56.4002 24.52C55.4882 24.904 54.7442 25.48 54.1682 26.248C53.5922 27.016 53.3042 27.952 53.3042 29.056C53.3042 30.496 53.7602 31.72 54.6722 32.728C55.6322 33.688 56.8802 34.528 58.4162 35.248C59.9522 35.92 61.6322 36.568 63.4562 37.192C65.2802 37.816 67.1042 38.512 68.9282 39.28C70.7522 40.048 72.4322 40.984 73.9682 42.088C75.5042 43.192 76.7282 44.56 77.6402 46.192C78.6002 47.776 79.0802 49.744 79.0802 52.096C79.0802 54.736 78.4802 57.064 77.2802 59.08C76.0802 61.048 74.4962 62.704 72.5282 64.048C70.5602 65.344 68.3522 66.328 65.9042 67C63.5042 67.624 61.0322 67.936 58.4882 67.936ZM109.289 67.936C104.537 67.936 100.697 66.976 97.7687 65.056C94.8407 63.088 92.7047 60.184 91.3607 56.344C90.0647 52.504 89.4167 47.728 89.4167 42.016C89.4167 36.112 90.0887 31.168 91.4327 27.184C92.7767 23.2 94.9607 20.2 97.9847 18.184C101.057 16.168 105.089 15.16 110.081 15.16C115.121 15.16 119.057 16.12 121.889 18.04C124.721 19.96 126.713 22.816 127.865 26.608C129.065 30.4 129.665 35.128 129.665 40.792C129.665 46.696 128.969 51.664 127.577 55.696C126.185 59.728 124.001 62.776 121.025 64.84C118.049 66.904 114.137 67.936 109.289 67.936ZM109.505 58.576C111.473 58.576 112.961 57.952 113.969 56.704C115.025 55.408 115.721 53.488 116.057 50.944C116.441 48.352 116.657 45.112 116.705 41.224C116.705 37.336 116.513 34.168 116.129 31.72C115.793 29.272 115.121 27.472 114.113 26.32C113.105 25.12 111.641 24.52 109.721 24.52C107.753 24.52 106.217 25.168 105.113 26.464C104.057 27.712 103.337 29.608 102.953 32.152C102.569 34.648 102.377 37.816 102.377 41.656C102.377 45.448 102.545 48.592 102.881 51.088C103.265 53.584 103.985 55.456 105.041 56.704C106.097 57.952 107.585 58.576 109.505 58.576ZM160.471 67.936C155.719 67.936 151.879 66.976 148.951 65.056C146.023 63.088 143.887 60.184 142.543 56.344C141.247 52.504 140.599 47.728 140.599 42.016C140.599 36.112 141.271 31.168 142.615 27.184C143.959 23.2 146.143 20.2 149.167 18.184C152.239 16.168 156.271 15.16 161.263 15.16C166.303 15.16 170.239 16.12 173.071 18.04C175.903 19.96 177.895 22.816 179.047 26.608C180.247 30.4 180.847 35.128 180.847 40.792C180.847 46.696 180.151 51.664 178.759 55.696C177.367 59.728 175.183 62.776 172.207 64.84C169.231 66.904 165.319 67.936 160.471 67.936ZM160.687 58.576C162.655 58.576 164.143 57.952 165.151 56.704C166.207 55.408 166.903 53.488 167.239 50.944C167.623 48.352 167.839 45.112 167.887 41.224C167.887 37.336 167.695 34.168 167.311 31.72C166.975 29.272 166.303 27.472 165.295 26.32C164.287 25.12 162.823 24.52 160.903 24.52C158.935 24.52 157.399 25.168 156.295 26.464C155.239 27.712 154.519 29.608 154.135 32.152C153.751 34.648 153.559 37.816 153.559 41.656C153.559 45.448 153.727 48.592 154.063 51.088C154.447 53.584 155.167 55.456 156.223 56.704C157.279 57.952 158.767 58.576 160.687 58.576ZM205.748 37.48L203.804 39.352V24.16H213.02V39.352L211.148 37.48H225.692V46.048H211.148L213.02 44.176V59.368H203.804V44.176L205.748 46.048H191.132V37.48H205.748Z" fill="url(#paint0_linear_419_45)"/>
<path d="M20.184 102.472L17.832 103.096L18.216 102.448V116.704L17.832 116.176L20.184 116.728V118H13.968V116.728L16.368 116.176L15.936 116.704V103.888L16.32 103.912L11.208 113.632L9.624 113.728L4.68 103.864L5.04 103.84V116.704L4.728 116.224L7.032 116.728V118H1.08V116.728L3.408 116.176L3.048 116.704V102.448L3.408 103.072L1.08 102.592V101.32L6.048 101.2L10.848 111.28H10.512L15.48 101.32L20.184 101.2V102.472ZM28.7068 118.24C27.6028 118.24 26.6268 118 25.7788 117.52C24.9468 117.024 24.2908 116.304 23.8108 115.36C23.3468 114.4 23.1148 113.232 23.1148 111.856C23.1148 110.448 23.3548 109.24 23.8348 108.232C24.3308 107.208 25.0268 106.424 25.9228 105.88C26.8348 105.32 27.8988 105.04 29.1148 105.04C30.2828 105.04 31.2348 105.28 31.9708 105.76C32.7228 106.24 33.2748 106.904 33.6268 107.752C33.9948 108.584 34.1788 109.536 34.1788 110.608C34.1788 110.816 34.1708 111.024 34.1548 111.232C34.1388 111.44 34.1148 111.68 34.0828 111.952H24.9868V110.296H31.9228L31.7068 110.44C31.7228 109.784 31.6428 109.184 31.4668 108.64C31.2908 108.096 30.9948 107.664 30.5788 107.344C30.1628 107.008 29.6108 106.84 28.9228 106.84C28.1708 106.84 27.5468 107.048 27.0508 107.464C26.5548 107.864 26.1868 108.416 25.9468 109.12C25.7068 109.824 25.5868 110.632 25.5868 111.544C25.5868 112.52 25.7228 113.376 25.9948 114.112C26.2668 114.832 26.6748 115.4 27.2188 115.816C27.7788 116.216 28.4668 116.416 29.2828 116.416C29.8588 116.416 30.4828 116.304 31.1548 116.08C31.8428 115.856 32.5468 115.52 33.2668 115.072L34.1068 116.392C33.2108 117.016 32.2988 117.48 31.3708 117.784C30.4588 118.088 29.5708 118.24 28.7068 118.24ZM42.1678 118.24C41.2718 118.24 40.4638 118 39.7438 117.52C39.0238 117.024 38.4558 116.304 38.0398 115.36C37.6398 114.4 37.4398 113.232 37.4398 111.856C37.4398 109.584 38.0158 107.88 39.1678 106.744C40.3198 105.608 41.9198 105.04 43.9678 105.04C44.3678 105.04 44.7758 105.072 45.1918 105.136C45.6238 105.184 46.0638 105.264 46.5118 105.376L46.0318 105.64V101.104L46.2718 101.392L44.1358 100.864V99.592L48.4318 99.424V116.584L48.1198 116.2L50.2318 116.704V117.976L46.5838 118.144L46.2478 116.08L46.5118 116.176C45.7918 116.864 45.0718 117.384 44.3518 117.736C43.6478 118.072 42.9198 118.24 42.1678 118.24ZM43.0558 116.44C43.5678 116.44 44.0958 116.304 44.6398 116.032C45.1998 115.76 45.7678 115.352 46.3438 114.808L46.0318 115.576V106.624L46.3438 107.2C45.4478 106.928 44.6318 106.792 43.8958 106.792C42.5838 106.792 41.5918 107.224 40.9198 108.088C40.2638 108.936 39.9358 110.12 39.9358 111.64C39.9358 112.632 40.0638 113.488 40.3198 114.208C40.5918 114.928 40.9598 115.48 41.4238 115.864C41.9038 116.248 42.4478 116.44 43.0558 116.44ZM56.9441 116.536L56.7281 116.248L58.7441 116.728V118H52.7681V116.728L54.7841 116.248L54.5441 116.536V106.864L54.7601 107.08L52.7681 106.624V105.352L56.9441 105.208V116.536ZM55.6241 102.856C55.1921 102.856 54.8321 102.72 54.5441 102.448C54.2721 102.176 54.1361 101.792 54.1361 101.296C54.1361 100.784 54.2801 100.4 54.5681 100.144C54.8561 99.872 55.2161 99.736 55.6481 99.736C56.0961 99.736 56.4561 99.872 56.7281 100.144C57.0161 100.4 57.1601 100.784 57.1601 101.296C57.1601 101.808 57.0081 102.2 56.7041 102.472C56.4161 102.728 56.0561 102.856 55.6241 102.856ZM66.9686 118.24C65.9286 118.24 64.9846 117.984 64.1366 117.472C63.2886 116.96 62.6166 116.224 62.1206 115.264C61.6406 114.304 61.4006 113.144 61.4006 111.784C61.4006 110.584 61.5686 109.56 61.9046 108.712C62.2566 107.864 62.7206 107.168 63.2966 106.624C63.8886 106.08 64.5526 105.68 65.2886 105.424C66.0246 105.168 66.7926 105.04 67.5926 105.04C68.2806 105.04 68.9926 105.136 69.7286 105.328C70.4806 105.504 71.1206 105.728 71.6486 106L71.5526 109.192H69.9686L69.6326 107.032L69.8486 107.224C69.5126 107.064 69.1366 106.952 68.7206 106.888C68.3046 106.824 67.9286 106.792 67.5926 106.792C66.8086 106.792 66.1366 106.992 65.5766 107.392C65.0326 107.776 64.6166 108.336 64.3286 109.072C64.0406 109.792 63.8966 110.648 63.8966 111.64C63.8966 112.664 64.0486 113.536 64.3526 114.256C64.6726 114.976 65.1046 115.52 65.6486 115.888C66.1926 116.24 66.8166 116.416 67.5206 116.416C68.0646 116.416 68.6486 116.304 69.2726 116.08C69.8966 115.856 70.5446 115.512 71.2166 115.048L72.0566 116.32C71.1926 116.976 70.3366 117.464 69.4886 117.784C68.6406 118.088 67.8006 118.24 66.9686 118.24ZM84.5629 116.704L84.2029 116.2L86.3629 116.704V117.976L82.7149 118.144L82.3789 115.84L82.5709 115.912C81.8829 116.696 81.1389 117.28 80.3389 117.664C79.5389 118.048 78.7629 118.24 78.0109 118.24C77.0829 118.24 76.2829 117.936 75.6109 117.328C74.9549 116.72 74.6269 115.808 74.6269 114.592C74.6269 113.664 74.8269 112.944 75.2269 112.432C75.6269 111.904 76.1869 111.528 76.9069 111.304C77.6269 111.08 78.4749 110.968 79.4509 110.968H82.3789L82.1629 111.232V109.168C82.1629 108.336 81.9469 107.744 81.5149 107.392C81.0829 107.024 80.4829 106.84 79.7149 106.84C79.3149 106.84 78.8909 106.88 78.4429 106.96C78.0109 107.04 77.5389 107.168 77.0269 107.344L77.3629 107.008L77.0989 109.144H75.5149L75.3229 105.952C76.2989 105.648 77.1949 105.424 78.0109 105.28C78.8429 105.12 79.6109 105.04 80.3149 105.04C81.6589 105.04 82.6989 105.336 83.4349 105.928C84.1869 106.52 84.5629 107.456 84.5629 108.736V116.704ZM77.0509 114.424C77.0509 115.112 77.2189 115.624 77.5549 115.96C77.8909 116.28 78.3149 116.44 78.8269 116.44C79.3389 116.44 79.8989 116.28 80.5069 115.96C81.1309 115.624 81.7309 115.184 82.3069 114.64L82.1629 115.24V112.264L82.3789 112.504H79.8349C78.7789 112.504 78.0509 112.664 77.6509 112.984C77.2509 113.304 77.0509 113.784 77.0509 114.424ZM92.6696 116.536L92.4536 116.248L94.4456 116.728V118H88.4696V116.728L90.4856 116.248L90.2696 116.536V101.104L90.4616 101.32L88.4696 100.864V99.592L92.6696 99.424V116.536ZM109.118 111.736H106.982L107.51 111.328V116.704L107.126 116.2L110.03 116.728V118H103.094V116.728L105.47 116.176L105.062 116.704V102.52L105.518 103.072L103.094 102.592V101.32L107.558 101.2H110.102C111.366 101.2 112.406 101.416 113.222 101.848C114.038 102.28 114.646 102.872 115.046 103.624C115.446 104.376 115.646 105.24 115.646 106.216C115.646 107.288 115.406 108.24 114.926 109.072C114.446 109.904 113.718 110.56 112.742 111.04C111.782 111.504 110.574 111.736 109.118 111.736ZM109.718 103H107.102L107.51 102.568V110.344L106.982 109.936H109.118C110.414 109.936 111.406 109.608 112.094 108.952C112.798 108.28 113.15 107.384 113.15 106.264C113.15 105.256 112.854 104.464 112.262 103.888C111.686 103.296 110.838 103 109.718 103ZM118.281 118V116.728L120.345 116.248L120.057 116.656V106.696L120.369 107.128L118.281 106.624V105.352L121.929 105.184L122.241 107.512L121.929 107.416C122.649 106.664 123.353 106.08 124.041 105.664C124.745 105.248 125.497 105.04 126.297 105.04C126.809 105.04 127.353 105.12 127.929 105.28L127.761 109.096H126.297L125.985 106.552L126.249 107.056C126.137 107.024 126.017 107 125.889 106.984C125.777 106.968 125.665 106.96 125.553 106.96C124.961 106.96 124.377 107.144 123.801 107.512C123.241 107.864 122.721 108.32 122.241 108.88L122.457 108.184V116.656L122.145 116.248L124.689 116.728V118H118.281ZM136.033 105.04C137.825 105.04 139.233 105.6 140.257 106.72C141.281 107.824 141.793 109.392 141.793 111.424C141.793 112.8 141.545 114 141.049 115.024C140.553 116.048 139.841 116.84 138.913 117.4C138.001 117.96 136.897 118.24 135.601 118.24C133.825 118.24 132.441 117.696 131.449 116.608C130.457 115.504 129.961 113.936 129.961 111.904C129.961 110.48 130.201 109.256 130.681 108.232C131.161 107.208 131.849 106.424 132.745 105.88C133.657 105.32 134.753 105.04 136.033 105.04ZM135.913 106.792C134.777 106.792 133.913 107.224 133.321 108.088C132.745 108.936 132.457 110.168 132.457 111.784C132.457 113.368 132.737 114.552 133.297 115.336C133.857 116.104 134.673 116.488 135.745 116.488C136.529 116.488 137.177 116.296 137.689 115.912C138.217 115.528 138.609 114.968 138.865 114.232C139.137 113.48 139.273 112.584 139.273 111.544C139.273 109.96 138.985 108.776 138.409 107.992C137.833 107.192 137.001 106.792 135.913 106.792ZM144.845 118V116.728L146.909 116.248L146.645 116.56V106.72L146.909 107.032H144.797V105.712L146.957 105.328L146.645 105.736V103.888C146.645 102.32 147.053 101.16 147.869 100.408C148.685 99.656 149.773 99.28 151.133 99.28C151.565 99.28 151.997 99.32 152.429 99.4C152.877 99.464 153.357 99.576 153.869 99.736L153.485 101.368C153.149 101.256 152.813 101.168 152.477 101.104C152.141 101.04 151.821 101.008 151.517 101.008C150.781 101.008 150.181 101.224 149.717 101.656C149.269 102.072 149.045 102.744 149.045 103.672V105.736L148.685 105.376H152.285L152.213 107.032H148.757L149.045 106.72V116.536L148.781 116.248L151.205 116.728V118H144.845ZM160.149 118.24C159.045 118.24 158.069 118 157.221 117.52C156.389 117.024 155.733 116.304 155.253 115.36C154.789 114.4 154.557 113.232 154.557 111.856C154.557 110.448 154.797 109.24 155.277 108.232C155.773 107.208 156.469 106.424 157.365 105.88C158.277 105.32 159.341 105.04 160.557 105.04C161.725 105.04 162.677 105.28 163.413 105.76C164.165 106.24 164.717 106.904 165.069 107.752C165.437 108.584 165.621 109.536 165.621 110.608C165.621 110.816 165.613 111.024 165.597 111.232C165.581 111.44 165.557 111.68 165.525 111.952H156.429V110.296H163.365L163.149 110.44C163.165 109.784 163.085 109.184 162.909 108.64C162.733 108.096 162.437 107.664 162.021 107.344C161.605 107.008 161.053 106.84 160.365 106.84C159.613 106.84 158.989 107.048 158.493 107.464C157.997 107.864 157.629 108.416 157.389 109.12C157.149 109.824 157.029 110.632 157.029 111.544C157.029 112.52 157.165 113.376 157.437 114.112C157.709 114.832 158.117 115.4 158.661 115.816C159.221 116.216 159.909 116.416 160.725 116.416C161.301 116.416 161.925 116.304 162.597 116.08C163.285 115.856 163.989 115.52 164.709 115.072L165.549 116.392C164.653 117.016 163.741 117.48 162.813 117.784C161.901 118.088 161.013 118.24 160.149 118.24ZM171.546 108.4C171.546 108.864 171.706 109.232 172.026 109.504C172.346 109.76 172.762 109.976 173.274 110.152C173.786 110.328 174.33 110.504 174.906 110.68C175.498 110.856 176.05 111.08 176.562 111.352C177.074 111.624 177.49 111.992 177.81 112.456C178.146 112.904 178.314 113.496 178.314 114.232C178.314 115.096 178.074 115.824 177.594 116.416C177.13 117.008 176.49 117.464 175.674 117.784C174.858 118.088 173.946 118.24 172.938 118.24C172.346 118.24 171.722 118.192 171.066 118.096C170.41 118 169.738 117.856 169.05 117.664L169.218 114.28H170.73L170.994 116.56L170.754 116.272C171.106 116.368 171.482 116.448 171.882 116.512C172.298 116.56 172.674 116.584 173.01 116.584C173.506 116.584 173.97 116.512 174.402 116.368C174.85 116.224 175.21 116.008 175.482 115.72C175.77 115.416 175.914 115.048 175.914 114.616C175.914 114.136 175.746 113.76 175.41 113.488C175.09 113.2 174.674 112.968 174.162 112.792C173.65 112.616 173.106 112.44 172.53 112.264C171.97 112.088 171.434 111.864 170.922 111.592C170.41 111.32 169.994 110.96 169.674 110.512C169.354 110.064 169.194 109.464 169.194 108.712C169.194 107.864 169.41 107.168 169.842 106.624C170.274 106.08 170.85 105.68 171.57 105.424C172.29 105.168 173.058 105.04 173.874 105.04C174.434 105.04 175.05 105.096 175.722 105.208C176.41 105.32 177.114 105.488 177.834 105.712L177.714 108.616H176.178L175.818 106.672L176.154 107.056C175.354 106.816 174.618 106.696 173.946 106.696C173.242 106.696 172.666 106.848 172.218 107.152C171.77 107.456 171.546 107.872 171.546 108.4ZM184.23 108.4C184.23 108.864 184.39 109.232 184.71 109.504C185.03 109.76 185.446 109.976 185.958 110.152C186.47 110.328 187.014 110.504 187.59 110.68C188.182 110.856 188.734 111.08 189.246 111.352C189.758 111.624 190.174 111.992 190.494 112.456C190.83 112.904 190.998 113.496 190.998 114.232C190.998 115.096 190.758 115.824 190.278 116.416C189.814 117.008 189.174 117.464 188.358 117.784C187.542 118.088 186.63 118.24 185.622 118.24C185.03 118.24 184.406 118.192 183.75 118.096C183.094 118 182.422 117.856 181.734 117.664L181.902 114.28H183.414L183.678 116.56L183.438 116.272C183.79 116.368 184.166 116.448 184.566 116.512C184.982 116.56 185.358 116.584 185.694 116.584C186.19 116.584 186.654 116.512 187.086 116.368C187.534 116.224 187.894 116.008 188.166 115.72C188.454 115.416 188.598 115.048 188.598 114.616C188.598 114.136 188.43 113.76 188.094 113.488C187.774 113.2 187.358 112.968 186.846 112.792C186.334 112.616 185.79 112.44 185.214 112.264C184.654 112.088 184.118 111.864 183.606 111.592C183.094 111.32 182.678 110.96 182.358 110.512C182.038 110.064 181.878 109.464 181.878 108.712C181.878 107.864 182.094 107.168 182.526 106.624C182.958 106.08 183.534 105.68 184.254 105.424C184.974 105.168 185.742 105.04 186.558 105.04C187.118 105.04 187.734 105.096 188.406 105.208C189.094 105.32 189.798 105.488 190.518 105.712L190.398 108.616H188.862L188.502 106.672L188.838 107.056C188.038 106.816 187.302 106.696 186.63 106.696C185.926 106.696 185.35 106.848 184.902 107.152C184.454 107.456 184.23 107.872 184.23 108.4ZM198.235 116.536L198.019 116.248L200.035 116.728V118H194.059V116.728L196.075 116.248L195.835 116.536V106.864L196.051 107.08L194.059 106.624V105.352L198.235 105.208V116.536ZM196.915 102.856C196.483 102.856 196.123 102.72 195.835 102.448C195.563 102.176 195.427 101.792 195.427 101.296C195.427 100.784 195.571 100.4 195.859 100.144C196.147 99.872 196.507 99.736 196.939 99.736C197.387 99.736 197.747 99.872 198.019 100.144C198.307 100.4 198.451 100.784 198.451 101.296C198.451 101.808 198.299 102.2 197.995 102.472C197.707 102.728 197.347 102.856 196.915 102.856ZM208.811 105.04C210.603 105.04 212.011 105.6 213.035 106.72C214.059 107.824 214.571 109.392 214.571 111.424C214.571 112.8 214.323 114 213.827 115.024C213.331 116.048 212.619 116.84 211.691 117.4C210.779 117.96 209.675 118.24 208.379 118.24C206.603 118.24 205.219 117.696 204.227 116.608C203.235 115.504 202.739 113.936 202.739 111.904C202.739 110.48 202.979 109.256 203.459 108.232C203.939 107.208 204.627 106.424 205.523 105.88C206.435 105.32 207.531 105.04 208.811 105.04ZM208.691 106.792C207.555 106.792 206.691 107.224 206.099 108.088C205.523 108.936 205.235 110.168 205.235 111.784C205.235 113.368 205.515 114.552 206.075 115.336C206.635 116.104 207.451 116.488 208.523 116.488C209.307 116.488 209.955 116.296 210.467 115.912C210.995 115.528 211.387 114.968 211.643 114.232C211.915 113.48 212.051 112.584 212.051 111.544C212.051 109.96 211.763 108.776 211.187 107.992C210.611 107.192 209.779 106.792 208.691 106.792ZM217.599 118V116.728L219.711 116.224L219.375 116.632V106.696L219.711 107.128L217.599 106.624V105.352L221.247 105.184L221.559 107.512L221.247 107.392C222.031 106.592 222.855 106 223.719 105.616C224.599 105.232 225.431 105.04 226.215 105.04C227.287 105.04 228.175 105.368 228.879 106.024C229.583 106.68 229.927 107.696 229.911 109.072V116.632L229.647 116.248L231.687 116.728V118H225.831V116.728L227.823 116.248L227.511 116.656V109.576C227.511 108.648 227.303 107.968 226.887 107.536C226.471 107.104 225.919 106.888 225.231 106.888C224.687 106.888 224.095 107.04 223.455 107.344C222.831 107.632 222.215 108.08 221.607 108.688L221.775 108.256V116.656L221.511 116.272L223.455 116.728V118H217.599ZM244.257 116.704L243.897 116.2L246.057 116.704V117.976L242.409 118.144L242.073 115.84L242.265 115.912C241.577 116.696 240.833 117.28 240.033 117.664C239.233 118.048 238.457 118.24 237.705 118.24C236.777 118.24 235.977 117.936 235.305 117.328C234.649 116.72 234.321 115.808 234.321 114.592C234.321 113.664 234.521 112.944 234.921 112.432C235.321 111.904 235.881 111.528 236.601 111.304C237.321 111.08 238.169 110.968 239.145 110.968H242.073L241.857 111.232V109.168C241.857 108.336 241.641 107.744 241.209 107.392C240.777 107.024 240.177 106.84 239.409 106.84C239.009 106.84 238.585 106.88 238.137 106.96C237.705 107.04 237.233 107.168 236.721 107.344L237.057 107.008L236.793 109.144H235.209L235.017 105.952C235.993 105.648 236.889 105.424 237.705 105.28C238.537 105.12 239.305 105.04 240.009 105.04C241.353 105.04 242.393 105.336 243.129 105.928C243.881 106.52 244.257 107.456 244.257 108.736V116.704ZM236.745 114.424C236.745 115.112 236.913 115.624 237.249 115.96C237.585 116.28 238.009 116.44 238.521 116.44C239.033 116.44 239.593 116.28 240.201 115.96C240.825 115.624 241.425 115.184 242.001 114.64L241.857 115.24V112.264L242.073 112.504H239.529C238.473 112.504 237.745 112.664 237.345 112.984C236.945 113.304 236.745 113.784 236.745 114.424ZM252.363 116.536L252.147 116.248L254.139 116.728V118H248.163V116.728L250.179 116.248L249.963 116.536V101.104L250.155 101.32L248.163 100.864V99.592L252.363 99.424V116.536ZM259.563 108.4C259.563 108.864 259.723 109.232 260.043 109.504C260.363 109.76 260.779 109.976 261.291 110.152C261.803 110.328 262.347 110.504 262.923 110.68C263.515 110.856 264.067 111.08 264.579 111.352C265.091 111.624 265.507 111.992 265.827 112.456C266.163 112.904 266.331 113.496 266.331 114.232C266.331 115.096 266.091 115.824 265.611 116.416C265.147 117.008 264.507 117.464 263.691 117.784C262.875 118.088 261.963 118.24 260.955 118.24C260.363 118.24 259.739 118.192 259.083 118.096C258.427 118 257.755 117.856 257.067 117.664L257.235 114.28H258.747L259.011 116.56L258.771 116.272C259.123 116.368 259.499 116.448 259.899 116.512C260.315 116.56 260.691 116.584 261.027 116.584C261.523 116.584 261.987 116.512 262.419 116.368C262.867 116.224 263.227 116.008 263.499 115.72C263.787 115.416 263.931 115.048 263.931 114.616C263.931 114.136 263.763 113.76 263.427 113.488C263.107 113.2 262.691 112.968 262.179 112.792C261.667 112.616 261.123 112.44 260.547 112.264C259.987 112.088 259.451 111.864 258.939 111.592C258.427 111.32 258.011 110.96 257.691 110.512C257.371 110.064 257.211 109.464 257.211 108.712C257.211 107.864 257.427 107.168 257.859 106.624C258.291 106.08 258.867 105.68 259.587 105.424C260.307 105.168 261.075 105.04 261.891 105.04C262.451 105.04 263.067 105.096 263.739 105.208C264.427 105.32 265.131 105.488 265.851 105.712L265.731 108.616H264.195L263.835 106.672L264.171 107.056C263.371 106.816 262.635 106.696 261.963 106.696C261.259 106.696 260.683 106.848 260.235 107.152C259.787 107.456 259.563 107.872 259.563 108.4Z" fill="#388186"/>
<defs>
<linearGradient id="paint0_linear_419_45" x1="114" y1="0" x2="114" y2="86" gradientUnits="userSpaceOnUse">
<stop stop-color="#2C3892"/>
<stop offset="1" stop-color="#4AC2C2"/>
</linearGradient>
</defs>
</svg>
