<svg width="256" height="256" viewBox="0 0 256 256" fill="none" xmlns="http://www.w3.org/2000/svg">
<path fill-rule="evenodd" clip-rule="evenodd" d="M160.089 3.794C142.438 -0.638111 124.038 -1.19432 106.152 2.16365L129.402 126L255.345 122.226C254.8 104.036 250.321 86.1803 242.217 69.8864C234.112 53.5925 222.575 39.2475 208.397 27.8382C194.22 16.4289 177.739 8.22611 160.089 3.794ZM232.596 196.78C245.273 176.666 252 153.375 252 129.598H126L99.3073 6.45825C76.0708 11.4952 54.7335 23.0039 37.7611 39.6546C20.7887 56.3052 8.87381 77.4183 3.39318 100.554C-2.08746 123.69 -0.910147 147.905 6.78908 170.4C14.4883 192.895 28.3952 212.753 46.9029 227.678C65.4105 242.604 87.7636 251.988 111.379 254.747C134.995 257.506 158.909 253.527 180.359 243.27C201.809 233.012 219.918 216.895 232.596 196.78Z" fill="url(#paint0_linear_601_315)"/>
<defs>
<linearGradient id="paint0_linear_601_315" x1="127.673" y1="1.94995e-08" x2="128" y2="180" gradientUnits="userSpaceOnUse">
<stop stop-color="#D7E1EC"/>
<stop offset="1" stop-color="white"/>
</linearGradient>
</defs>
</svg>
