<svg xmlns="http://www.w3.org/2000/svg" xmlns:xlink="http://www.w3.org/1999/xlink" width="150" zoomAndPan="magnify" viewBox="0 0 112.5 30.000001" height="40" preserveAspectRatio="xMidYMid meet" version="1.0"><defs><g/><clipPath id="id1"><path d="M 9 4 L 25.371094 4 L 25.371094 22 L 9 22 Z M 9 4 " clip-rule="nonzero"/></clipPath><clipPath id="id2"><path d="M 29 20 L 110.445312 20 L 110.445312 23 L 29 23 Z M 29 20 " clip-rule="nonzero"/></clipPath></defs><path fill="#ffffff" d="M 24.695312 19.507812 C 24.796875 22.015625 24.085938 24.109375 22.511719 25.28125 C 19.082031 27.835938 12.855469 25.035156 8.609375 19.035156 C 4.359375 13.03125 3.695312 6.097656 7.125 3.546875 C 8.699219 2.375 10.867188 2.332031 13.15625 3.210938 C 10.222656 1.765625 7.375 1.613281 5.378906 3.097656 C 1.589844 5.917969 2.324219 13.582031 7.019531 20.214844 C 11.714844 26.851562 18.597656 29.941406 22.386719 27.121094 C 24.378906 25.640625 25.121094 22.816406 24.695312 19.507812 " fill-opacity="1" fill-rule="nonzero"/><path fill="#ffffff" d="M 13.484375 5.585938 C 13.703125 5.023438 14.148438 4.574219 14.699219 4.351562 C 12.40625 3.269531 10.191406 3.175781 8.632812 4.335938 C 7.035156 5.523438 6.441406 7.785156 6.785156 10.433594 C 6.703125 8.425781 7.273438 6.746094 8.535156 5.808594 C 9.820312 4.851562 11.601562 4.835938 13.484375 5.585938 " fill-opacity="1" fill-rule="nonzero"/><path fill="#ffffff" d="M 23.738281 17.085938 L 22.425781 17.085938 C 22.914062 19.742188 22.414062 22.042969 20.847656 23.207031 C 19.589844 24.148438 17.855469 24.179688 16.019531 23.480469 C 18.371094 24.632812 20.648438 24.757812 22.246094 23.570312 C 23.925781 22.320312 24.492188 19.886719 24.03125 17.0625 C 23.933594 17.074219 23.835938 17.085938 23.738281 17.085938 " fill-opacity="1" fill-rule="nonzero"/><g clip-path="url(#id1)"><path fill="#ffffff" d="M 23.738281 9.339844 L 20.878906 9.339844 L 20.878906 6.414062 C 20.878906 5.5 20.152344 4.753906 19.261719 4.753906 L 15.484375 4.753906 C 14.59375 4.753906 13.863281 5.5 13.863281 6.414062 L 13.863281 9.339844 L 11.007812 9.339844 C 10.117188 9.339844 9.390625 10.085938 9.390625 11 L 9.390625 14.871094 C 9.390625 15.785156 10.117188 16.53125 11.007812 16.53125 L 13.863281 16.53125 L 13.863281 19.460938 C 13.863281 20.371094 14.59375 21.121094 15.484375 21.121094 L 19.261719 21.121094 C 20.152344 21.121094 20.878906 20.371094 20.878906 19.460938 L 20.878906 16.53125 L 23.738281 16.53125 C 24.625 16.53125 25.355469 15.785156 25.355469 14.871094 L 25.355469 11 C 25.355469 10.085938 24.625 9.339844 23.738281 9.339844 " fill-opacity="1" fill-rule="nonzero"/></g><g clip-path="url(#id2)"><path stroke-linecap="butt" transform="matrix(2.281126, -0.000000000000000117, 0.000000000000000116, 2.26636, 30.848319, 21.595333)" fill="none" stroke-linejoin="miter" d="M -0.000290352 -0.000698332 L 34.779 -0.000698332 " stroke="#ffffff" stroke-width="1" stroke-opacity="1" stroke-miterlimit="4"/></g><g fill="#ffffff" fill-opacity="1"><g transform="translate(30.848319, 16.625805)"><g><path d="M 7.59375 -4.578125 L 8.96875 -4.578125 L 8.96875 -1.140625 C 8.488281 -0.773438 7.921875 -0.484375 7.265625 -0.265625 C 6.617188 -0.046875 5.976562 0.0625 5.34375 0.0625 C 3.96875 0.0625 2.804688 -0.390625 1.859375 -1.296875 C 0.921875 -2.203125 0.453125 -3.316406 0.453125 -4.640625 C 0.453125 -5.972656 0.929688 -7.085938 1.890625 -7.984375 C 2.847656 -8.890625 4.03125 -9.34375 5.4375 -9.34375 C 6.09375 -9.34375 6.738281 -9.222656 7.375 -8.984375 C 8.007812 -8.753906 8.554688 -8.441406 9.015625 -8.046875 L 8.125 -6.890625 C 7.363281 -7.597656 6.46875 -7.953125 5.4375 -7.953125 C 4.488281 -7.953125 3.6875 -7.628906 3.03125 -6.984375 C 2.375 -6.347656 2.046875 -5.570312 2.046875 -4.65625 C 2.046875 -3.71875 2.375 -2.929688 3.03125 -2.296875 C 3.695312 -1.660156 4.503906 -1.34375 5.453125 -1.34375 C 6.171875 -1.34375 6.882812 -1.554688 7.59375 -1.984375 Z M 7.59375 -4.578125 "/></g></g></g><g fill="#ffffff" fill-opacity="1"><g transform="translate(40.796578, 16.625805)"><g><path d="M 4.046875 -7.125 C 5.253906 -7.125 6.128906 -6.757812 6.671875 -6.03125 C 7.222656 -5.300781 7.453125 -4.273438 7.359375 -2.953125 L 2.015625 -2.953125 C 2.128906 -2.398438 2.378906 -1.96875 2.765625 -1.65625 C 3.160156 -1.34375 3.640625 -1.1875 4.203125 -1.1875 C 5.003906 -1.1875 5.671875 -1.460938 6.203125 -2.015625 L 7 -1.140625 C 6.28125 -0.347656 5.304688 0.046875 4.078125 0.046875 C 2.992188 0.046875 2.117188 -0.28125 1.453125 -0.9375 C 0.796875 -1.59375 0.46875 -2.453125 0.46875 -3.515625 C 0.46875 -4.585938 0.796875 -5.453125 1.453125 -6.109375 C 2.117188 -6.773438 2.984375 -7.113281 4.046875 -7.125 Z M 1.984375 -4.0625 L 6.03125 -4.0625 C 6 -4.632812 5.804688 -5.082031 5.453125 -5.40625 C 5.097656 -5.738281 4.632812 -5.90625 4.0625 -5.90625 C 3.5 -5.90625 3.03125 -5.738281 2.65625 -5.40625 C 2.289062 -5.082031 2.066406 -4.632812 1.984375 -4.0625 Z M 1.984375 -4.0625 "/></g></g></g><g fill="#ffffff" fill-opacity="1"><g transform="translate(48.606432, 16.625805)"><g><path d="M 4.75 -1.625 L 5.125 -0.453125 C 4.539062 -0.109375 3.960938 0.0625 3.390625 0.0625 C 2.816406 0.0625 2.34375 -0.109375 1.96875 -0.453125 C 1.59375 -0.796875 1.40625 -1.3125 1.40625 -2 L 1.40625 -5.671875 L 0.40625 -5.671875 L 0.40625 -6.8125 L 1.40625 -6.8125 L 1.40625 -8.75 L 2.921875 -8.75 L 2.921875 -6.8125 L 5.015625 -6.8125 L 5.015625 -5.671875 L 2.921875 -5.671875 L 2.921875 -2.28125 C 2.921875 -1.914062 2.984375 -1.660156 3.109375 -1.515625 C 3.234375 -1.378906 3.425781 -1.3125 3.6875 -1.3125 C 3.96875 -1.3125 4.320312 -1.414062 4.75 -1.625 Z M 4.75 -1.625 "/></g></g></g><g fill="#ffffff" fill-opacity="1"><g transform="translate(54.012234, 16.625805)"><g><path d="M 4.28125 -9.375 C 5.488281 -9.375 6.578125 -9.054688 7.546875 -8.421875 L 6.890625 -7.03125 C 5.941406 -7.601562 5.03125 -7.890625 4.15625 -7.890625 C 3.6875 -7.890625 3.316406 -7.804688 3.046875 -7.640625 C 2.773438 -7.472656 2.640625 -7.234375 2.640625 -6.921875 C 2.640625 -6.617188 2.765625 -6.359375 3.015625 -6.140625 C 3.265625 -5.921875 3.570312 -5.757812 3.9375 -5.65625 C 4.3125 -5.550781 4.71875 -5.421875 5.15625 -5.265625 C 5.59375 -5.117188 5.992188 -4.957031 6.359375 -4.78125 C 6.734375 -4.601562 7.039062 -4.332031 7.28125 -3.96875 C 7.53125 -3.601562 7.65625 -3.15625 7.65625 -2.625 C 7.65625 -1.8125 7.328125 -1.160156 6.671875 -0.671875 C 6.023438 -0.191406 5.1875 0.046875 4.15625 0.046875 C 3.4375 0.046875 2.742188 -0.0820312 2.078125 -0.34375 C 1.421875 -0.613281 0.84375 -0.972656 0.34375 -1.421875 L 1.03125 -2.78125 C 1.5 -2.34375 2.015625 -2.003906 2.578125 -1.765625 C 3.140625 -1.535156 3.671875 -1.421875 4.171875 -1.421875 C 4.722656 -1.421875 5.148438 -1.519531 5.453125 -1.71875 C 5.765625 -1.914062 5.921875 -2.191406 5.921875 -2.546875 C 5.921875 -2.867188 5.796875 -3.140625 5.546875 -3.359375 C 5.296875 -3.578125 4.984375 -3.734375 4.609375 -3.828125 C 4.242188 -3.929688 3.84375 -4.054688 3.40625 -4.203125 C 2.96875 -4.347656 2.5625 -4.503906 2.1875 -4.671875 C 1.820312 -4.835938 1.515625 -5.101562 1.265625 -5.46875 C 1.015625 -5.832031 0.890625 -6.269531 0.890625 -6.78125 C 0.890625 -7.570312 1.195312 -8.203125 1.8125 -8.671875 C 2.4375 -9.140625 3.257812 -9.375 4.28125 -9.375 Z M 4.28125 -9.375 "/></g></g></g><g fill="#ffffff" fill-opacity="1"><g transform="translate(62.273673, 16.625805)"><g><path d="M 4.046875 -7.125 C 5.253906 -7.125 6.128906 -6.757812 6.671875 -6.03125 C 7.222656 -5.300781 7.453125 -4.273438 7.359375 -2.953125 L 2.015625 -2.953125 C 2.128906 -2.398438 2.378906 -1.96875 2.765625 -1.65625 C 3.160156 -1.34375 3.640625 -1.1875 4.203125 -1.1875 C 5.003906 -1.1875 5.671875 -1.460938 6.203125 -2.015625 L 7 -1.140625 C 6.28125 -0.347656 5.304688 0.046875 4.078125 0.046875 C 2.992188 0.046875 2.117188 -0.28125 1.453125 -0.9375 C 0.796875 -1.59375 0.46875 -2.453125 0.46875 -3.515625 C 0.46875 -4.585938 0.796875 -5.453125 1.453125 -6.109375 C 2.117188 -6.773438 2.984375 -7.113281 4.046875 -7.125 Z M 1.984375 -4.0625 L 6.03125 -4.0625 C 6 -4.632812 5.804688 -5.082031 5.453125 -5.40625 C 5.097656 -5.738281 4.632812 -5.90625 4.0625 -5.90625 C 3.5 -5.90625 3.03125 -5.738281 2.65625 -5.40625 C 2.289062 -5.082031 2.066406 -4.632812 1.984375 -4.0625 Z M 1.984375 -4.0625 "/></g></g></g><g fill="#ffffff" fill-opacity="1"><g transform="translate(70.083526, 16.625805)"><g><path d="M 4.75 -1.625 L 5.125 -0.453125 C 4.539062 -0.109375 3.960938 0.0625 3.390625 0.0625 C 2.816406 0.0625 2.34375 -0.109375 1.96875 -0.453125 C 1.59375 -0.796875 1.40625 -1.3125 1.40625 -2 L 1.40625 -5.671875 L 0.40625 -5.671875 L 0.40625 -6.8125 L 1.40625 -6.8125 L 1.40625 -8.75 L 2.921875 -8.75 L 2.921875 -6.8125 L 5.015625 -6.8125 L 5.015625 -5.671875 L 2.921875 -5.671875 L 2.921875 -2.28125 C 2.921875 -1.914062 2.984375 -1.660156 3.109375 -1.515625 C 3.234375 -1.378906 3.425781 -1.3125 3.6875 -1.3125 C 3.96875 -1.3125 4.320312 -1.414062 4.75 -1.625 Z M 4.75 -1.625 "/></g></g></g><g fill="#ffffff" fill-opacity="1"><g transform="translate(75.489328, 16.625805)"><g><path d="M 1.21875 -9.3125 L 5.265625 -9.3125 C 6.234375 -9.3125 6.992188 -9.101562 7.546875 -8.6875 C 8.109375 -8.28125 8.390625 -7.710938 8.390625 -6.984375 C 8.390625 -6.460938 8.242188 -6.015625 7.953125 -5.640625 C 7.660156 -5.273438 7.257812 -5.03125 6.75 -4.90625 C 7.375 -4.800781 7.863281 -4.539062 8.21875 -4.125 C 8.570312 -3.707031 8.75 -3.179688 8.75 -2.546875 C 8.75 -1.753906 8.445312 -1.128906 7.84375 -0.671875 C 7.238281 -0.222656 6.410156 0 5.359375 0 L 1.21875 0 Z M 2.796875 -7.90625 L 2.796875 -5.453125 L 5.1875 -5.453125 C 5.6875 -5.453125 6.078125 -5.5625 6.359375 -5.78125 C 6.640625 -6 6.78125 -6.300781 6.78125 -6.6875 C 6.78125 -7.082031 6.640625 -7.382812 6.359375 -7.59375 C 6.078125 -7.800781 5.6875 -7.90625 5.1875 -7.90625 Z M 2.796875 -4.0625 L 2.796875 -1.390625 L 5.1875 -1.390625 C 5.800781 -1.390625 6.28125 -1.503906 6.625 -1.734375 C 6.96875 -1.972656 7.140625 -2.3125 7.140625 -2.75 C 7.140625 -3.15625 6.96875 -3.472656 6.625 -3.703125 C 6.28125 -3.941406 5.800781 -4.0625 5.1875 -4.0625 Z M 2.796875 -4.0625 "/></g></g></g><g fill="#ffffff" fill-opacity="1"><g transform="translate(84.866463, 16.625805)"><g><path d="M 4.15625 -7.125 C 5.25 -7.125 6.132812 -6.789062 6.8125 -6.125 C 7.5 -5.46875 7.84375 -4.601562 7.84375 -3.53125 C 7.84375 -2.46875 7.5 -1.601562 6.8125 -0.9375 C 6.132812 -0.28125 5.25 0.046875 4.15625 0.046875 C 3.0625 0.046875 2.171875 -0.28125 1.484375 -0.9375 C 0.804688 -1.601562 0.46875 -2.46875 0.46875 -3.53125 C 0.46875 -4.601562 0.804688 -5.46875 1.484375 -6.125 C 2.171875 -6.789062 3.0625 -7.125 4.15625 -7.125 Z M 4.15625 -5.8125 C 3.519531 -5.8125 3 -5.597656 2.59375 -5.171875 C 2.195312 -4.742188 2 -4.195312 2 -3.53125 C 2 -2.84375 2.195312 -2.285156 2.59375 -1.859375 C 3 -1.429688 3.519531 -1.21875 4.15625 -1.21875 C 4.800781 -1.21875 5.320312 -1.429688 5.71875 -1.859375 C 6.113281 -2.285156 6.3125 -2.84375 6.3125 -3.53125 C 6.3125 -4.195312 6.109375 -4.742188 5.703125 -5.171875 C 5.304688 -5.597656 4.789062 -5.8125 4.15625 -5.8125 Z M 4.15625 -5.8125 "/></g></g></g><g fill="#ffffff" fill-opacity="1"><g transform="translate(93.167748, 16.625805)"><g><path d="M 4.15625 -7.125 C 5.25 -7.125 6.132812 -6.789062 6.8125 -6.125 C 7.5 -5.46875 7.84375 -4.601562 7.84375 -3.53125 C 7.84375 -2.46875 7.5 -1.601562 6.8125 -0.9375 C 6.132812 -0.28125 5.25 0.046875 4.15625 0.046875 C 3.0625 0.046875 2.171875 -0.28125 1.484375 -0.9375 C 0.804688 -1.601562 0.46875 -2.46875 0.46875 -3.53125 C 0.46875 -4.601562 0.804688 -5.46875 1.484375 -6.125 C 2.171875 -6.789062 3.0625 -7.125 4.15625 -7.125 Z M 4.15625 -5.8125 C 3.519531 -5.8125 3 -5.597656 2.59375 -5.171875 C 2.195312 -4.742188 2 -4.195312 2 -3.53125 C 2 -2.84375 2.195312 -2.285156 2.59375 -1.859375 C 3 -1.429688 3.519531 -1.21875 4.15625 -1.21875 C 4.800781 -1.21875 5.320312 -1.429688 5.71875 -1.859375 C 6.113281 -2.285156 6.3125 -2.84375 6.3125 -3.53125 C 6.3125 -4.195312 6.109375 -4.742188 5.703125 -5.171875 C 5.304688 -5.597656 4.789062 -5.8125 4.15625 -5.8125 Z M 4.15625 -5.8125 "/></g></g></g><g fill="#ffffff" fill-opacity="1"><g transform="translate(101.469033, 16.625805)"><g><path d="M 3.921875 -3.25 L 2.71875 -1.984375 L 2.71875 0 L 1.203125 0 L 1.203125 -9.859375 L 2.71875 -9.859375 L 2.71875 -3.90625 L 5.84375 -7.078125 L 7.609375 -7.078125 L 4.984375 -4.328125 L 7.8125 0 L 6 0 Z M 3.921875 -3.25 "/></g></g></g></svg>